<?xml version="1.0" encoding="UTF-8"?>
<svg width="179px" height="164px" viewBox="0 0 179 164" version="1.1" xmlns="http://www.w3.org/2000/svg" xmlns:xlink="http://www.w3.org/1999/xlink">
    <title>Group 2</title>
    <g id="Page-1" stroke="none" stroke-width="1" fill="none" fill-rule="evenodd">
        <g id="Group-2" transform="translate(0.800000, 0.800000)">
            <g id="ic-aproximatetravel1">
                <ellipse id="Oval" fill="#D9E8F8" fill-rule="nonzero" cx="82.8" cy="83.5" rx="72.9" ry="73"></ellipse>
                <g id="Group">
                    <g fill="#FFFFFF" fill-rule="nonzero">
                        <path d="M148,33 L142.7,33.9 L137.5,34.8 L136.9,30.9 L136,24.8 L135.3,21.1 L141.9,20 C141.6,19.8 141.4,19.7 141.1,19.5 L135.3,20.5 L135.5,16.3 C135.3,16.2 135.1,16.1 134.9,16 L134.7,20 L128.1,20.5 L124.7,20 L124.8,19.7 C124.8,19.5 124.7,19.3 124.6,19.2 C124.6,19.2 124.6,19.2 124.6,19.2 C124.4,19.1 124.2,19.2 124.1,19.4 L123.8,20.1 C123.7,20.3 123.7,20.4 123.8,20.5 C123.9,20.6 124,20.7 124.1,20.7 L128.1,21.2 L128.2,21.2 L134.8,20.7 L135.5,24.4 L136.4,30.5 L137.1,34.7 L134.8,42.5 L132.6,47.6 L131.7,48.3 L130.3,44.4 C130.2,44.1 130,44 129.8,44.1 C129.6,44.1 129.5,44.4 129.6,44.6 L131,48.7 L129.7,49.2 C129.6,49.3 129.5,49.4 129.5,49.5 L129,51.5 C128.9,51.7 129.1,51.9 129.3,52 C129.3,52 129.3,52 129.3,52 C129.5,52 129.7,51.9 129.7,51.7 L130.2,49.9 L131.6,49.3 L131.7,49.3 L133.1,48.1 C133.2,48.1 133.2,48.1 133.2,48 L135.4,42.8 L137.6,35.1 L142.6,34.3 L144.2,43.5 L141.3,45 L141.2,45 C141.1,45.1 141.1,45.1 141.1,45.2 L141.1,45.2 L142.6,52.8 L138.2,54 C138,54.1 137.9,54.3 137.9,54.5 C137.9,54.5 137.9,54.5 137.9,54.5 C138,54.7 138.2,54.8 138.3,54.7 L143,53.4 L146.4,53 L152,52.4 L156.8,51.8 L156.9,51.8 L158.6,51.4 C158.5,50.9 158.3,50.5 158.2,50 L158.2,50.7 L157.2,50.9 L156.6,46.1 C156.6,45.8 156.4,45.7 156.2,45.7 L155.6,45.8 C155.4,45.9 155.3,46 155.3,46.3 C155.3,46.6 155.5,46.7 155.7,46.7 L155.9,46.7 L156.4,51.2 L152.3,51.7 L150.7,42.6 L154.9,41 C154.8,40.8 154.7,40.6 154.6,40.3 L150.1,42 L144.8,43.2 L143.3,34.1 L148.3,33.3 L148.4,33.3 L151,32.3 C150.9,32.2 150.9,32.1 150.8,32 L148,33 Z M143.1,53.2 L141.7,45.9 L144.1,44.7 L144.1,44.7 L145.7,52.9 L143.1,53.2 Z M149.9,43.4 L151.4,52.4 L146.5,52.9 L144.9,44.5 L149.9,43.4 Z" id="Shape" opacity="0.7"></path>
                        <path d="M79.9,61.7 C79.8,61.5 79.6,61.4 79.4,61.5 L79.3,61.5 C79.2,61.6 79.1,61.9 79.2,62 L80.2,64.3 L80,65.6 L78,70.2 L74.2,71.5 C74,71.5 73.9,71.8 74,72 C74.1,72.3 74.3,72.4 74.5,72.3 L78.4,70.9 C78.5,70.9 78.6,70.8 78.6,70.7 L80.7,65.8 L80.7,65.7 L80.9,64.2 C81,64.1 80.9,64.1 80.9,64 L79.9,61.7 Z" id="Path" opacity="0.7"></path>
                        <path d="M91.7,19.4 C91.6,19.4 91.5,19.4 91.5,19.5 C91.5,19.5 91.3,19.8 91.3,19.8 L90.6,26 C90.6,26.3 90.7,26.5 90.9,26.5 C91.1,26.5 91.3,26.3 91.3,26.1 L92,19.9 C92,19.5 91.9,19.4 91.7,19.4 Z" id="Path" opacity="0.7"></path>
                        <path d="M83.4,17.6 C83.3,17.6 83.3,17.7 83.2,17.7 C83.1,17.7 83,17.9 83,18 L83.2,23.9 C83.2,24.1 83.4,24.3 83.6,24.3 C83.8,24.3 83.9,24.1 83.9,23.9 L83.7,18 C83.8,17.8 83.6,17.6 83.4,17.6 Z" id="Path" opacity="0.7"></path>
                        <path d="M76.3,17.2 C76.2,17.2 76.1,17.3 76.1,17.3 C76,17.4 75.9,17.5 75.9,17.6 L75.8,21.9 C75.7,22.1 75.9,22.3 76.1,22.3 C76.3,22.3 76.5,22.1 76.5,21.9 L76.6,17.6 C76.7,17.4 76.5,17.2 76.3,17.2 Z" id="Path" opacity="0.7"></path>
                        <path d="M96.8,19.4 C96.7,19.4 96.6,19.4 96.5,19.5 C96.4,19.6 96.4,19.6 96.3,19.7 L95.2,25.9 C95.2,25.9 95.2,25.9 95.2,26 C95.2,26.2 95.3,26.4 95.5,26.4 C95.5,26.4 95.5,26.4 95.5,26.4 C95.7,26.4 95.9,26.3 95.9,26.1 L97,19.9 C97,19.9 97,19.9 97,19.8 C97.1,19.6 97,19.5 96.8,19.4 Z" id="Path" opacity="0.7"></path>
                        <path d="M98.9,19.8 C98.8,19.8 98.8,19.9 98.7,19.9 C98.6,20 98.5,20.1 98.5,20.3 L99,24.1 C99,24.4 99.2,24.5 99.4,24.5 C99.6,24.4 99.7,24.3 99.7,24 L99.3,20.2 C99.3,19.9 99.1,19.8 98.9,19.8 Z" id="Path" opacity="0.7"></path>
                        <path d="M159.6,74.3 C159.4,74.4 159.3,74.6 159.3,74.8 C159.4,75 159.6,75.1 159.8,75.1 L162.5,74.6 L163,74.5 C163,74.3 163,74 162.9,73.8 L162.2,73.9 L159.6,74.3 Z" id="Path" opacity="0.7"></path>
                        <path d="M159.2,94.1 L159.2,94.1 L157.8,92.3 L160.9,91.4 C160.9,91.4 160.9,91.4 161,91.4 C161.2,91.3 161.3,91.1 161.2,91 C161.2,91 161.2,91 161.2,91 C161.1,90.8 160.9,90.7 160.8,90.8 L157.4,91.8 L156.4,90.8 C156.3,90.7 156.3,90.7 156.2,90.7 L154.9,90.6 L154.4,88.5 C154.4,88.5 154.4,88.5 154.4,88.5 C154.3,88.3 154.1,88.2 154,88.3 C153.8,88.4 153.7,88.6 153.7,88.8 L154.2,91.2 L154.2,91.3 L154.8,93.1 L155.5,95.6 C155.5,95.6 155.5,95.6 155.5,95.6 C155.6,95.8 155.8,95.9 155.9,95.8 L157.9,95.2 L159.6,100.3 L157.5,100.7 C157.4,100.8 157.4,100.8 157.4,100.8 C157.3,100.8 157.3,100.8 157.3,100.9 L157.3,101.2 L157.9,103.7 L158.5,106.2 L159.1,108.8 L157.7,108.7 L157.6,108.7 L154,108.5 L153.9,108.5 L150,109 L139.7,109.5 L138.7,109.5 L137,102 L137.1,100.7 L137,98.2 L138.4,92.6 L139,88.8 C139,88.5 138.9,88.3 138.7,88.3 C138.7,88.3 138.7,88.3 138.7,88.3 C138.5,88.3 138.3,88.4 138.3,88.6 L137.7,92.1 L131.8,92.1 C131.8,92.1 131.8,92.1 131.7,92.1 C131.5,92.1 131.3,92.3 131.4,92.5 C131.4,92.7 131.6,92.9 131.8,92.8 L137.5,92.8 L136.2,98 L136.2,98.1 L136.3,100.6 L136.2,101.5 L132.7,101.4 L129.2,101.2 L129.1,99.8 L129.1,99.7 C129,99.6 129,99.5 129,99.5 C128.9,99.4 128.9,99.4 128.9,99.4 L123,99.4 C123,99.4 123,99.4 122.9,99.4 C122.7,99.4 122.5,99.6 122.6,99.8 C122.6,100 122.8,100.2 123,100.1 L128.4,100.1 L128.5,101.5 C128.5,101.6 128.6,101.6 128.6,101.7 L128.7,101.8 C128.8,101.8 128.8,101.9 128.9,101.9 L129,101.9 L132.5,102.1 L131.3,109.1 L130,109.1 L123.2,109.2 C123,109.2 122.8,109.4 122.8,109.6 C122.8,109.7 122.8,109.7 122.9,109.8 C123,109.9 123.1,110 123.2,110 L130,109.9 L131.6,109.9 L138.6,110 L139.6,110 L140.6,123.3 L139.1,122.9 L139,122.9 L130.8,121.6 L127.7,121.2 L123.1,120.7 L122,120.2 L123,119.5 C123.2,119.3 123.2,119.1 123.1,119 C123,118.8 122.8,118.8 122.6,118.9 L121.7,119.5 L119.7,119.2 L114.1,116.7 L113.8,116.7 L112.5,117.4 C112.4,117.4 112.4,117.5 112.4,117.5 L106,125.9 L102.5,130.9 L96.9,127 L91.6,122.5 L88.9,120 L91.2,117 L97.3,108.6 C97.4,108.5 97.4,108.3 97.2,108.1 C97.2,108 97.1,108 97.1,108 L92.8,105 L94.8,102 L96.7,99.5 L96.8,99.4 L96.8,99.2 L96.7,99.1 L96.6,99.1 L93.4,96.7 C93.2,96.6 93,96.6 92.9,96.8 L91.1,99.3 C91,99.5 91,99.8 91.2,99.8 L94,102 L92.2,104.7 L90.5,103.3 L87.5,100.9 L86.7,100.3 L86.6,100.3 L81.3,97.1 L80.1,95.6 L80,95.6 L77.9,94.1 L77.2,94.1 L75.3,93.2 L69,89 L72.2,84.8 L79,89 L79.1,89 C79.3,89 79.5,89 79.6,88.8 L82.1,85.3 L86.4,88.4 C86.6,88.5 86.8,88.5 86.9,88.3 C86.9,88.3 86.9,88.3 86.9,88.2 C87,88 87,87.8 86.8,87.7 L82.2,84.2 L75.8,79.9 L79.4,76.5 C79.5,76.4 79.5,76.4 79.5,76.3 L80,74.2 C80.1,74 79.9,73.8 79.7,73.7 C79.7,73.7 79.7,73.7 79.7,73.7 C79.5,73.7 79.3,73.8 79.3,74 L78.8,76 L75.2,79.6 L70.1,76.1 L70,76.1 L62.2,73.3 L60.4,72.5 L62.8,70.2 L66,69.1 L70,70 C70,70 70,70 70,70 C70.2,70 70.4,69.9 70.4,69.7 C70.5,69.5 70.3,69.3 70.1,69.2 L66,68.3 L65.8,68.3 L62.4,69.5 L61.2,69.8 L61.5,69.5 L66,67.4 C66.1,67.4 66.1,67.3 66.1,67.3 L69.4,64.3 C69.5,64.1 69.5,63.9 69.4,63.8 C69.3,63.7 69,63.7 68.9,63.8 L65.7,66.7 L61.3,68.8 L56.6,67.7 C56.5,67.6 56.4,67.7 56.4,67.7 L53.6,69.1 L49.6,69.6 L43.4,67.6 L41.8,66.8 L41.6,66.7 L44.2,62.7 L49.1,56.1 L49.2,56 L51.2,50.3 L52.9,47 L55.2,44.8 L57.6,43.4 L57.7,43.4 L57.9,43.2 L58.2,43.3 C58.4,43.3 58.6,43.2 58.7,43 L59.2,41.5 L59.7,40.5 L66.5,42.9 L70.3,43.9 L74.7,44.9 L78.5,46 L81.5,48.5 C81.7,48.6 81.9,48.6 82,48.4 C82.1,48.2 82.1,47.9 81.9,47.9 L78.9,45.4 C78.9,45.3 78.8,45.3 78.8,45.3 L75.2,44.2 L75.7,42.5 L76.5,41 C76.6,40.9 76.6,40.7 76.5,40.6 L76.1,40 C76,39.9 75.9,39.8 75.8,39.8 C75.7,39.8 75.5,39.9 75.5,40 L74.8,41 C74.7,41.1 74.7,41.2 74.7,41.3 L75,42.3 L74.5,44 L70.8,43.2 L72.5,36.8 C72.6,36.7 72.6,36.6 72.5,36.5 L72,35.5 C71.9,35.4 71.9,35.3 71.8,35.3 L70,34.7 L69.7,34.7 L68.8,35.2 C68.7,35.3 68.6,35.4 68.6,35.5 L67.5,39.1 L66.4,41.9 L60,39.7 L60.6,38.3 L62.1,35.1 L63.7,32.2 L65.6,28.7 L79.8,35.3 L80.8,35.8 L85.6,38.1 L86.2,38.4 L88.5,39.6 L89.2,40 L98.6,46.3 L103.4,49.2 L106.4,51.7 L107.6,52.9 L109.5,56.3 C109.6,56.4 109.6,56.5 109.7,56.5 L112.1,57.2 L115.2,63.6 L117,69.9 L114.9,70.8 C114.8,70.8 114.8,70.9 114.8,70.9 C114.7,70.9 114.7,71 114.7,71 C114.7,71 114.6,71.1 114.6,71.2 L114.6,71.2 L116.6,78.5 C116.7,78.6 116.7,78.7 116.7,78.7 C116.8,78.8 116.9,78.8 117,78.8 L119.2,78.3 L120.8,77.4 L119.5,77.6 L117.8,70.2 L115.9,63.6 L115.9,63.5 L112.9,57.3 L114.4,56.6 C114.5,56.5 114.5,56.5 114.6,56.4 L115.6,54.8 L116.6,54.7 L119,65.1 L119.3,66.6 L119.9,69.6 L121.2,77.2 L121.3,77.1 L121.5,80.8 L121.3,81.8 C121.3,81.9 121.3,82.1 121.4,82.2 L121.9,82.6 C122,82.7 122,82.7 122,82.7 L122.2,82.7 C122.3,82.6 122.4,82.6 122.4,82.5 C122.4,82.5 122.5,82.5 122.5,82.4 L122.5,82.2 L122.2,80.8 L121.9,76.6 L120.6,68.9 L128.7,68 L129.6,75.7 L129.2,83.7 C129.2,83.7 129.2,83.7 129.2,83.7 C129.2,83.9 129.4,84 129.5,84 C129.7,84 129.9,83.8 129.9,83.6 L130.3,76 L136.8,75.4 L140.4,76.6 L140.5,76.6 L142.1,76.7 C142.3,76.7 142.4,76.6 142.5,76.4 L144.5,71.4 L153.1,74 L153.6,76.8 L153.8,77.1 L154.5,77.6 C154.6,77.7 154.7,77.7 154.8,77.7 L160.2,76.8 C160.4,76.7 160.5,76.5 160.5,76.3 C160.4,76.1 160.2,76 160,76 L154.8,76.9 L154.4,76.6 L153.9,73.7 C153.8,73.6 153.7,73.4 153.6,73.4 L144.4,70.7 C144.4,70.7 144.4,70.7 144.4,70.7 C144.2,70.6 144,70.7 144,70.9 L142,76 L140.8,75.9 L137.2,74.7 L137,74.7 L130.4,75.3 L129.6,67.8 L134.4,65.7 C134.6,65.7 134.7,65.4 134.6,65.2 L134,63.7 L133.9,63.6 C133.9,63.5 133.8,63.5 133.8,63.5 L132.2,62.2 L130,59.5 C130,59.5 129.9,59.4 129.9,59.4 L128.7,58.9 L127.6,53 L127.6,52.2 L127.3,50.6 L125.2,41.2 L123.5,31.5 L121.9,23.3 C121.8,23.1 121.6,23 121.4,23 C121.2,23.1 121.1,23.3 121.1,23.5 L122.7,31.3 L113.8,32.8 L112.4,26 L112.5,24.9 L112.7,21.8 C112.7,21.8 112.7,21.8 112.7,21.8 C112.7,21.6 112.5,21.5 112.4,21.5 C112.2,21.5 112,21.7 112,21.9 L111.8,25 L111.7,25.5 L110.9,25 L111.8,21.9 C111.9,21.7 111.7,21.5 111.5,21.4 C111.3,21.4 111.1,21.5 111,21.7 L110,25 L104.8,30.1 L102.5,32.6 L100.5,34.1 L97.5,34.6 L95.5,33.5 L94.9,33.1 C94.7,33 94.5,33 94.4,33.2 C94.3,33.4 94.3,33.6 94.5,33.7 L95.1,34.2 L95.2,34.2 L97.4,35.4 L97.6,35.4 L100.8,34.9 C100.9,34.9 100.9,34.8 101,34.8 L102.8,33.5 L103.2,34.6 L102.9,36.1 L98.9,45.4 L89.8,39.3 L89.7,39.3 L89,38.9 L87.4,38 L88.6,37.5 C88.7,37.5 88.7,37.5 88.7,37.4 L92.1,32.9 C92.1,32.9 92.1,32.9 92.1,32.8 C92.2,32.6 92.2,32.4 92,32.3 C91.8,32.2 91.6,32.2 91.5,32.4 L88.1,36.9 L86.5,37.7 L86.3,37.6 L87.5,34.3 L87.5,34.2 L87.9,30 C87.9,29.7 87.8,29.5 87.6,29.5 C87.4,29.5 87.2,29.7 87.2,29.9 L86.8,34.1 L85.6,37.3 L81.4,35.3 L81.6,29.5 L82.5,28 C82.6,27.8 82.5,27.6 82.3,27.5 C82.1,27.4 81.9,27.5 81.8,27.7 L80.9,29.2 C80.9,29.2 80.8,29.3 80.8,29.4 L80.7,30.7 L79.9,27.9 L79.8,27.8 L79.7,27.7 L75.8,23.7 C75.7,23.7 75.7,23.6 75.6,23.6 L70.4,21.9 L70.3,21.9 L69.1,22 L70.2,18.9 L70.8,17.4 L71,16.9 L71.3,16.2 L71.4,15.8 L72.6,12.3 L73.2,11 L80.6,13.2 L80.8,13.2 L91,8.7 C91.1,8.7 91.1,8.6 91.1,8.6 L91.2,8.5 C91.2,8.5 91.3,8.4 91.3,8.3 L91.3,8.2 L91,7.4 L92.2,4.8 C91.9,4.8 91.7,4.8 91.4,4.8 L90.4,6.9 L81.7,5.7 L79.4,5 C78.7,5.1 78,5.1 77.4,5.2 L81.5,6.4 L81.6,6.4 L90.4,7.6 L90.5,8.1 L80.7,12.4 L73.4,10.2 L74.7,5.5 C74.4,5.5 74.1,5.6 73.8,5.6 L71.9,10.6 L71.9,11.5 L70.2,10.3 C70.1,10.2 70.1,10.2 70.1,10.2 L66.3,8.7 C66.1,8.6 66,8.7 65.8,8.8 L64.7,10.3 C64.7,10.4 64.6,10.4 64.6,10.5 L63.9,15 C63.9,15.3 64,15.5 64.2,15.5 C64.2,15.5 64.2,15.5 64.2,15.5 C64.4,15.5 64.6,15.4 64.6,15.2 L65.3,10.7 L66.2,9.4 L69.7,10.7 L71.7,12.2 L70.6,15.5 L70.5,15.9 L70.3,16.4 L70.2,16.9 L69.6,18.4 L68.4,22 L65.8,26.8 L63.1,25.2 C63.1,25.1 63,25.1 62.9,25.1 L62.8,25.1 C62.7,25.1 62.7,25.1 62.6,25.2 L62.5,25.3 L62.5,25.4 L62.2,26.3 L59.5,24.5 L57.5,21 C57.5,21 57.5,20.9 57.4,20.9 L55.9,19.6 L55.8,19.6 L53.4,18.1 L53.3,18.1 L46.3,16.2 L46.2,16.2 L45.2,16.1 C45,16.1 44.8,16.3 44.8,16.5 C44.8,16.8 44.9,17 45.1,17 L46.1,17.1 L52.7,18.9 L51.5,22.1 L51.5,22.4 L52.3,25.1 C52.3,25.1 52.3,25.1 52.3,25.1 C52.4,25.3 52.6,25.4 52.7,25.3 C52.9,25.3 53,25 52.9,24.8 L52.2,22.2 L53.3,19.2 L55.3,20.5 L56.7,21.7 L58.7,25 L55.3,31.7 L53,34.4 L52.4,35.1 L49.6,33 C49.4,32.9 49.2,32.9 49.1,33.1 C49.1,33.1 49.1,33.1 49.1,33.2 C49,33.4 49,33.6 49.2,33.7 L52.1,35.9 L50.7,38.8 L44.3,36.8 L44.2,36.8 C44.1,36.8 44,36.8 43.9,36.9 C43.9,36.9 43.9,36.9 43.9,36.9 C43.8,36.9 43.7,37 43.7,37.1 L43.7,37.2 L42.2,47.2 L36.9,46 L38,42.5 L40.1,37 L40.3,36.6 L40.3,36.5 L42.3,31 L43.7,28.4 L46.5,30.1 L48.2,32.5 C48.3,32.7 48.5,32.7 48.7,32.6 C48.8,32.4 48.9,32.2 48.8,32.1 L47.1,29.7 C47,29.7 47,29.6 47,29.6 L44,27.8 L44.5,26.3 L44.5,26.2 C44.5,26.2 44.5,26.1 44.4,26.1 C44.4,26.1 44.3,26 44.3,26 L44.1,26 L43.9,26.1 L44,25.9 C44.1,25.7 43.9,25.5 43.7,25.4 C43.5,25.4 43.3,25.5 43.2,25.7 L43,26.2 L34.6,22.1 L34.5,21.1 C34.5,21.1 34.5,21 34.5,21 C34.3,21.2 34,21.3 33.8,21.5 L33.9,22.3 L32.7,25.4 C32.7,25.5 32.7,25.7 32.8,25.8 L34.8,27.8 C34.8,27.9 34.9,27.9 34.9,27.9 L35,27.9 L39.7,29.4 C39.9,29.4 40.1,29.3 40.2,29.1 C40.2,28.9 40.1,28.7 40,28.6 L35.4,27.1 L33.6,25.4 L34.6,22.9 L43,27 L41.8,31.1 L39.8,36.5 L39.6,36.9 L37.5,42.5 L36.6,44.1 L36.2,42.6 C36.2,42.5 36.2,42.5 36.1,42.4 L35.7,41.9 L35.9,43.8 L35,47 L33,51.9 L31,56.7 L29.3,56.2 L29.1,56.2 L27.4,56.6 C27.3,56.6 27.2,56.7 27.1,56.8 L25.1,60.8 L24.1,60.9 L26.1,54.8 L30.9,40.4 L32.7,41 L31.6,43.3 C31.5,43.5 31.6,43.7 31.8,43.8 L33.9,44.9 C34.1,45 34.3,44.9 34.4,44.7 L35.3,43.2 C35.4,43 35.3,42.8 35.1,42.7 C34.9,42.6 34.7,42.7 34.6,42.9 L33.9,44.1 L32.6,43.2 L33.7,40.8 C33.7,40.8 33.8,40.7 33.8,40.6 L33.8,40.5 C33.8,40.5 33.8,40.5 33.8,40.5 L31.5,39.6 L30.9,39.4 C30.9,39.4 30.9,39.4 30.9,39.4 C30.7,39.3 30.5,39.4 30.4,39.6 L25.5,54.3 L23.3,60.9 L20.6,66 C20.5,66.2 20.6,66.4 20.8,66.5 C21,66.6 21.2,66.5 21.3,66.3 L23.9,61.4 L25.4,61.3 C25.5,61.3 25.6,61.2 25.7,61.1 L27.7,57.1 L29.1,56.8 L30.8,57.3 L30.2,60.1 L30.2,60.2 L30.3,63 L30.1,63.8 L29.4,66.3 L29.4,66.5 L29.8,71 L29.8,71.9 L25,70.1 L21.5,68.2 C21.3,68.1 21.1,68.2 21,68.4 C20.9,68.6 21,68.8 21.2,68.9 L24.6,70.7 L24.7,70.7 L29.8,72.6 L29.9,73.9 L27.9,75.1 L20.7,71.6 C20.7,71.6 20.7,71.6 20.7,71.6 C20.6,71.5 20.4,71.6 20.3,71.7 L19.1,73.3 C19.1,73.3 19,73.3 19,73.4 L18,77.5 L15.2,83.4 L13,82.5 C13,82.5 13,82.5 13,82.5 C12.8,82.4 12.6,82.5 12.5,82.7 C12.5,82.7 12.5,82.7 12.5,82.7 C12.4,82.9 12.5,83 12.7,83.1 L14.8,84 L12.6,87.8 C12.5,87.8 12.5,87.9 12.5,87.9 L11.2,91.7 L7.7,95.7 C7.7,95.8 7.6,95.8 7.6,95.8 C7.5,96 7.5,96.2 7.7,96.3 L8.4,96.8 L11.5,93.3 C11.5,93.3 11.6,93.3 11.6,93.2 L12.8,89.7 L19.2,93.2 L19.2,93.2 L14.4,100.5 L15,100.9 L19.9,93.6 L21.8,95 L16.5,102.1 L15.9,101.7 L15.6,101.9 C15.5,101.9 15.5,102 15.4,102.1 L14.5,104.1 L11.8,108.3 L10.8,109.8 L10.6,110.1 L6.6,106.4 L6.6,106.3 L6.6,106.2 C6.6,106.1 6.5,106.1 6.5,106.1 L3.3,103.2 L3.2,103.2 C3.2,103.1 3.2,103.1 3.1,103.1 L2.9,103.1 C2.8,103.1 2.8,103.2 2.7,103.2 C2.6,103.2 2.6,103.3 2.6,103.3 L1.4,105.2 C1.5,105.8 1.6,106.3 1.7,106.9 L2.8,105.2 L5.5,107.7 L5.5,107.7 L3.2,109.6 L3,109.2 L2.4,108.6 L2.2,108.9 C2.3,109.4 2.4,110 2.6,110.5 L2.9,110.1 L3.1,110.3 L3.1,110.3 L5.3,112.3 L4.9,112.9 L5.1,112.9 C5.2,112.9 5.2,112.8 5.3,112.8 L5.4,112.7 L6.3,111.2 C6.3,111.2 6.3,111.2 6.3,111.2 C6.4,111.1 6.4,110.9 6.2,110.8 L4.1,109.1 L6.2,107.2 L10.2,110.8 L6.8,116.2 L5.4,118.5 L4.5,117.9 C4.8,118.8 5.1,119.6 5.4,120.5 L5.6,120.2 L7,117.9 L13.1,123.1 L13.6,124.1 L10.1,124.7 L10.2,124.7 L8.5,125.1 L8.1,124 C8.1,123.9 8,123.9 8,123.8 L6.4,122.6 C6.6,123 6.8,123.5 7,123.9 L7.5,124.3 L7.8,125.1 L7.5,125.2 C7.6,125.5 7.8,125.8 7.9,126 L8.3,125.9 L10.1,125.5 L10.3,126.4 C10.3,126.5 10.4,126.5 10.4,126.6 L16.9,132.2 L16.6,132.5 L16.5,132.5 L14.5,134.2 L11.1,131.4 C11.2,131.6 11.3,131.8 11.5,132 L14.1,134.2 L13.7,134.2 L13.3,134.6 C13.7,135.1 14.1,135.7 14.5,136.2 L17.6,138.9 C17.6,138.9 17.7,139 17.7,139 C17.8,139.1 18,139.1 18.1,138.9 C18.2,138.7 18.2,138.5 18,138.4 L14.4,135.2 L14.6,135 L16.6,133.3 L18.7,135.3 L18.8,135.3 L25.4,139.6 L25.2,140.2 L23.9,145.3 C24.2,145.5 24.4,145.7 24.7,145.9 L26,140.6 L33.4,144.9 L33.2,151.2 C33.4,151.3 33.6,151.4 33.9,151.6 L34.2,144.6 L34.8,141.2 L40.4,148.8 L42.7,155.4 C42.9,155.5 43.1,155.5 43.3,155.6 L41.1,149.3 L43.3,149.6 C43.4,149.6 43.6,149.5 43.6,149.4 L45.1,147.4 L45.7,147.3 L50.2,149.6 L47.8,153.3 C47.7,153.5 47.7,153.7 47.9,153.8 C47.9,153.8 48,153.9 48,153.9 C48.2,154 48.3,153.9 48.4,153.7 L51,149.6 C51.1,149.5 51.1,149.4 51.1,149.3 C51.1,149.1 51,149.1 50.9,149 L45.9,146.5 L45.7,146.5 L44.8,146.7 C44.7,146.8 44.6,146.8 44.6,146.9 L43.1,148.8 L41.1,148.5 L42.9,145.2 C42.9,145.2 43,145.1 43,145 L43.6,135.9 L50.1,135.5 C50.3,135.5 50.4,135.3 50.4,135.1 C50.4,134.9 50.2,134.7 50,134.7 L43.5,135.1 L43.6,132.3 L45,128 L50.7,130.1 L53.1,131 L52.5,132.8 C52.5,133 52.6,133.2 52.7,133.3 C52.9,133.3 53.1,133.2 53.2,133 L53.9,130.8 C53.9,130.6 53.8,130.4 53.7,130.3 L51.4,129.4 L54.4,123 L57.3,124.6 L55.4,129.4 C55.4,129.6 55.5,129.8 55.6,129.9 C55.6,129.9 55.6,129.9 55.6,129.9 C55.8,130 56,129.9 56.1,129.7 L58,125 L63.5,128.2 L62.1,131.1 L59.7,136.2 L56.7,134.3 C56.6,134.2 56.6,134.2 56.5,134.2 L55.5,134.2 C55.4,134.2 55.3,134.2 55.3,134.3 L53.9,135.5 C53.7,135.6 53.7,135.9 53.8,136 C53.9,136.2 54.1,136.2 54.3,136.1 L55.7,135 L56.5,135 L59.7,137.1 L59.8,137.1 L63.4,138.6 L70.2,141.3 C70.2,141.3 70.2,141.3 70.2,141.3 C70.4,141.4 70.6,141.3 70.7,141.1 C70.7,140.9 70.6,140.7 70.5,140.6 L64.1,138.1 L65.1,135.6 L66.1,136.1 C66.3,136.2 66.5,136.1 66.6,135.9 C66.7,135.7 66.6,135.5 66.4,135.4 L65,134.7 L64.7,134.7 C64.6,134.7 64.5,134.8 64.5,134.9 L63.4,137.8 L60.5,136.6 L62.9,131.5 L64.3,128.7 L72.1,133 L74.2,134.2 C74.4,134.3 74.6,134.2 74.7,134 C74.8,133.9 74.8,133.7 74.7,133.6 C74.7,133.6 74.6,133.5 74.6,133.5 L72.5,132.3 L64.3,127.8 L58.1,124.2 L54.9,122.4 L56.7,119.1 L63.2,123 L63.2,123 L68,124.8 L71.5,126.1 L75.5,128.4 C75.7,128.5 75.9,128.4 76,128.2 C76.1,128 76,127.8 75.8,127.7 L72,125.8 L75.5,114.7 C75.5,114.6 75.5,114.4 75.4,114.3 L75.1,113.8 L78.1,108.3 L80.7,104.1 C80.8,103.9 80.8,103.7 80.6,103.6 C80.6,103.6 80.5,103.5 80.5,103.5 C80.3,103.4 80.2,103.5 80.1,103.7 L77.7,107.4 L72.6,102.5 L71.7,101.4 L72,100.5 L76.1,94.9 L78.4,96.5 L78.4,96.5 L78.4,96.5 C78.5,96.5 78.5,96.5 78.3,96.6 L78.4,96.6 L80.2,97.1 L85.5,100.3 L85.7,100.5 L85.6,100.5 C85.4,100.4 85.2,100.4 85.1,100.6 C85,100.8 85,101 85.2,101.1 L86.1,101.7 L89.3,103.3 L91.3,104.8 L95.6,107.8 L89.7,115.9 L87.1,119.2 L82.4,125.9 L80.1,124.4 C79.9,124.3 79.7,124.3 79.6,124.5 C79.5,124.7 79.5,124.9 79.7,125 L82.3,126.7 L84.7,128.7 L84.4,130 L81.4,134.2 C81.3,134.3 81.3,134.5 81.4,134.7 C81.4,134.8 81.5,134.8 81.5,134.8 L85.7,137.9 L83.9,140.4 C83.9,140.4 83.9,140.4 83.9,140.5 C83.8,140.7 83.8,140.9 84,141 C84.2,141.1 84.4,141.1 84.5,140.9 L86.3,138.4 L87.9,139.5 L94.5,144 L95.2,145.1 L93.1,147.3 L89.5,150.8 C89.5,150.9 89.4,150.9 89.4,150.9 L88.7,151.8 L88.5,152 L88.3,151.9 C88.2,151.9 88,152 87.9,152.1 L85.6,155.3 L85,155.8 L80.6,160.7 C80.9,160.7 81.3,160.7 81.6,160.7 L85.5,156.4 L90.5,160.2 C90.7,160.2 90.9,160.2 91.1,160.2 L86.2,156.4 L86.5,156.1 C86.5,156 86.6,156 86.6,156 L89.4,152.9 L89.5,152.9 L89.6,152.8 L96.6,157.5 L95.2,159.7 C95.5,159.7 95.9,159.6 96.2,159.6 L97.4,157.6 L101,151.5 C101.1,151.3 101.1,151.1 100.9,151 C100.9,151 100.8,150.9 100.8,150.9 C100.6,150.8 100.5,150.9 100.4,151.1 L96.9,156.8 L90,152.2 L90.5,151.6 L94.1,148.1 L96.4,145.6 L97.3,144.8 L101.1,141.1 L110.8,145.6 C111,145.7 111.2,145.6 111.3,145.4 C111.3,145.4 111.3,145.4 111.3,145.4 C111.4,145.2 111.3,145 111.1,144.9 L101.6,140.4 L106.5,134.6 L113.9,138.9 C114.1,139 114.3,138.9 114.4,138.8 C114.5,138.6 114.5,138.4 114.3,138.2 L106.6,133.7 L106.4,133.7 L105.4,133.6 L102.6,131.1 L106,126.4 L117,133.3 C117,133.3 117.1,133.4 117.1,133.4 C117.3,133.5 117.4,133.4 117.5,133.2 C117.6,133 117.6,132.8 117.4,132.7 L106.4,125.8 L112.4,117.8 L113.5,117.3 L119,119.8 L122.5,121.3 L122.6,121.3 L127.3,121.8 L130.4,122.2 L138.2,123.5 L138.5,136.4 L137,136.5 C136.9,136.5 136.9,136.6 136.8,136.6 L132.7,139 L132.7,134.7 C132.7,134.5 132.6,134.3 132.4,134.3 L128.7,133.3 L118.9,129.1 C118.9,129.1 118.9,129.1 118.9,129.1 C118.7,129 118.5,129.1 118.4,129.3 C118.4,129.3 118.4,129.3 118.4,129.3 C118.3,129.5 118.4,129.6 118.6,129.7 L128.4,133.9 L128.5,133.9 L132,134.8 L132,139.3 L131.4,142.6 C131.4,142.6 131.4,142.6 131.4,142.7 C131.4,142.9 131.5,143.1 131.7,143.1 C131.7,143.1 131.7,143.1 131.7,143.1 C131.9,143.1 132.1,143 132.1,142.8 L132.6,139.7 L137.1,137.1 L138.9,137 L139,137 C139.1,136.9 139.2,136.9 139.2,136.8 L139.2,136.6 L138.9,123.5 L140.3,123.8 L141.6,133.6 L142,137.1 L142.2,138.9 C142.4,138.7 142.6,138.4 142.8,138.2 L142.7,137.3 L143.7,137.2 C144.1,136.8 144.4,136.3 144.8,135.8 L144.5,133.3 L145.9,133 L146,133 C146.1,133 146.1,133 146.1,132.9 C146.2,132.9 146.2,132.8 146.2,132.8 L146.2,132.6 L145.5,124.8 C145.5,124.6 145.3,124.4 145.1,124.4 C145.1,124.4 145.1,124.4 145.1,124.4 C144.9,124.4 144.8,124.6 144.8,124.8 L145.4,132.3 L143.9,132.6 L142.1,132.9 L140.9,123.6 L146.5,123.6 L150.8,123 L151.1,125.4 C151.3,125 151.6,124.6 151.8,124.2 L151.6,122.9 L152.6,122.8 C152.7,122.5 152.9,122.3 153,122 L151.1,122.3 L146.5,122.9 L141.2,122.9 L140.2,109.4 L150.2,108.9 L150.2,108.9 L153.8,108.5 L154.9,118.9 C155.1,118.5 155.3,118.1 155.5,117.7 L154.5,108.4 L157.5,108.6 L158.4,111.6 C158.6,111.2 158.7,110.9 158.9,110.5 L158.4,108.7 L159.6,108.8 C159.7,108.5 159.8,108.3 159.9,108 L159.9,108 L159.4,105.5 L160.8,105.3 C160.9,105 160.9,104.8 161,104.5 L159.2,104.8 L158.8,103 L161.4,102.6 C161.5,102.3 161.5,102.1 161.5,101.8 L158.5,102.3 L158.1,100.6 L160.3,100.2 L161.8,99.8 L161.9,99.8 C161.9,99.6 162,99.3 162,99.1 L161.8,99.1 L159.2,94.1 Z M131.8,108.9 L133,101.9 L136.3,102 L137.9,109 L131.8,108.9 Z M91.6,99 L93,97.2 L95.6,99.1 L95.6,99.1 L95.6,99.1 L95.6,99.1 L94.2,101 L91.6,99 Z M75.7,41.2 L75.6,41.4 L75.7,41.2 Z M68.2,39.4 L69.3,35.9 L69.9,35.6 L69.9,35.6 L71.4,36.1 L71.8,36.8 L70.2,43 L67.1,42.2 L68.2,39.4 Z M118.7,77.6 L117.3,78 L115.5,71.4 L117.2,70.7 L118.7,77.6 Z M133.1,64.8 L133.6,66 L129.3,67.8 L129,64.7 L131.7,63.4 L133.1,64.8 Z M129.4,60.4 L131.2,62.7 L128.9,63.7 L128.6,60.1 L129.4,60.4 Z M106.5,49.7 L106.3,50.9 L104,49 L104.3,48 L107.7,48.2 L106.7,49.6 C106.6,49.6 106.5,49.6 106.5,49.7 Z M109.6,34.6 L109.6,34.6 L109.6,34.6 L111.9,37 L114.5,42.4 L115,44.2 L115.5,48.9 L112.8,47.6 L112.6,47.6 L110,48.1 L108.5,47.4 L108.4,47.4 L104.5,47.2 L109.3,34.6 L109.6,34.6 L109.6,34.6 Z M108,50.1 L107.7,52 L107.1,51.4 L107.4,49.9 L108.6,48.4 L109.4,48.8 L108.2,50.1 C108,49.9 108,50 108,50.1 Z M116.3,53.6 L115.2,54.1 C115.1,54.1 115.1,54.2 115.1,54.2 L115,54.3 L114,55.9 L112.4,56.6 L110.1,55.9 L108.2,52.8 L108.6,50.4 L110.1,48.9 L112.5,48.4 L115.7,49.9 L116.4,53.6 L116.3,53.6 L116.3,53.6 Z M128.3,64.4 L128.6,67.9 L120.5,68.8 L120,66.3 L120.5,65.7 L128.2,64.2 L128.3,64.4 Z M124.3,42.1 L126.4,51.1 L126.7,52.7 L126.7,53.3 L127.8,59.4 L128.1,63.4 L120.3,64.9 L119.6,64.4 L117.2,54.2 L116.3,49.4 L115.7,44.2 L116.3,43.6 L124.3,42.1 L124.3,42.1 Z M122.6,32.4 C122.6,32.4 124.2,41.4 124.2,41.4 L116.2,42.9 L115.4,42.5 L115.3,42.1 L114.1,35.8 L113.8,33.8 L122.6,32.4 Z M114,39.5 L112.8,37 L113.5,36.6 L114,39.5 Z M113.3,35.7 L112.3,36.2 L110.4,34.4 L112.9,33.9 L113.3,35.7 Z M110.4,25.8 L111.5,26.5 L111.5,26.5 L112.9,33.1 L109.8,33.6 L105.6,31.4 L105.4,30.5 L110.4,25.8 Z M103.4,36.7 L103.4,36.7 L103.7,34.9 C103.8,34.8 103.7,34.8 103.7,34.7 L103.1,33.2 L104.7,31.4 L104.8,31.9 C104.8,32 104.9,32.1 105,32.2 L108.8,34.2 C108.7,34.2 108.7,34.3 108.7,34.5 L103.7,47.7 L103.4,48.7 L99.3,46.2 L103.4,36.7 Z M80.6,35 L80.4,34.8 L80.7,33.8 L80.6,35 Z M66.3,27.9 L66.3,27.9 L69.1,22.8 L70.5,22.7 L75.6,24.4 L79.4,28.3 L80.5,32.1 L79.8,34.6 L66.2,28.2 L66.3,27.9 Z M72.1,83.6 L68.4,88.4 L67.9,89.2 L60.2,86 L62.4,81.3 L67.3,82.4 L67.3,82.4 L72.5,83.3 L72.1,83.6 Z M48.1,120.5 L47.7,121 L48,120.1 L48.1,120.1 L48.1,120.5 L48.1,120.5 Z M46.9,118.3 L46.7,118.3 L32.4,119.9 L33.4,116 L34,114.6 L37.2,109.2 L41,112.2 C41.2,112.3 41.4,112.3 41.5,112.1 C41.6,111.9 41.6,111.6 41.4,111.6 L37.6,108.5 L39,106.1 L43.3,108.9 L43.3,108.9 L51.4,114.2 L50.9,115.4 L48.4,118.9 L46.9,118.3 Z M35.1,74.1 L31.4,71.6 C31.3,71.5 31.2,71.5 31.1,71.5 L30.4,71.6 L30.6,70.4 L32,69.6 L35.9,71.2 L36.7,72.3 L34.4,76.9 L33.1,79.1 L31.9,80.3 L30.7,79.5 L30.4,75.2 L30.3,73.5 L30.3,72.4 L31.1,72.3 L34.7,74.8 C34.9,74.9 35.1,74.9 35.2,74.7 C35.3,74.5 35.2,74.3 35.1,74.1 Z M37.3,72 L36.6,71.1 L38.6,70.6 L38.4,71.2 L36.9,73.3 L37.4,72.4 C37.4,72.3 37.3,72.2 37.3,72 Z M41,78.9 L39.7,81.2 L37.2,80.1 L37,80.1 L35.9,80.3 C35.7,80.4 35.5,80.6 35.6,80.8 C35.6,81 35.8,81.2 36.1,81.2 L37.1,81 L39.4,82 L36.6,86.2 L31.4,83.9 L33.5,79.4 L34.8,77.3 L36.4,75.8 L41,78.9 Z M32.5,113.9 L32.6,115.5 L32.6,115.5 L32.4,115.6 L32.5,113.9 Z M32,108.3 L32,108.3 L32.5,113 L32,108.3 Z M31.9,103.3 L31.8,102 L34.1,102.5 C34.3,102.6 34.4,102.5 34.5,102.4 C34.5,102.3 34.6,102.3 34.6,102.2 L36.7,96.2 L42.6,98.6 L42.6,98.6 L42,99.6 L38.5,105.6 L36.7,108.6 L33.2,114.3 L32.7,107.8 L31.9,103.3 Z M36.5,95.2 L31.3,93.1 L34.3,90.6 C34.3,90.5 34.4,90.5 34.4,90.5 L37.1,86.9 L37.2,86.9 L40.2,82 L41.8,79.4 L50.9,84.9 L50.9,84.9 L46.1,92.5 L42.9,97.9 L36.5,95.2 Z M31.1,92.5 L31.3,84.8 L36.2,86.9 L33.9,90.2 L31.1,92.5 Z M31.2,81 L30.4,82.5 L30.5,80.9 L30.5,80.5 L31.2,81 Z M31.9,81.1 L30.5,84 L30.5,84 L30.5,84 C30.5,84.1 30.5,84.1 30.4,84.1 L30.3,88.1 L30.2,84.3 L31.9,81.1 Z M36,95.9 L34,101.6 L31.8,101.2 L31.1,93.9 L36,95.9 Z M32.4,116.4 L32.6,116.4 L32.6,116.4 L32.6,116.4 L32.6,116.4 L31.6,119.9 L31.4,119.9 L31.4,119.3 L32.4,116.4 Z M44.1,108.5 L46.1,105.1 C46.2,104.9 46.2,104.7 46,104.6 C46,104.6 45.9,104.5 45.9,104.5 C45.7,104.4 45.6,104.5 45.5,104.7 L43.5,108.1 L39.5,105.6 L42.6,100.2 L46.5,102.6 L46.5,102.6 L54.1,109 L53.3,110.5 L51.8,113.5 L44.1,108.5 Z M46.9,101.8 L46.9,101.8 L42.9,99.4 L43.4,98.7 L49.1,100.8 L56.5,103.8 L54.5,108 L46.9,101.8 Z M49.7,100.3 L50.5,98 L56,100.9 C56.2,101 56.4,100.9 56.5,100.7 C56.6,100.5 56.5,100.3 56.3,100.2 L50.7,97.2 L52,93.7 L55.4,90 L59.7,94.6 C59.7,94.7 59.8,94.7 59.8,94.7 L61.9,96.1 L62.1,96.7 L59.2,99.2 L59.1,99.3 L56.8,103.3 L49.7,100.3 Z M60.2,94.3 L55.6,89.4 C55.6,89.3 55.6,89.3 55.5,89.3 L55.2,89.3 C55.2,89.3 55.1,89.4 55.1,89.4 L51.4,93.5 C51.4,93.6 51.3,93.6 51.3,93.6 C51.2,93.6 51.2,93.7 51.2,93.7 L49.8,97.5 L48.8,100.1 L43.6,98.2 L46.7,92.9 L51.5,84.9 L52.5,83.4 L59.3,86.5 L59.3,86.5 L59.3,86.5 L67.3,90 L62.7,96.2 L62.6,95.9 C62.5,95.8 62.5,95.8 62.4,95.7 L60.2,94.3 Z M53,82.7 L55.4,78.4 L58.1,79.9 L58.1,79.9 L61.5,81 L59.4,85.6 L53,82.7 Z M75.5,80.3 L81.7,84.5 C81.7,84.5 79.4,87.7 79.4,87.7 L73,83.7 L73.4,83.2 L75.5,80.3 Z M70.1,76.8 L74.8,80 L72.8,82.6 L67.8,81.6 L70.1,76.8 Z M61.7,73.7 L61.7,73.7 L61.7,73.7 L61,75.2 L59.7,76.4 C59.6,76.6 59.6,76.8 59.7,76.9 C59.8,77 60.1,77 60.2,76.9 L61.6,75.6 C61.7,75.6 61.7,75.6 61.7,75.5 L62.4,73.8 L69.4,76.3 L67.1,81.3 L62.2,80.3 L58.4,79.1 L55.7,77.6 L57.3,75.1 L59.9,72.7 L61.7,73.7 L61.7,73.7 Z M61.5,70.4 L59.7,72.1 L59.2,72.5 L60.4,70.7 L61.5,70.4 Z M60.7,69.3 L60.1,69.8 L58.5,68.8 L60.7,69.3 Z M56.6,68.4 L57.4,68.6 L55.9,68.8 L56.6,68.4 Z M43.1,68.3 L43.1,68.3 L49.4,70.3 L49.6,70.3 L53.7,69.8 L57.7,69.3 L59.5,70.5 L56.7,74.9 L54.9,77.7 L52.2,82.7 L51.2,84.2 L42,78.6 L44.6,73.7 C44.7,73.5 44.6,73.3 44.4,73.2 C44.2,73.1 44,73.2 43.9,73.4 L41.4,78.2 L37,75.3 L39.1,71.6 C39.2,71.6 39.2,71.5 39.2,71.5 L39.7,70.3 L40.5,68.8 L41.5,67.3 L41.7,67.4 L43.1,68.3 Z M50.4,50.2 L48.6,55.7 L43.9,62 L43.1,61.2 L47.6,49.3 L50.4,50.2 L50.4,50.2 Z M52.4,46.5 L52.4,46.5 L50.7,49.6 L47.9,48.6 L50.3,41.9 L53.2,43 L53.2,43 L54.5,44.5 L52.4,46.5 Z M60,37.7 L55.2,35.3 L57.5,33.8 L57.5,33.8 L61.2,35.3 L60,37.7 Z M62.8,27.3 L63.1,26.4 L65.4,27.8 L65.4,27.8 L65.1,28.2 L63.2,31.6 L62,30.7 L62.8,27.3 Z M56.1,32.2 L56.1,32.2 L59.5,25.6 L62.1,27.4 L61.3,30.9 C61.3,31 61.3,31.2 61.4,31.3 L62.9,32.4 L61.6,34.8 L57.7,33.3 C57.6,33.2 57.5,33.2 57.4,33.3 L54.6,35.1 L54.2,34.8 L56.1,32.2 Z M51.4,39.4 L53,35.9 L53.6,35.2 L54.2,35.7 L54.1,36 L59.6,38.7 L59,40.2 L58.4,41.5 L57.5,42.8 L57.2,42.8 L55,44 L53.6,42.5 C53.6,42.5 53.5,42.4 53.5,42.4 L50.5,41.2 L51.4,39.4 Z M44.6,37.5 L50.5,39.4 L49.6,41.2 L47.1,48.3 L43,47.2 L44.6,37.5 Z M35.6,48.4 L36.7,46.6 L42,47.8 L40.3,51.3 C40.3,51.3 40.3,51.3 40.3,51.3 C40.2,51.5 40.3,51.7 40.5,51.8 C40.7,51.9 40.9,51.8 41,51.6 L42.8,47.7 L46.8,48.8 L42.2,61 C42.1,61.2 42.2,61.3 42.3,61.5 L43.3,62.4 L41.2,65.9 L34.9,62.6 L37.3,55 C37.3,55 37.3,55 37.3,55 C37.4,54.8 37.3,54.7 37.1,54.6 L33.6,53 L35.6,48.4 Z M31.5,58.5 L31.5,58.5 L30.7,61.6 L30.6,61.4 L31.5,58.5 Z M30.7,64.2 L33.5,53.7 L36.6,55.2 L34.1,62.7 C34,62.9 34.1,63.1 34.3,63.2 L40.8,66.7 L39.7,68.6 L39,70 L36,70.6 L32.1,69 L30.7,67.5 L30.5,65.1 L30.7,64.2 Z M29.9,67.6 L30,67.2 L30,67.6 C30,67.7 30.1,67.8 30.1,67.9 L31.3,69.2 L30.1,69.9 L29.9,67.6 Z M29.7,75.9 L29.8,79 L28.1,77.7 L28,76.9 L29.7,75.9 Z M29.7,79.9 L29.7,79.9 L29.8,80.6 L29.2,83.1 L25.8,81.6 L25.7,81.6 L27.7,78.4 L29.7,79.9 Z M19.3,74.9 L20.3,73.5 L27.2,76.9 L27.2,76.9 L27.2,77.8 L25,81.3 L22.7,80.4 L20.7,79.7 L18.4,78.6 L19.3,74.9 Z M18.2,79.2 L20.4,80.2 L22.2,81.2 C22.3,81.3 22.4,81.3 22.5,81.3 C22.6,81.3 22.7,81.2 22.7,81.1 L22.8,81 L25.1,81.9 L25.2,82 L21.9,88 L15.5,84.8 L18.2,79.2 Z M19.5,92.7 L13.1,89.2 L15.1,85.7 L21.5,88.9 L19.5,92.7 Z M20.1,93 L22.3,88.8 L25.8,82.4 L29,83.9 L27.6,86.5 L25.1,90 L22.5,93.7 L22.2,94.2 L20.1,93 Z M22.7,95.2 L23.2,94.4 L25.8,90.7 L28.3,87.1 L29.7,85.4 L29.9,92.5 C29.9,92.6 29.9,92.6 30,92.7 L30.5,93.5 C30.5,93.5 31.3,101.6 31.3,101.6 L31.4,103.3 L31.5,107.7 L30.5,107.9 C30.4,107.9 30.3,107.9 30.3,108 L28.2,110.3 L17.2,102.5 L22.7,95.2 Z M31.7,113.6 L30.8,113.8 L28,111.4 L28.2,111 L30.5,108.5 L31.2,108.3 L31.7,113.6 Z M12.3,109.7 L15,105.4 L16.6,103.2 L27.5,110.8 L27.3,111.2 C27.2,111.4 27.2,111.7 27.4,111.7 L30.6,114.4 C30.7,114.5 30.8,114.5 30.9,114.5 L31.8,114.2 L31.7,115.9 L30.8,118.5 L26.3,115.7 C26.2,115.6 26,115.7 25.8,115.8 L22,119.8 L16.4,114.3 L16.4,114.3 L11.5,110.8 L12.3,109.7 Z M20,123.4 L24.2,122.8 L24.8,122.7 L24.8,124.2 L20.7,129 L16.5,125 L16.3,124.2 L20,123.4 L20,123.4 Z M24.2,121.9 L22.6,120.4 L26.2,116.6 L30.6,119.3 L30.6,119.8 L30.2,119.8 L28.7,120.3 L24.9,121.7 L24.2,121.9 Z M7.6,117.1 L11,111.8 L11.2,111.5 L16,115 L21.9,120.7 L23.3,122 L20.1,122.5 L14.9,117.3 C14.9,117.3 14.9,117.3 14.9,117.3 C14.8,117.2 14.6,117.1 14.5,117.2 L13.2,118.1 C13,118.3 13,118.5 13.1,118.6 C13.2,118.8 13.4,118.8 13.6,118.7 L14.6,118.1 L19.2,122.7 L15.8,123.4 L14.5,123.7 L13.9,122.4 C13.8,122.4 13.8,122.3 13.8,122.3 L7.6,117.1 Z M11,126.1 L10.8,125.3 L14.3,124.7 L14.3,124.7 L15.5,124.5 L15.7,125.4 C15.7,125.5 15.8,125.5 15.8,125.6 L20.1,129.7 L17.5,131.8 L11,126.1 Z M19.3,134.7 L17.3,132.8 L17.7,132.5 L20.8,130 L20.9,130 L25.3,124.7 C25.4,124.6 25.4,124.5 25.4,124.4 L25.4,122.5 L29,121.2 L30.4,120.6 L30.7,120.6 L30.8,120.9 L30.1,123.7 L29.3,125.8 L28.6,127.6 L28.6,127.7 L25.7,138.8 L19.3,134.7 Z M33.5,144.2 L26.2,139.9 L26.3,139.4 L29.3,127.8 L30,126 L30.8,123.9 L31.6,122.4 L32.6,123.8 L33.7,133.4 L34.2,140.4 L33.5,144.2 Z M42.8,135.7 L42.2,145 L40.6,148.2 L34.9,140.4 L34.4,133.8 L42.9,132.9 L42.8,135.7 Z M44.4,127.6 L42.9,132.1 L34.3,133 L33.2,123.8 L33.2,123.7 L32.3,120.6 L46.7,119 L46.7,119 L47.8,119.6 L47.5,119.8 C47.4,119.9 47.4,119.9 47.4,120 L45.7,124.8 L44.4,127.6 Z M53.8,123 L50.8,129.5 L45.4,127.5 L46.5,125 L48.9,120.8 C48.9,120.8 49,120.7 49,120.6 L49,120.1 L53.8,123 L53.8,123 Z M54.1,122.4 L49.2,119.5 L49,119.3 L51.3,116 L55.8,119 L54.1,122.4 Z M71.4,125.6 L68.2,124.4 L63.4,122.6 L56.6,118.5 L51.7,115.3 L52.2,114.2 L53.7,111.1 L62.6,114.3 L62.8,114.3 L70.4,113.1 L74.4,114.4 L74.7,114.9 L71.4,125.6 Z M72.1,103.4 L72.1,103.4 L77.4,108.4 L74.5,113.6 L70.6,112.3 L70.4,112.3 L62.8,113.5 L54,110.4 L54.7,108.9 L57.1,104 L59.5,99.7 L62.1,97.4 L62.4,98 C62.5,98.1 62.5,98.2 62.6,98.2 L71.1,100.7 L71.1,100.7 L71.1,100.7 L71.1,100.7 L70.8,101.6 C70.8,101.7 70.8,101.9 70.9,102 L72.1,103.4 Z M71.8,100.3 L63.3,97.8 L63,97 L68.3,90 L68.8,89.4 L75.1,93.5 L75.8,94.9 L71.8,100.3 Z M76.5,94.1 L76.4,94.2 L76.2,94 L76.5,94.1 L76.5,94.1 Z M78.6,95.9 L76.8,94.6 L77.2,94.4 L78.8,95.5 L78.6,95.9 Z M79.4,96.2 L79.4,96.2 L79.6,96.3 L79.4,96.2 Z M87,137.7 L82.9,134.6 L85.7,130.6 C85.8,130.6 85.8,130.5 85.8,130.5 L85.8,130.4 L86.1,128.9 C86.1,128.8 86.1,128.6 86,128.5 L83.7,126.6 L88.1,120.2 L90.7,122.7 L95.7,127.2 L92.2,132 L88.6,138.8 L87,137.7 Z M105.1,134.3 C105.2,134.4 105.2,134.4 105.3,134.4 L105.7,134.4 L100.8,140.3 L97,144.1 L95.5,143.6 L89.2,139.2 L92.8,132.3 L96.3,127.5 L101.9,131.4 L105.1,134.3 Z M143.9,133.8 L143.9,133.8 L144.1,136.6 L142.7,136.8 L142.4,134 L143.9,133.8 Z M155.6,92 L155.3,91.1 L156.2,91.2 L156.8,91.7 L155.6,92 Z M158.2,94 L156.3,94.6 L155.8,92.8 L157.4,92.3 L157.4,92.3 L158.5,93.8 L158.2,94 Z M160.6,99.8 L158.9,94.6 L159.1,94.5 L161.4,99.6 L160.6,99.8 Z" id="Shape" opacity="0.7"></path>
                        <path d="M106.3,11.1 L103.9,9.6 L103,8.2 C102.9,8 102.7,8 102.5,8.1 C102.3,8.2 102.3,8.5 102.3,8.7 L103.2,10.2 C103.2,10.2 103.3,10.3 103.3,10.3 L105.5,11.6 L103.2,18.3 C103.2,18.5 103.3,18.7 103.4,18.8 C103.4,18.8 103.4,18.8 103.4,18.8 C103.6,18.9 103.8,18.8 103.9,18.6 L106.2,12.1 L110.2,14.4 C110.4,14.5 110.6,14.4 110.7,14.3 C110.8,14.1 110.8,13.9 110.6,13.7 L106.3,11.1 Z" id="Path" opacity="0.7"></path>
                        <path d="M145.9,85.7 L138.5,83.7 C138.4,83.7 138.3,83.7 138.2,83.8 L138.2,83.8 C138.1,83.8 138.1,83.8 138.1,83.9 C138.1,84 138,84 138,84.1 L137,87.4 C136.9,87.6 137.1,87.8 137.3,87.9 C137.5,87.9 137.7,87.8 137.8,87.6 L138.7,84.7 L145.5,86.5 L145.4,89.4 C145.3,89.6 145.5,89.8 145.7,89.8 C145.9,89.8 146.1,89.6 146.1,89.4 L146.2,86.1 C146.2,85.9 146,85.8 145.9,85.7 Z" id="Path" opacity="0.7"></path>
                        <path d="M111.7,69.1 C111.6,68.9 111.4,68.8 111.2,68.9 C111,69 110.9,69.2 111,69.4 L112.4,72.1 L109.4,73.6 L107.6,73 L104.2,66.6 L106.5,66 C106.6,66 106.7,65.9 106.7,65.8 C106.7,65.7 106.8,65.6 106.8,65.5 L105.7,61.6 L105.7,61.5 L105.6,61.4 C105.6,61.4 105.5,61.3 105.5,61.3 L105.2,61.3 L98.6,63.9 L98.5,63.9 L93.8,66.4 L93.8,66.4 L93.8,66.4 C93.6,66.5 93.6,66.7 93.6,67 C93.7,67.2 93.9,67.3 94.1,67.2 L98.4,64.9 L100.1,67.3 L101.2,70.4 L96.1,72.2 C95.9,72.2 95.8,72.5 95.9,72.7 C96,72.9 96.2,73 96.4,72.9 L101.8,70.9 C102,70.8 102.1,70.6 102,70.4 L100.9,67.3 L103.2,66.8 L106.7,73.4 C106.8,73.5 106.8,73.6 106.9,73.6 L109,74.4 C109.1,74.5 109.2,74.5 109.3,74.4 L112.8,72.6 C113,72.4 113.1,72.2 113,72.1 L111.7,69.1 Z M100.9,66.7 L99.4,64.6 L105.2,62.3 L106.1,65.4 L103.8,66 L100.9,66.7 Z" id="Shape" opacity="0.7"></path>
                        <path d="M160.1,84.7 L153.7,81.7 C153.6,81.6 153.4,81.6 153.3,81.7 L153.3,81.7 C153.2,81.7 153.2,81.7 153.2,81.9 C153.2,81.9 153.2,81.9 153.2,81.9 C153.1,82.1 153.2,82.3 153.4,82.4 L159.8,85.4 C160,85.5 160.2,85.4 160.3,85.2 C160.3,85.2 160.3,85.2 160.3,85.2 C160.4,85 160.3,84.8 160.1,84.7 Z" id="Path" opacity="0.7"></path>
                        <path d="M120.3,18.2 L113,14.7 C112.9,14.6 112.7,14.6 112.6,14.7 L112.6,14.7 C112.5,14.7 112.5,14.8 112.5,14.9 C112.5,14.9 112.5,14.9 112.5,14.9 C112.4,15.1 112.5,15.3 112.7,15.4 L120,18.9 C120.2,19 120.4,18.9 120.5,18.7 C120.5,18.7 120.5,18.7 120.5,18.7 C120.6,18.5 120.5,18.3 120.3,18.2 Z" id="Path" opacity="0.7"></path>
                        <path d="M90.4,64.8 C90.3,64.8 90.2,64.8 90.2,64.9 L90.2,64.9 L90.2,64.9 C90.1,64.9 90,65.1 90,65.2 L89.2,73 L88,77.5 C87.9,77.7 88.1,77.9 88.3,78 C88.5,78.1 88.7,77.9 88.8,77.7 L90,73.2 L90,73.1 L90.9,65.2 C90.7,64.9 90.6,64.8 90.4,64.8 Z" id="Path" opacity="0.7"></path>
                        <path d="M10.2,74.2 C10.1,74.4 10.1,74.6 10.3,74.7 L14.8,77.3 C15,77.4 15.2,77.3 15.3,77.2 C15.4,77 15.4,76.8 15.2,76.6 L10.7,74 C10.6,73.9 10.4,73.9 10.3,74 L10.3,74 C10.2,74 10.2,74 10.2,74.2 Z" id="Path" opacity="0.7"></path>
                        <path d="M147,145.6 C147,145.6 147,145.6 147,145.6 C147.2,145.6 147.4,145.4 147.3,145.2 L146.7,136.9 C146.7,136.7 146.5,136.5 146.3,136.5 C146.2,136.5 146.2,136.6 146.1,136.6 L146.1,136.6 C146,136.7 146,136.8 145.9,136.9 L146.5,145.2 C146.6,145.4 146.8,145.6 147,145.6 Z" id="Path" opacity="0.7"></path>
                        <path d="M156.3,17 L150.8,17.8 L150.7,15.7 L153.4,16 L153.5,16 L162.9,14.2 L162.9,14.2 L163.2,15.1 L156.3,17 Z M167.5,35.2 L168.9,34.8 L168.9,34.8 L168.9,34.8 L168.9,34.8 L170,37.8 L168.9,38 L167.5,35.2 Z M175,51.7 L172,44.4 L172.7,44 L172.7,44 L175.3,44.4 L177.9,50.6 L175,51.7 Z" id="Shape" opacity="0.7"></path>
                        <path d="M19.2,65.7 L19.2,65.7 L20.6,62.4 L21.8,58.8 C21.8,58.6 21.7,58.4 21.6,58.3 C21.4,58.3 21.2,58.4 21.1,58.6 L20,61.8 L15.3,58.9 C15.2,58.8 15,58.8 14.9,58.9 L14.9,58.9 L14.8,59.1 C14.7,59.3 14.7,59.5 14.9,59.6 L19.8,62.5 L18.8,65.1 L12.6,61.5 C12.4,61.4 12.2,61.5 12.1,61.7 C12,61.9 12.1,62.1 12.3,62.2 L18.1,65.5 L18,65.5 C17.9,65.5 17.7,65.6 17.7,65.7 L17,67.2 L16.1,69.7 L15.1,70.2 L9.1,66.6 C9.1,66.6 9,66.5 9,66.5 C8.8,66.4 8.7,66.5 8.6,66.7 C8.5,66.9 8.5,67.1 8.7,67.2 L14.8,71 C14.9,71.1 15,71.1 15.1,71 L16.2,70.5 L18.2,71 C18.4,71 18.6,70.9 18.7,70.7 C18.7,70.5 18.6,70.3 18.5,70.2 L16.9,69.7 L17.6,67.6 L18.5,67.6 L19,68.2 C19.1,68.4 19.3,68.4 19.5,68.2 C19.5,68.2 19.5,68.2 19.5,68.2 C19.6,68 19.6,67.8 19.5,67.7 L18.9,67.1 L19.1,65.9 L19.2,65.7 Z M18.3,66.8 L17.9,66.8 L18.2,66.1 L18.3,66.1 L18.3,66.8 Z" id="Shape" opacity="0.7"></path>
                        <polygon id="Path" opacity="0.7" points="15 101 14.9 101.1 15.9 101.7 16 101.6"></polygon>
                        <path d="M32.9,157.2 L31.7,158.9 L31.2,159.6 C31.1,159.8 31.1,160 31.3,160.1 C31.5,160.2 31.7,160.2 31.8,160 L32.3,159.3 L32.5,158.9 L32.4,159.7 L31.8,160.4 C31.7,160.6 31.7,160.9 31.9,160.9 C32.1,161 32.3,161 32.4,160.8 L33,160 L33.1,159.9 L33.1,159.8 L33.6,157.2 L33.6,157.1 L33.9,151.4 C33.7,151.3 33.5,151.2 33.2,151 L32.9,157.2 Z" id="Path" opacity="0.7"></path>
                        <path d="M0.9,101.3 C0.9,101.2 0.9,101.2 0.9,101.3 C0.9,101.2 0.9,101.2 0.9,101.3 Z" id="Path" opacity="0.7"></path>
                        <path d="M34.1,20.7 C33.9,20.8 33.7,21 33.8,21.2 L33.8,21.5 C34,21.3 34.2,21.2 34.5,21 C34.4,20.8 34.3,20.7 34.1,20.7 Z" id="Path" opacity="0.7"></path>
                        <path d="M35.6,19.8 L34.6,17.6 L36.2,11.5 L39.4,12.3 C39.6,12.3 39.8,12.2 39.9,12 L41,8.8 C41,8.6 40.9,8.4 40.8,8.3 C40.6,8.3 40.4,8.4 40.3,8.6 L39.3,11.5 L36.1,10.6 C36,10.6 35.9,10.6 35.8,10.7 L35.8,10.7 C35.7,10.8 35.6,10.8 35.6,11 L33.8,17.6 C33.7,17.7 33.7,17.8 33.8,17.9 L34.9,20.3 C35,20.4 35,20.5 35.1,20.5 L35.2,20.5 C35.4,20.3 35.7,20.2 35.9,20 L35.6,19.8 Z" id="Path" opacity="0.7"></path>
                        <path d="M76.3,4.1 C76.1,4.1 75.9,4.2 75.8,4.4 C75.7,4.6 75.8,4.8 76,4.9 L77.4,5.2 C78.1,5.1 78.8,5.1 79.4,5 L76.3,4.1 Z" id="Path" opacity="0.7"></path>
                        <path d="M30.5,23.1 L31.5,21.9 C31.6,21.7 31.6,21.4 31.4,21.4 C31.4,21.4 31.3,21.3 31.3,21.3 C31.2,21.2 31.1,21.2 31,21.4 L29.9,22.7 C29.9,22.8 29.8,22.8 29.8,22.9 L29.1,25.5 C29.4,25.2 29.8,24.9 30.1,24.6 L30.5,23.1 Z" id="Path" opacity="0.7"></path>
                        <path d="M4.8,96 C5,96.1 5.2,96.1 5.3,95.9 C5.4,95.7 5.4,95.4 5.2,95.4 L4.5,94.9 L4.4,94.9 L3.55271368e-15,92 C3.55271368e-15,92.3 3.55271368e-15,92.6 3.55271368e-15,92.9 L4,95.5 L4.8,96 Z" id="Path" opacity="0.7"></path>
                        <path d="M164,102.5 C164.2,102.4 164.3,102.2 164.3,102 C164.2,101.8 164,101.7 163.8,101.7 L161.4,102.1 C161.3,102.4 161.3,102.6 161.3,102.9 L164,102.5 Z" id="Path" opacity="0.7"></path>
                        <path d="M165.1,74.1 L166.2,80.2 L167.1,84.2 C167.2,84.4 167.4,84.5 167.6,84.5 C167.8,84.4 167.9,84.2 167.9,84 L167,80 L165.9,73.9 L170.6,73.2 L170.8,76.3 L171.3,84.2 C171.3,84.4 171.5,84.6 171.7,84.6 C171.9,84.6 172,84.4 172,84.2 L171.5,76.6 L176.5,76.3 L176.3,84.3 C176.2,84.5 176.4,84.7 176.6,84.7 C176.8,84.7 177,84.5 177,84.3 L177.2,75.9 L176.8,71.6 L176.2,67.9 C176.1,67.7 175.9,67.6 175.7,67.6 C175.5,67.7 175.4,67.9 175.4,68.1 L176,71.5 L171.1,72.3 L170.8,67.8 C170.8,67.7 170.7,67.6 170.7,67.5 C170.6,67.4 170.5,67.4 170.4,67.4 L165,67.9 L164.8,59.2 C164.8,59 164.6,58.8 164.4,58.8 C164.3,58.8 164.2,58.9 164.2,58.9 L164.2,58.9 C164.1,58.9 164,59.1 164.1,59.3 L164.3,68.5 L164.9,73.4 L162.9,73.7 C162.9,73.9 162.9,74.2 163,74.4 L165.1,74.1 Z M176.2,72.3 L176.2,72.3 L176.5,75.7 L171.4,76 L171.2,73.2 L176.2,72.3 Z M170.1,68.3 L170.4,72.6 L165.6,73.3 L165,68.8 L170.1,68.3 Z" id="Shape" opacity="0.7"></path>
                        <path d="M163.4,100 C163.6,99.9 163.7,99.7 163.7,99.5 C163.6,99.3 163.4,99.2 163.2,99.2 L161.9,99.4 C161.9,99.6 161.8,99.9 161.8,100.1 L163.4,100 Z" id="Path" opacity="0.7"></path>
                        <path d="M158.8,51.4 L162,50.8 L162.8,50.7 L162.5,51.5 C162.5,51.5 162.4,51.6 162.4,51.7 L162.3,58.4 C162.3,58.4 162.3,58.4 162.3,58.4 C162.3,58.6 162.5,58.8 162.7,58.8 C162.9,58.8 163.1,58.6 163.1,58.4 L163.2,51.8 L163.7,50.6 L166,49.6 C166.1,49.5 166.1,49.5 166.2,49.4 L166.9,48.2 C167,48.1 167,48 167,47.9 L165.7,43.4 C165.7,43.4 165.7,43.4 165.7,43.4 C165.6,43.2 165.4,43.1 165.3,43.2 C165.1,43.2 165,43.5 165.1,43.7 L166.3,48 L165.7,48.9 L163.4,49.9 L162,50 L161.9,50 L159.1,50.5 L158.8,44.9 C158.8,44.7 158.6,44.5 158.4,44.5 C158.2,44.5 158.1,44.7 158.1,44.9 L158.4,49.9 C158.5,50.4 158.6,50.9 158.8,51.4 L158.8,51.4 Z" id="Path" opacity="0.7"></path>
                        <path d="M175.9,125.1 L166.8,125.2 C166.7,125.2 166.6,125.3 166.6,125.3 C166.5,125.4 166.4,125.5 166.4,125.6 C166.4,125.8 166.6,126 166.8,126 L175.9,125.9 C175.9,125.9 175.9,125.9 176,125.9 C176.2,125.9 176.4,125.7 176.3,125.5 C176.3,125.2 176.1,125.1 175.9,125.1 Z" id="Path" opacity="0.7"></path>
                        <path d="M163.3,37.8 C163.5,37.8 163.6,37.5 163.5,37.3 C163.4,37.1 163.2,37 163,37.1 L154.8,40.1 C154.9,40.3 155,40.5 155.1,40.8 L163.3,37.8 Z" id="Path" opacity="0.7"></path>
                        <path d="M164.5,105.1 C164.7,105 164.8,104.8 164.8,104.6 C164.7,104.4 164.5,104.3 164.3,104.3 L160.8,104.9 C160.7,105.2 160.7,105.4 160.6,105.7 L164.5,105.1 Z" id="Path" opacity="0.7"></path>
                        <path d="M142.9,145.4 C142.9,145.7 143.1,145.8 143.3,145.8 C143.5,145.7 143.6,145.6 143.6,145.3 L142.9,138.5 C142.7,138.7 142.5,139 142.3,139.2 L142.9,145.4 Z" id="Path" opacity="0.7"></path>
                        <path d="M94.2,162 C94.1,162.2 94.1,162.4 94.3,162.5 C94.3,162.5 94.4,162.6 94.4,162.6 C94.6,162.7 94.7,162.6 94.8,162.4 L96.4,159.8 C96.1,159.8 95.7,159.9 95.4,159.9 L94.2,162 Z" id="Path" opacity="0.7"></path>
                        <polygon id="Path" opacity="0.7" points="172 93.7 174.2 93.2 174.2 93.2 177.4 107.3 177.1 107.2 177 107.2 174.4 107.1"></polygon>
                        <path d="M1.6,111.7 L1.4,111.9 L3,112.5 C3,112.4 2.9,112.3 2.9,112.2 L1.6,111.7 Z" id="Path" opacity="0.7"></path>
                        <path d="M4.9,112.9 L4.9,112.9 L3,112.2 C3,112.3 3.1,112.4 3.1,112.5 L4.8,113.2 L4.9,112.9 Z" id="Path" opacity="0.7"></path>
                        <path d="M166.3,23.3 C166.4,23.6 166.6,23.7 166.8,23.6 C167,23.6 167.1,23.3 167,23.1 L165.8,19.4 C165.7,19.1 165.5,19 165.3,19.1 L165.2,19.1 L165.2,19.1 L165.2,19.1 C165.1,19.2 165,19.4 165.1,19.6 L166.3,23.3 Z" id="Path" opacity="0.7"></path>
                        <path d="M1.3,107.5 L1.3,107.5 L2,108.3 C2,108.3 2,108.2 2,108.2 L1.3,107.5 Z" id="Path" opacity="0.7"></path>
                        <path d="M1.5,105.1 L0.7,106.3 C0.6,106.4 0.6,106.6 0.7,106.8 L0.8,106.9 L1.4,107.5 L1.8,106.8 C1.7,106.2 1.6,105.7 1.5,105.1 Z" id="Path" opacity="0.7"></path>
                        <path d="M2.4,108.5 L2,108.1 C2,108.1 2,108.2 2,108.2 L2.4,108.5 L2.4,108.5 Z" id="Path" opacity="0.7"></path>
                        <path d="M63.6,153.4 C63.5,153.2 63.3,153.1 63.1,153.1 C62.9,153.2 62.8,153.4 62.8,153.6 L63.3,155.7 L62.4,155.2 C62.2,155.1 62,155.1 61.9,155.3 C61.8,155.5 61.8,155.7 62,155.8 L63.5,156.8 L66.5,160.7 C66.8,160.7 67.2,160.8 67.6,160.8 L64.2,156.4 L63.6,153.4 Z" id="Path" opacity="0.7"></path>
                        <path d="M60.9,155.8 C61.1,155.9 61.3,155.9 61.4,155.7 C61.4,155.7 61.4,155.7 61.4,155.6 C61.5,155.4 61.5,155.2 61.3,155.1 L56.6,151.5 C56.5,151.4 56.4,151.4 56.3,151.4 C56.2,151.5 56.1,151.5 56.1,151.6 L51.3,158.1 C51.6,158.2 51.8,158.2 52.1,158.3 L56.5,152.4 L60.9,155.8 Z" id="Path" opacity="0.7"></path>
                        <path d="M74.2,158.1 L74.4,158.1 L76.8,157.6 C76.9,157.6 76.9,157.6 77,157.5 L80.5,154.3 C80.6,154.2 80.6,154.2 80.6,154.1 L81.8,149.8 L81.8,149.6 L81.1,147.4 C81,147.3 81,147.2 81,147.2 L79.6,145.7 L82.7,140.2 C82.8,140 82.7,139.8 82.5,139.7 C82.3,139.6 82.1,139.7 82,139.9 L78.9,145.5 L77.4,145 L77.2,145 L75,145.5 C74.9,145.6 74.9,145.6 74.9,145.6 L72.8,147 C72.7,147 72.7,147.1 72.7,147.1 L71.3,148.8 L67.3,146.5 C67.1,146.4 66.9,146.5 66.8,146.7 C66.7,146.9 66.8,147.1 67,147.2 L71,149.5 L69.8,152.6 L69.8,152.8 L70.4,155.3 C70.4,155.4 70.4,155.5 70.5,155.5 L72.1,157.5 L70.1,160.9 C70.4,160.9 70.6,160.9 70.9,160.9 L72.8,157.8 L74.2,158.1 Z M71.3,154.9 L70.8,152.5 L72,149.2 L73.5,147.3 L75.5,146 L75.5,146 L77.4,145.6 L78.9,146.1 L80.4,147.6 L81,149.6 L79.9,153.6 L76.6,156.7 L74.3,157.1 L72.8,156.7 L71.3,154.9 Z" id="Shape" opacity="0.7"></path>
                        <path d="M2.2,108.9 L0.8,110.8 L0.7,110.9 C0.6,110.9 0.6,111 0.6,111 L0.6,111.2 C0.6,111.2 0.6,111.3 0.7,111.3 C0.8,111.3 0.8,111.4 0.8,111.4 L0.9,111.4 L1.7,111.7 L2.6,110.5 C2.4,110 2.3,109.4 2.2,108.9 Z" id="Path" opacity="0.7"></path>
                        <path d="M52.3,12 C52.3,12 52.3,12 52.3,12 C52.5,12.1 52.7,12 52.8,11.8 L53.2,10.8 C52.9,10.9 52.5,11.1 52.2,11.2 L52.1,11.5 C52.1,11.7 52.2,11.9 52.3,12 Z" id="Path" opacity="0.7"></path>
                        <polygon id="Path" opacity="0.7" points="68 1.7 66.9 1.6 67.2 3.55271368e-15 68 0.2"></polygon>
                        <polygon id="Path" opacity="0.7" points="12.1 99.2 8.4 96.9 8.2 97.1 12.3 99.5 14.2 100.7 14.3 100.5 14.3 100.5"></polygon>
                        <path d="M60.7,9.9 L59.2,14.3 C59.2,14.5 59.3,14.7 59.4,14.8 C59.6,14.8 59.8,14.7 59.9,14.5 L61.4,9.8 C61.4,9.6 61.3,9.4 61.2,9.3 L59.6,8.7 C59.2,8.8 58.8,8.9 58.4,9 L60.7,9.9 Z" id="Path" opacity="0.7"></path>
                        <polygon id="Path" opacity="0.7" points="121.2 77.3 121.2 77.2 120.9 77.4"></polygon>
                        <path d="M33.6,40.3 C33.7,40.3 33.7,40.3 33.7,40.4 C33.7,40.4 33.8,40.5 33.8,40.5 L35,41 C35.1,41 35.1,41.1 35.2,41.1 L35.8,41.9 L35.8,41.5 L34.9,40.3 L31.6,39 C31.6,39 31.5,39 31.5,39 C31.4,39 31.4,38.9 31.3,38.8 L31.2,38.8 L31.1,38.8 L30,38.2 L29.9,38.2 C29.9,38.2 29.8,38.2 29.8,38.1 L29.2,37.4 L29.1,37.4 L29,37.3 L29.6,38.2 L30.1,38.8 L31.1,39.4 L31.4,39.5 L33.6,40.3 L33.6,40.3 Z" id="Path" opacity="0.7"></path>
                        <path d="M28,32 L30.1,24.5 C29.8,24.8 29.4,25.1 29.1,25.4 L27.3,31.8 L27.3,31.9 L27.2,35.3 C27.2,35.4 27.2,35.4 27.3,35.5 L29.2,37.3 L27.8,35.2 L28,32 Z" id="Path" opacity="0.7"></path>
                        <path d="M56.4,17.1 L57.4,17.4 C57.4,17.4 57.4,17.4 57.4,17.4 C57.5,17.5 57.6,17.4 57.7,17.4 C57.8,17.3 57.9,17.2 57.9,17.1 L58.7,13.9 C58.8,13.7 58.6,13.5 58.4,13.4 C58.3,13.4 58.2,13.4 58.1,13.5 C58,13.5 58,13.6 57.9,13.7 L57.2,16.5 L56.6,16.3 C56.4,16.3 56.2,16.4 56.1,16.6 C56.1,16.8 56.2,17 56.4,17.1 Z" id="Path" opacity="0.7"></path>
                        <path d="M37,22.1 C37,22.3 37.1,22.5 37.2,22.6 C37.2,22.6 37.2,22.6 37.2,22.6 C37.4,22.7 37.6,22.6 37.7,22.4 L37.9,22 L42,23.4 L42.2,23.4 L44.6,22.9 C44.8,22.8 44.9,22.6 44.9,22.4 C44.8,22.2 44.6,22.1 44.4,22.1 L42.2,22.5 L37.8,21 L35.9,19.9 C35.7,20.1 35.4,20.2 35.2,20.4 L37.2,21.5 L37,22.1 Z" id="Path" opacity="0.7"></path>
                        <path d="M31.8,38.8 L33.7,33.1 C33.7,32.9 33.6,32.7 33.5,32.6 C33.4,32.5 33.3,32.5 33.2,32.6 C33.1,32.6 33.1,32.7 33.1,32.9 L31.2,38.6 C31.2,38.7 31.2,38.8 31.3,38.9 L31.6,39 C31.6,39 31.8,39 31.8,38.8 Z" id="Path" opacity="0.7"></path>
                        <path d="M144.7,137.5 C144.9,137.4 145,137.3 145,137 L144.9,136.2 C144.5,136.7 144.2,137.1 143.8,137.6 L144.7,137.5 Z" id="Path" opacity="0.7"></path>
                        <path d="M166,150.9 L159.2,150.4 C159.1,150.4 159,150.5 159,150.5 C158.9,150.6 158.8,150.7 158.8,150.8 C158.8,150.8 158.8,150.8 158.8,150.8 C158.8,151 159,151.1 159.1,151.1 L165.9,151.6 C166.1,151.6 166.3,151.4 166.3,151.2 C166.3,151.2 166.3,151.2 166.3,151.2 C166.4,151 166.2,150.9 166,150.9 Z" id="Path" opacity="0.7"></path>
                        <path d="M31.5,26.7 L31.8,23 C31.2,23.5 30.6,24 30,24.5 L29.5,32.2 L28.6,35.7 C28.5,36 28.7,36.2 29,36.3 C29.3,36.3 29.6,36.1 29.7,35.8 L30.6,32.2 L30.6,32.1 L30.8,29.7 C30.9,29.9 31,30.1 31.3,30.1 C31.6,30.1 31.9,29.9 31.9,29.6 L32.5,22.4 C32.3,22.6 32.1,22.7 31.9,22.9 L31.5,26.7 Z" id="Path"></path>
                        <path d="M34.9,20.9 L36.5,21.6 L41.3,23.8 L42.7,25.1 L43.3,25.6 C43.3,25.6 43.4,25.7 43.4,25.7 C43.4,25.8 43.5,25.8 43.6,25.8 L43.8,25.8 C43.9,25.8 44,25.8 44,25.7 L44.1,25.5 C44.1,25.4 44.2,25.4 44.2,25.3 L45.5,20.1 L45.5,20.1 L46.2,15.9 C46.2,15.9 46.2,15.9 46.2,15.9 C46.2,15.6 46,15.3 45.7,15.3 C45.4,15.3 45.2,15.4 45.1,15.7 C45.1,15.4 44.8,15.3 44.6,15.2 C44.3,15.2 44,15.4 44,15.7 L43.5,19.6 L43.3,21.3 L43.2,22.2 L41.6,22.8 L36.9,20.7 L35.6,20.1 C35.3,20.3 35,20.6 34.6,20.8 L34.9,20.9 Z" id="Path"></path>
                        <path d="M45.6,14.4 C45.9,14.5 46.2,14.2 46.2,13.9 L46.2,13.9 C45.9,14.1 45.6,14.2 45.3,14.4 C45.4,14.4 45.5,14.4 45.6,14.4 Z" id="Path"></path>
                        <polygon id="Path" points="22.6 153.1 22.3 152.9 22.2 152.8"></polygon>
                        <path d="M5.4,94.9 L12.8,83.2 L21.1,66.6 L21.1,66.5 L24.2,57.2 C24.3,56.9 24.2,56.6 23.9,56.5 C23.7,56.4 23.5,56.5 23.3,56.6 L29.4,38.6 C29.5,38.3 29.4,38 29.1,37.9 C28.8,37.8 28.5,38 28.4,38.3 L18.6,66.8 L17.6,69.3 L14.4,75.7 L11.2,81.7 L3,76.9 L3.55271368e-15,74.7 C3.55271368e-15,75.1 3.55271368e-15,75.5 3.55271368e-15,75.9 L2.6,77.8 L2.7,77.8 L10.9,82.7 L3.9,93.9 L0.8,99 C0.9,100 1,100.9 1.1,101.8 L5.4,94.9 Z" id="Path"></path>
                        <path d="M158.8,55.5 L158.5,56.7 L158.5,56.9 L158.4,57.4 L158.2,58.7 L158,60.1 L158,60.2 L157.8,64.2 L157.8,64.2 L159,73.6 L159.5,76 L159.9,78 L160.2,81.6 L159.5,83.5 L159.5,83.7 L159.4,84.2 L154.1,86.5 L150.2,87.4 L145.8,87.5 L138.9,86.5 L137.8,85.7 C137.8,85.6 137.7,85.6 137.7,85.6 L137.6,85.6 L129.7,82.6 L129.6,82.6 L122.2,81.3 L103.9,78.5 L99.3,77.8 L97.5,76.5 L96.5,75 L97.1,71.5 L97.1,71.4 C97.1,71.3 97,71.3 97,71.2 L94.6,65.5 L94.5,65.4 L94.4,65.3 L93.3,64.1 C93.2,64 93.1,63.9 93,63.9 L90.3,63.4 L86.7,62.6 L80.2,60.2 L80.1,60.2 L76.5,59 L77.5,53.3 L82.3,47.4 L87.7,40.5 L89.7,39.2 C89.7,39.1 89.8,39.1 89.8,39.1 L89.9,39.1 L95.7,33.2 L107.1,20.5 L107.2,20.5 L107.3,20.3 C107.3,20.3 107.3,20.4 107.3,20.4 C107.3,20.7 107.5,20.9 107.8,20.9 L111.4,21.4 L111.4,21.4 L111.4,21.4 L112.4,21.3 L118.8,22.3 L120.6,22.7 L121.3,23 L121.5,23 L135.8,24.2 L135.9,24.2 L146.4,24.5 C146.2,24.2 146,23.9 145.8,23.7 L135.8,23.4 L121.5,22.2 L121,22 L120.7,21.5 C120.6,21.3 120.4,21.2 120.1,21.2 L118.7,21.5 L112.3,20.5 L112.2,20.5 L111.3,20.4 L107.7,19.9 L107.4,19.9 L108,19.1 L112.2,13.9 L112.3,13.8 L115.4,8.4 C115.1,8.3 114.7,8.2 114.4,8.1 L111.5,13.3 L107.3,18.4 L105.6,19.9 C105.6,20 105.5,20 105.5,20 L105.3,20.2 L105.3,20.1 C105.3,19.8 105.1,19.5 104.8,19.5 L99,18.7 L96.8,18.3 L94.2,17.9 L91,16.9 C90.9,16.8 90.7,16.8 90.6,16.9 L90.4,17 L91.5,8 L97.2,8.6 L97.3,8.6 L101.2,8.2 L101.2,8.2 C101.2,8.2 101.2,8.1 101.2,8.1 C101.2,8.1 101.2,8.1 101.2,8.2 L102.5,8.2 L103,8.2 L109.7,7 C108.3,6.7 106.9,6.4 105.5,6.2 L102.6,7 L102.2,7 L101.1,7.2 L97.2,7.5 L91,6.9 L90.9,6.9 C90.7,6.9 90.6,7 90.5,7.1 C90.5,7.2 90.5,7.2 90.5,7.3 L89.3,17.2 L88.2,16.7 C88,16.6 87.7,16.7 87.5,16.9 L87.4,17.1 L83.5,16.6 L82,16.3 L81.9,16.3 L71.1,14.3 L71,14.3 L65.5,13.9 L64.3,13.7 L59.7,12.7 L58.5,12.3 L55.5,11.2 L53.9,10.5 C52.9,10.9 51.8,11.3 50.8,11.7 L54.6,12.3 L57.6,13.3 L57.7,13.3 L59,13.7 L59.1,13.7 L63.8,14.7 L65,14.9 L70.2,16.3 L70.2,16.3 L75.6,17.2 L78.3,17.7 L78.5,17.7 L81.3,17.3 L82.7,17.6 L82.8,17.6 L87.1,18.2 L89.1,18.5 L90.9,19.4 C90.9,19.5 91,19.5 91.1,19.5 L91.2,19.5 L93.5,19.2 L98.3,19.9 L104.1,20.7 L104.4,20.7 L93.6,32.5 L87.7,38.4 L87.6,38.4 L86.2,40.1 L80.8,47.1 L76,53.1 L71.4,58.7 L68.4,62.9 C68.4,63 68.3,63 68.3,63.1 L67.2,66.6 C67.1,66.8 67.2,67.1 67.4,67.2 L69.6,69.1 C69.6,69.2 69.7,69.2 69.7,69.2 L69.8,69.2 L74,71.6 L74.1,71.6 L79.5,73.8 L88.1,77.3 L90.2,78 L90.7,79.9 L88.9,87.6 L85.4,99.2 L85.1,99.9 L85.1,100 L78.6,123.9 L73.7,133 L69.7,140.4 L66.8,145.7 L64.1,150.3 L63,152.1 L61,154.1 L60.9,154.1 L56.9,159.1 L56.8,159.2 L56.8,159.3 C57.5,159.4 58.1,159.5 58.8,159.6 L59.2,159 L63,154.5 L63.1,154.5 L63.2,154.4 L64.2,152.5 L65.3,150.7 L68,146.1 L71,140.8 L74.8,134 L75,134.1 L76.6,135.1 L79.3,137.2 L82.4,139.7 L92.6,147.1 C92.7,147.1 92.8,147.2 92.8,147.2 L93.9,147.5 L100.8,151 L102,151.6 L106.2,154.2 L106.7,154.6 C106.8,154.7 106.8,154.7 106.8,154.7 L106.9,154.7 L110.8,155.9 L113.7,157.2 C114.6,157 115.4,156.7 116.3,156.4 L111.5,154.3 L108.1,152.3 L107.6,151.9 L107.5,151.9 L102.8,150.1 L101.6,149.5 L94.7,145.9 L85.6,139 L85.5,139 L80.2,135.8 L77.5,133.7 L77.4,133.7 L76.1,132.9 C76.2,132.8 76.2,132.8 76.3,132.7 L79,129.2 L79.1,129.1 L81.5,124 L81.5,123.8 L87.8,100.3 L88,99.6 L92.2,83.2 L94.9,80.7 L96.7,79.8 L99.1,79.4 L122.5,83 L129.3,84.1 L137.5,87.4 L137.7,87.4 L138.7,87.3 L145.7,88.3 L145.8,88.3 L150.3,88.2 L150.4,88.2 L154.4,87.3 L154.5,87.3 L159.5,85.1 L160,87.1 L160.6,89.4 L162.3,95.6 C162.4,94.6 162.5,93.7 162.6,92.7 L161.7,89.3 L161.1,87.1 L161.3,86.4 C161.3,86.2 161.3,86.1 161.2,85.9 L160.6,84.8 L163,84.2 C163,83.8 163,83.4 163,83 L160.2,83.6 L160.2,83.5 L160.9,81.5 C160.9,81.4 161,81.3 161,81.2 L160.7,77.4 L160.7,77.3 L160.3,75.2 L160.2,73.2 L159,63.9 L159.1,60 L159.3,58.7 L159.5,57.4 L159.6,56.9 L159.9,55.7 L160,55.5 C159.8,54.9 159.7,54.3 159.5,53.7 L158.8,55.5 Z M77.6,128.8 L76.4,130.4 L79.6,124.5 L77.6,128.8 Z M79.9,123.8 L79.8,124 L81.7,117.1 L79.9,123.8 Z M76,55.2 L75.4,58.7 L75.4,58.7 L75.4,58.7 L75.4,58.7 L73.6,58.1 L76,55.2 Z M88.5,76 L80,72.5 L74.6,70.3 L70.6,67.9 L68.8,66.3 L69.9,63.2 L72.7,59.3 L73.2,59.1 L73.2,59.1 L75.7,59.9 L75.8,59.9 L79.6,61.2 L79.7,61.2 L80,61.3 L86.8,63.8 L86.9,63.8 L90.5,64.6 L93.1,65.1 L94,66.1 L96.3,71.6 L95.8,74.4 L94.8,73.9 L94.5,73.9 L92.6,74.2 C92.5,74.2 92.4,74.3 92.3,74.4 L90.5,76.7 L88.5,76 Z M91.3,83 C91.2,83.1 91.2,83.2 91.1,83.2 L90.6,85 L91.6,80.6 L92.3,81.1 C92.4,81.2 92.5,81.2 92.6,81.2 L93.1,81.2 L91.3,83 Z M96,79.3 L94.5,80.1 L92.9,80.1 L91.8,79.3 L91.3,77.5 L93.1,75.3 L94.2,75.1 L95.6,75.6 L96.6,77.1 L96,79.3 Z M97.2,79.1 L97.5,78.1 L98.7,78.9 L97.2,79.1 Z" id="Shape"></path>
                        <path d="M163.2,98.2 L163.8,100.7 L164.2,103.2 L164.4,104.6 L164.9,106.9 L165.1,109 L166.1,118.6 L166.2,119.6 L166.5,124.1 L166.6,133.8 L166.3,144.1 L165.8,149.7 C165.8,149.7 165.8,149.7 165.8,149.8 C165.8,150.1 166,150.4 166.3,150.4 C166.6,150.4 166.9,150.2 166.9,149.9 L167.4,144.3 L167.7,133.9 L167.6,124.2 L167.3,119.7 L167.2,118.7 L166.2,109.1 L166,107 L165.5,104.7 L165.3,103.4 L164.9,100.9 L164.3,98.3 L162.8,92.9 C162.7,93.9 162.6,94.8 162.5,95.8 L163.2,98.2 Z" id="Path"></path>
                        <path d="M121.9,81.7 C121.7,81.8 121.7,82 121.7,82.2 L122.1,83 L121.9,87.5 C121.9,87.5 121.9,87.6 121.9,87.6 C121.9,87.8 122.1,88 122.3,88 C122.4,88 122.6,87.9 122.6,87.8 C122.7,87.9 122.8,88 123,88 C123,88 123,88 123,88 C123.2,88 123.4,87.8 123.4,87.5 L122.9,82.9 L122.9,82.7 L122.4,81.8 C122.4,81.7 122.2,81.6 121.9,81.7 L121.9,81.7 L121.9,81.7 L121.9,81.7 Z" id="Path"></path>
                        <path d="M119,8.2 L118.2,5.1 C118.2,5 118.2,4.9 118.1,4.9 L135.8,6.1 L150.9,7.5 L161.7,8.5 L161.9,8.5 L165.8,6.6 L167.5,6.4 C167.5,6.4 167.5,6.4 167.5,6.4 C167.7,6.4 167.9,6.2 167.9,5.9 C167.8,5.7 167.6,5.5 167.4,5.5 L165.6,5.7 L165.4,5.7 L161.5,7.6 L150.8,6.6 L135.7,5.2 L117.7,4 C117.6,4 117.5,4 117.4,4.1 L117.4,4.1 C117.3,4.2 117.2,4.3 117.1,4.3 C117.1,4.4 117.2,4.6 117.3,4.7 C117.1,4.8 117,5 117.1,5.2 L117.2,5.7 L117.1,5.5 C116.9,5.3 116.7,5.3 116.5,5.4 C116.3,5.6 116.3,5.8 116.4,6 L117.9,8.4 L118.1,9.1 L118.1,9.1 C118.4,9.2 118.7,9.3 119,9.4 L119.2,9 L119,8.2 Z" id="Path"></path>
                        <path d="M115.6,135.9 L117.6,132.4 L119.2,128.8 L123.1,120.3 L123.1,120 L123.4,108.4 L123.4,98.7 C123.4,98.4 123.2,98.2 122.9,98.2 C122.8,98.2 122.7,98.2 122.7,98.3 L122.7,98.3 L122.7,98.3 C122.6,98.4 122.5,98.5 122.5,98.7 L122.5,106.3 L122.3,106.3 C122.3,106.3 122.3,106.3 122.2,106.3 C122,106.3 121.8,106.5 121.8,106.8 L121.9,118.2 L122.1,119.9 L118.3,128.3 L116.7,131.9 L114.4,135.9 L113.5,137.4 L110.4,144.1 L107.6,150.5 L106.3,152.7 L105.9,153.5 L105.9,153.6 L103.8,158.7 L103.7,159.1 C104,159.1 104.4,159 104.7,159 L107.2,154.4 L107.4,153.9 L107.6,153.5 C107.7,153.5 107.7,153.4 107.7,153.4 L108.5,150.9 L111.3,144.5 L114.4,137.8 L115.1,136.6 L131.7,142.3 L131.8,142.3 L137.7,143.5 C137.9,143.3 138.2,143 138.4,142.8 L131.9,141.4 L115.6,135.9 Z" id="Path"></path>
                        <path d="M119.7,17.4 L120.8,22.7 C120.9,23 121.1,23.2 121.3,23.1 C121.5,23 121.7,22.8 121.6,22.6 L120.5,17.3 L119.2,9.5 C118.9,9.4 118.6,9.3 118.3,9.2 L119.7,17.4 Z" id="Path"></path>
                        <path d="M159.6,57.6 L159,57.6 L158.1,57.4 L156.7,57.4 L143.9,57 L139.5,55.6 L138.6,53.9 C138.5,53.8 138.5,53.7 138.4,53.7 C138.3,53.6 138.3,53.6 138.3,53.6 L138.2,53.6 L137.1,53.4 L137,53.4 L135.4,53.5 L129.5,51 L129.4,51 L128.9,50.8 L127.1,49.6 C127,49.5 126.8,49.5 126.6,49.6 L126.6,49.6 L126.6,49.6 L126.6,49.6 C126.5,49.6 126.5,49.7 126.6,49.9 C126.4,50.2 126.5,50.4 126.7,50.5 L128,51.3 L127,52 C126.8,52.1 126.8,52.4 126.9,52.6 C127,52.8 127.3,52.8 127.5,52.7 L128.9,51.7 L129.2,51.8 L135.2,54.3 L136.8,55 L139.1,56.1 L139.2,56.1 L143.8,57.6 L143.9,57.6 L156.8,58 L158,58 L158.9,58.2 L159.5,58.2 L160.6,58.3 L160.7,58.3 C160.6,58 160.6,57.8 160.5,57.5 L159.6,57.6 Z M137.3,54.5 L137.3,54.3 L137.8,54.4 L138.1,54.9 L137.3,54.5 Z" id="Shape"></path>
                    </g>
                    <g transform="translate(62.223150, 27.527844)">
                        <circle id="Oval" fill="#2D337E" fill-rule="nonzero" transform="translate(24.679020, 14.584456) rotate(-61.848647) translate(-24.679020, -14.584456) " cx="24.67902" cy="14.5844555" r="2.19998914"></circle>
                        <path d="M25.14185,13.6121555 L9.94185,31.4121555 C9.94185,31.4121555 23.84185,72.8121555 23.74185,72.9121555 C23.74185,72.9121555 18.84185,93.0121555 16.74185,97.9121555 C15.44185,101.112156 13.84185,104.112156 12.04185,107.112156" id="Path" stroke="#2D337E" stroke-width="2"></path>
                        <circle id="Oval" fill="#4080F8" fill-rule="nonzero" opacity="0.35" transform="translate(23.858290, 73.127536) rotate(-52.434552) translate(-23.858290, -73.127536) " cx="23.85829" cy="73.1275355" r="4.30023086"></circle>
                        <circle id="Oval" fill="#4080F8" fill-rule="nonzero" transform="translate(23.858990, 73.127436) rotate(-52.434552) translate(-23.858990, -73.127436) " cx="23.85899" cy="73.1274355" r="1.50008053"></circle>
                        <ellipse id="Oval" fill="#4080F8" fill-rule="nonzero" opacity="0.09" transform="translate(23.858990, 73.127336) rotate(-52.434552) translate(-23.858990, -73.127336) " cx="23.85899" cy="73.1273355" rx="7.30039193" ry="7.4003973"></ellipse>
                        <circle id="Oval" fill="#4080F8" fill-rule="nonzero" opacity="0.35" transform="translate(19.029480, 90.661846) rotate(-52.434552) translate(-19.029480, -90.661846) " cx="19.02948" cy="90.6618455" r="4.30023086"></circle>
                        <circle id="Oval" fill="#4080F8" fill-rule="nonzero" transform="translate(19.029780, 90.661046) rotate(-52.434552) translate(-19.029780, -90.661046) " cx="19.02978" cy="90.6610455" r="1.50008053"></circle>
                        <ellipse id="Oval" fill="#4080F8" fill-rule="nonzero" opacity="0.09" transform="translate(19.289500, 91.037086) rotate(-52.434552) translate(-19.289500, -91.037086) " cx="19.2895" cy="91.0370855" rx="7.30039193" ry="7.4003973"></ellipse>
                        <ellipse id="Oval" fill="#4080F8" fill-rule="nonzero" opacity="0.09" transform="translate(12.226820, 108.631506) rotate(-52.434552) translate(-12.226820, -108.631506) " cx="12.22682" cy="108.631506" rx="7.30039193" ry="7.4003973"></ellipse>
                        <circle id="Oval" fill="#4080F8" fill-rule="nonzero" opacity="0.35" transform="translate(10.316590, 31.599636) rotate(-52.434552) translate(-10.316590, -31.599636) " cx="10.31659" cy="31.5996355" r="4.30023086"></circle>
                        <circle id="Oval" fill="#4080F8" fill-rule="nonzero" transform="translate(10.317190, 31.599836) rotate(-52.434552) translate(-10.317190, -31.599836) " cx="10.31719" cy="31.5998355" r="1.50008053"></circle>
                        <ellipse id="Oval" fill="#4080F8" fill-rule="nonzero" opacity="0.09" transform="translate(10.316790, 31.598836) rotate(-52.434552) translate(-10.316790, -31.598836) " cx="10.31679" cy="31.5988355" rx="7.30039193" ry="7.4003973"></ellipse>
                        <g transform="translate(20.741850, 0.000000)" fill-rule="nonzero" id="Path">
                            <path d="M4.9,18.4121555 C6.2,18.6121555 7.4,18.1121555 8.1,17.0121555 C9,15.7121555 9.7,14.4121555 9.7,14.4121555 C10.9,12.6121555 12.3,10.9121555 13.7,9.31215551 C14.5,8.61215551 15.2,7.81215551 15.8,7.01215551 C16.4,6.21215551 17.2,5.61215551 16.6,4.41215551 C15.6,2.71215551 14.2,1.21215551 12.4,0.312155506 C11.3,-0.287844494 10,0.0121555065 9.2,0.912155506 C8.1,2.11215551 8.2,2.71215551 7.6,3.51215551 C7.3,3.81215551 6.9,4.51215551 6.4,5.11215551 C5.5,6.21215551 4.5,7.51215551 4.2,7.81215551 C3.6,8.41215551 2.9,9.01215551 2.2,9.81215551 C1.7,10.3121555 1.2,10.8121555 0.8,11.4121555 C0.4,11.9121555 0.1,12.5121555 0,13.1121555 C0.1,14.2121555 0.6,15.3121555 1.3,16.0121555 C2.4,17.1121555 3.6,17.9121555 4.9,18.4121555 L4.9,18.4121555 Z" fill-opacity="0.322" fill="#253081"></path>
                            <path d="M16.3,9.61215551 L17.3,7.71215551 C17.5,7.41215551 17.3,7.01215551 17,6.81215551 C16.7,6.61215551 16.3,6.81215551 16.1,7.11215551 L15.1,9.01215551 C14.9,9.31215551 15.1,9.71215551 15.4,9.91215551 L15.4,9.91215551 C15.8,10.0121555 16.2,9.91215551 16.3,9.61215551 Z" fill="#212A5D"></path>
                            <path d="M14.9,9.41215551 C15.4,9.31215551 15.9,9.01215551 16.2,8.61215551 C16.7,8.21215551 17.1,7.61215551 17.2,6.91215551 C16.3,6.61215551 14.9,9.41215551 14.9,9.41215551 Z" fill="#212A5D" opacity="0.33"></path>
                            <path d="M8.2,17.8121555 C8.5,18.0121555 8.9,17.8121555 9.1,17.5121555 L10.1,15.6121555 C10.3,15.3121555 10.1,14.9121555 9.8,14.7121555 C9.5,14.5121555 9.1,14.7121555 8.9,15.0121555 L7.9,16.9121555 C7.7,17.2121555 7.8,17.6121555 8.2,17.8121555 C8.2,17.8121555 8.2,17.8121555 8.2,17.8121555 Z" fill="#212A5D"></path>
                            <path d="M7.6,17.4121555 C8.1,17.3121555 8.6,17.0121555 8.9,16.6121555 C9.4,16.2121555 9.8,15.6121555 9.9,14.9121555 C8.9,14.5121555 7.6,17.4121555 7.6,17.4121555 Z" fill="#212A5D" opacity="0.33"></path>
                            <path d="M8.9,3.51215551 C9.2,3.71215551 9.6,3.51215551 9.8,3.21215551 L10.8,1.31215551 C11,1.01215551 10.8,0.612155506 10.5,0.412155506 C10.2,0.212155506 9.8,0.412155506 9.6,0.712155506 L8.6,2.61215551 C8.4,2.91215551 8.5,3.31215551 8.8,3.41215551 C8.8,3.51215551 8.9,3.51215551 8.9,3.51215551 Z" fill="#212A5D"></path>
                            <path d="M11,1.01215551 C10.4,1.21215551 9.8,1.51215551 9.3,2.11215551 C8.9,2.51215551 8.7,3.11215551 8.8,3.71215551 C8.8,3.61215551 11.5,1.91215551 11,1.01215551 Z" fill="#212A5D" opacity="0.33"></path>
                            <path d="M0.5,12.8121555 C0.8,13.0121555 1.2,12.8121555 1.4,12.5121555 L2.4,10.6121555 C2.6,10.3121555 2.4,9.91215551 2.1,9.71215551 C1.8,9.51215551 1.4,9.71215551 1.2,10.0121555 L0.2,11.9121555 C0.1,12.2121555 0.2,12.6121555 0.5,12.8121555 C0.5,12.8121555 0.5,12.8121555 0.5,12.8121555 Z" fill="#212A5D"></path>
                            <path d="M2.6,10.2121555 L2.6,10.2121555 C2,10.4121555 1.4,10.7121555 1,11.3121555 C0.6,11.7121555 0.4,12.3121555 0.5,12.9121555 C0.5,12.8121555 3.1,11.2121555 2.6,10.2121555 Z" fill="#212A5D" opacity="0.33"></path>
                            <path d="M4.8,18.5121555 C6.1,18.8121555 7.4,18.3121555 8.3,17.4121555 C9.2,16.2121555 10,15.0121555 10,15.0121555 C11.3,13.3121555 12.8,11.7121555 14.3,10.1121555 C15.1,9.51215551 15.9,8.71215551 16.6,8.01215551 C17.2,7.31215551 18,6.71215551 17.6,5.51215551 C16.7,3.61215551 15.4,2.11215551 13.7,1.11215551 C12.7,0.712155506 11.7,0.312155506 10.5,1.41215551 C9.4,2.51215551 9.4,3.11215551 8.8,3.81215551 C8.6,4.11215551 8.1,4.71215551 7.5,5.31215551 C6.7,6.21215551 5.9,7.01215551 5.1,7.81215551 C4.4,8.41215551 3.6,9.01215551 2.9,9.61215551 C2.4,10.1121555 1.8,10.6121555 1.4,11.1121555 C0.9,11.5121555 0.6,12.1121555 0.5,12.7121555 C0.5,13.6121555 0.7,14.4121555 1.2,15.1121555 C1.3,15.3121555 1.5,15.5121555 1.6,15.7121555 C2.4,17.0121555 3.5,17.9121555 4.8,18.5121555 Z" fill="#2D337E"></path>
                            <path d="M9.7,8.11215551 C10.5,8.81215551 11.2,9.71215551 11.8,10.6121555 C11.9,10.7121555 12,10.8121555 12.2,10.7121555 L13.9,9.41215551 C14.1,9.31215551 14.1,9.11215551 14.1,8.91215551 C13.8,7.61215551 13.1,6.41215551 11.9,5.61215551 C11,5.11215551 10.1,4.91215551 9.1,4.91215551 C8.9,4.91215551 8.7,5.01215551 8.7,5.11215551 L7.8,6.51215551 C7.8,6.51215551 7.8,6.51215551 7.8,6.61215551 C7.7,6.81215551 7.8,7.01215551 8,7.01215551 C8.6,7.31215551 9.2,7.61215551 9.7,8.11215551 Z" fill="#FFFFFF"></path>
                            <path d="M4.4,10.7121555 C5.6,9.71215551 6.6,8.51215551 7.3,7.21215551 C7.6,6.71215551 7.7,6.01215551 7.4,5.41215551 C6.6,6.31215551 5.8,7.11215551 5,7.91215551 C4.3,8.51215551 3.5,9.11215551 2.8,9.71215551 C2.2,10.2121555 1.7,10.7121555 1.3,11.2121555 L1.3,11.3121555 L1.3,11.3121555 C2.4,11.4121555 3.4,11.2121555 4.4,10.7121555 Z" fill="#28306B"></path>
                            <path d="M4.1,9.71215551 C4,9.81215551 4,9.81215551 4.1,9.71215551 C4,9.81215551 4,9.81215551 4.1,9.71215551 L3.1,10.7121555 C3.1,10.7121555 3.1,10.8121555 3.2,10.7121555 C3.5,10.6121555 3.8,10.4121555 4.1,10.2121555 C4.3,9.91215551 4.2,9.81215551 4.1,9.71215551 Z" fill="#FFFFFF"></path>
                            <path d="M2.8,13.4121555 C3.7,14.6121555 4.8,15.6121555 6.1,16.3121555 C6.2,16.4121555 6.4,16.3121555 6.5,16.2121555 L7.5,15.2121555 C7.7,15.0121555 7.7,14.7121555 7.5,14.5121555 L4.2,11.5121555 L4.2,11.5121555 C4.2,11.5121555 4.2,11.5121555 4.1,11.4121555 C4,11.3121555 3.8,11.4121555 3.7,11.5121555 L2.8,12.7121555 C2.7,13.0121555 2.7,13.2121555 2.8,13.4121555 Z" fill="#FFFFFF"></path>
                            <path d="M9.2,14.7121555 C9.2,14.6121555 9,14.5121555 8.8,14.8121555 C8.6,15.1121555 8.4,15.4121555 8.3,15.7121555 L8.4,15.7121555 L9.2,14.7121555 C9.2,14.7121555 9.2,14.7121555 9.2,14.7121555 Z" fill="#FFFFFF"></path>
                            <path d="M9.6,14.1121555 C9.7,14.1121555 9.7,14.2121555 9.8,14.1121555 L12.6,11.0121555 C12.6,10.9121555 12.6,10.9121555 12.5,11.0121555 C11.4,11.6121555 10.5,12.4121555 9.7,13.4121555 C9.3,13.9121555 9.5,14.0121555 9.6,14.1121555 Z" fill="#FFFFFF"></path>
                            <path d="M5.3,9.21215551 C6.1,8.31215551 6.9,7.31215551 7.4,6.11215551 C7.4,6.01215551 7.4,6.01215551 7.3,6.11215551 L4.5,9.11215551 C4.5,9.21215551 4.4,9.21215551 4.5,9.31215551 C4.7,9.41215551 4.8,9.71215551 5.3,9.21215551 Z" fill="#FFFFFF"></path>
                            <path d="M13.2,10.1121555 L12.8,10.6121555 C12.7,10.7121555 12.8,10.8121555 12.9,10.8121555 C13.1,10.9121555 13.4,10.7121555 13.2,10.1121555 Z" fill="#18214C"></path>
                            <path d="M7.8,5.71215551 L8.2,5.21215551 C7.6,5.11215551 7.5,5.41215551 7.5,5.61215551 C7.6,5.71215551 7.7,5.81215551 7.8,5.71215551 Z" fill="#18214C"></path>
                            <path d="M4.8,18.5121555 C6,18.8121555 7.3,18.4121555 8.2,17.4121555 C8,17.5121555 5.3,19.9121555 1.1,15.3121555 C1.2,15.5121555 1.4,15.8121555 1.5,15.9121555 C2.4,17.0121555 3.5,17.9121555 4.8,18.5121555 Z" fill="#28306B"></path>
                        </g>
                        <rect id="Rectangle" transform="translate(12.743550, 107.187256) rotate(-21.999303) translate(-12.743550, -107.187256) " x="6.44347125" y="100.887177" width="12.6001575" height="12.6001575"></rect>
                        <rect id="Rectangle" transform="translate(18.165950, 90.913156) rotate(-21.999303) translate(-18.165950, -90.913156) " x="11.8658713" y="84.6130768" width="12.6001575" height="12.6001575"></rect>
                        <rect id="Rectangle" transform="translate(23.849030, 75.308416) rotate(-21.999303) translate(-23.849030, -75.308416) " x="17.5489513" y="69.0083368" width="12.6001575" height="12.6001575"></rect>
                        <rect id="Rectangle" transform="translate(11.138150, 29.805656) rotate(-5.998509) translate(-11.138150, -29.805656) " x="4.83830593" y="23.5058114" width="12.5996881" height="12.5996881"></rect>
                    </g>
                </g>
            </g>
            <g id="Group" transform="translate(66.109355, 52.060062)">
                <g id="Group_8949" transform="translate(6.500000, 6.500000) rotate(350.000000) translate(-6.500000, -6.500000) ">
                    <g id="Group" fill="#8BC34A" fill-rule="nonzero" opacity="0.4">
                        <circle id="Ellipse_2457-2" cx="6.5" cy="6.5" r="6.5"></circle>
                    </g>
                    <circle id="Ellipse_2458" fill="#388E3C" fill-rule="nonzero" cx="6.5" cy="6.5" r="4.225"></circle>
                    <g id="Group_8948" transform="translate(3.250000, 3.250000)">
                        <polygon id="Path_21702" points="0 0 6.5 0 6.5 6.5 0 6.5"></polygon>
                        <polygon id="Path_21703" fill="#FFFFFF" fill-rule="nonzero" points="5.70555556 0.794444444 0.830555556 2.81666667 0.830555556 3.06944444 2.67222222 3.79166667 3.39444444 5.63333333 3.64722222 5.63333333"></polygon>
                    </g>
                </g>
            </g>
            <g id="Group" transform="translate(79.109355, 94.060062)">
                <g id="Group_8949" transform="translate(6.500000, 6.500000) rotate(350.000000) translate(-6.500000, -6.500000) ">
                    <g id="Group" fill="#8BC34A" fill-rule="nonzero" opacity="0.4">
                        <circle id="Ellipse_2457-2" cx="6.5" cy="6.5" r="6.5"></circle>
                    </g>
                    <circle id="Ellipse_2458" fill="#388E3C" fill-rule="nonzero" cx="6.5" cy="6.5" r="4.225"></circle>
                    <g id="Group_8948" transform="translate(3.250000, 3.250000)">
                        <polygon id="Path_21702" points="0 0 6.5 0 6.5 6.5 0 6.5"></polygon>
                        <polygon id="Path_21703" fill="#FFFFFF" fill-rule="nonzero" points="5.70555556 0.794444444 0.830555556 2.81666667 0.830555556 3.06944444 2.67222222 3.79166667 3.39444444 5.63333333 3.64722222 5.63333333"></polygon>
                    </g>
                </g>
            </g>
            <g id="Group" transform="translate(74.109355, 113.060062)">
                <g id="Group_8949" transform="translate(6.500000, 6.500000) rotate(350.000000) translate(-6.500000, -6.500000) ">
                    <g id="Group" fill="#8BC34A" fill-rule="nonzero" opacity="0.4">
                        <circle id="Ellipse_2457-2" cx="6.5" cy="6.5" r="6.5"></circle>
                    </g>
                    <circle id="Ellipse_2458" fill="#388E3C" fill-rule="nonzero" cx="6.5" cy="6.5" r="4.225"></circle>
                    <g id="Group_8948" transform="translate(3.250000, 3.250000)">
                        <polygon id="Path_21702" points="0 0 6.5 0 6.5 6.5 0 6.5"></polygon>
                        <polygon id="Path_21703" fill="#FFFFFF" fill-rule="nonzero" points="5.70555556 0.794444444 0.830555556 2.81666667 0.830555556 3.06944444 2.67222222 3.79166667 3.39444444 5.63333333 3.64722222 5.63333333"></polygon>
                    </g>
                </g>
            </g>
            <g id="Group" transform="translate(68.109355, 129.060062)">
                <g id="Group_8949" transform="translate(6.500000, 6.500000) rotate(350.000000) translate(-6.500000, -6.500000) ">
                    <g id="Group" fill="#8BC34A" fill-rule="nonzero" opacity="0.4">
                        <circle id="Ellipse_2457-2" cx="6.5" cy="6.5" r="6.5"></circle>
                    </g>
                    <circle id="Ellipse_2458" fill="#388E3C" fill-rule="nonzero" cx="6.5" cy="6.5" r="4.225"></circle>
                    <g id="Group_8948" transform="translate(3.250000, 3.250000)">
                        <polygon id="Path_21702" points="0 0 6.5 0 6.5 6.5 0 6.5"></polygon>
                        <polygon id="Path_21703" fill="#FFFFFF" fill-rule="nonzero" points="5.70555556 0.794444444 0.830555556 2.81666667 0.830555556 3.06944444 2.67222222 3.79166667 3.39444444 5.63333333 3.64722222 5.63333333"></polygon>
                    </g>
                </g>
            </g>
        </g>
    </g>
</svg>