<?xml version="1.0" encoding="UTF-8"?>
<svg width="24px" height="24px" viewBox="0 0 24 24" version="1.1" xmlns="http://www.w3.org/2000/svg" xmlns:xlink="http://www.w3.org/1999/xlink">
    <title>robber@1.5x</title>
    <g id="Page-1" stroke="none" stroke-width="1" fill="none" fill-rule="evenodd">
        <g id="2-menu-layers" transform="translate(-1107.000000, -203.000000)">
            <g id="Group" transform="translate(1082.000000, 75.000000)">
                <g id="robber" transform="translate(25.000000, 128.000000)">
                    <polygon id="Path" points="0 0 24 0 24 24 0 24"></polygon>
                    <path d="M10.7,12.5 C10.7,12.8 9.4,13.2 8.4,13.2 C7.4,13.2 6.3,12.5 6.3,12.3 C6.3,12 7,11.1 8.6,11 C9.5,10.9 10.5,11.5 10.7,12.5 M15.4,11 C14.4,10.9 13.5,11.5 13.3,12.5 C13.3,12.8 14.5,13.2 15.6,13.2 C16.7,13.2 17.7,12.5 17.7,12.3 C17.7,12.1 17,11.1 15.4,11 M22,12 C22,17.5 17.5,22 12,22 C6.5,22 2,17.5 2,12 C2,6.5 6.5,2 12,2 C17.5,2 22,6.5 22,12 M20,11.2 C20,9.2 19.3,8.5 16.7,8.5 C14.1,8.5 13.3,9.6 12,9.6 C10.7,9.6 10,8.5 7.3,8.5 C4.6,8.5 4,9.1 4,11.2 C4,14.6 5.5,16.5 7.6,16.5 C9.2,16.5 10.4,14.5 12,14.5 C13.6,14.5 14.7,16.5 16.4,16.5 C18.5,16.5 20,14.6 20,11.2 Z" id="Shape" fill="#757575" fill-rule="nonzero"></path>
                </g>
            </g>
        </g>
    </g>
</svg>