<?xml version="1.0" encoding="utf-8"?>
<!-- Generator: Adobe Illustrator 20.1.0, SVG Export Plug-In . SVG Version: 6.00 Build 0)  -->
<svg version="1.1" id="Capa_1" xmlns="http://www.w3.org/2000/svg" xmlns:xlink="http://www.w3.org/1999/xlink" x="0px" y="0px"
	 viewBox="0 0 36 36" style="enable-background:new 0 0 36 36;" xml:space="preserve">
<style type="text/css">
	.st0{fill:none;}
	.st1{fill:#FFFFFF;}
</style>
<path class="st0" d="M0,0h36v36H0V0z"/>
<g>
	<g>
		<path class="st1" d="M12.9,6.7c-2.6,0-4.7,2.1-4.7,4.7c0,3.5,4.7,8.7,4.7,8.7s4.7-5.2,4.7-8.7C17.5,8.8,15.4,6.7,12.9,6.7z
			 M12.9,13.1c-0.9,0-1.7-0.7-1.7-1.7s0.7-1.7,1.7-1.7s1.7,0.7,1.7,1.7S13.8,13.1,12.9,13.1z"/>
	</g>
	<path class="st1" d="M27.3,17.1c-0.2-0.4-0.6-0.8-1.1-0.8H18c-0.5,0-0.9,0.3-1.1,0.8l-1.6,4.5v6c0,0.4,0.3,0.8,0.8,0.8h0.8
		c0.4,0,0.8-0.3,0.8-0.8v-0.8h9v0.8c0,0.4,0.3,0.8,0.8,0.8h0.8c0.4,0,0.8-0.3,0.8-0.8v-6L27.3,17.1z M18,24.6
		c-0.6,0-1.1-0.5-1.1-1.1s0.5-1.1,1.1-1.1s1.1,0.5,1.1,1.1S18.6,24.6,18,24.6z M26.3,24.6c-0.6,0-1.1-0.5-1.1-1.1s0.5-1.1,1.1-1.1
		s1.1,0.5,1.1,1.1S26.9,24.6,26.3,24.6z M16.9,20.8l1.1-3.4h8.2l1.1,3.4H16.9z"/>
</g>
</svg>
