<?xml version="1.0" encoding="utf-8"?>
<!-- Generator: Adobe Illustrator 20.1.0, SVG Export Plug-In . SVG Version: 6.00 Build 0)  -->
<svg version="1.1" id="Capa_1" xmlns="http://www.w3.org/2000/svg" xmlns:xlink="http://www.w3.org/1999/xlink" x="0px" y="0px"
	 viewBox="0 0 40 40" style="enable-background:new 0 0 40 40;" xml:space="preserve">
<style type="text/css">
	.st0{fill:#253080;}
	.st1{fill:#FFFFFF;}
	.st2{fill:none;stroke:#253080;stroke-miterlimit:10;}
</style>
<g>
	<g>
		<g>
			<path class="st0" d="M17.5,24.5c-0.1-0.4-0.3-0.8-0.5-1.2c-0.5-0.6-1.2-0.9-2.1-0.9c-1.3,0-2.6,0.9-3.2,2.1l-2.8,0l0.2-1.1h2.2
				c0.3,0,0.5-0.2,0.5-0.5c0-0.3-0.2-0.5-0.5-0.5H6.1c-0.3,0-0.5,0.2-0.5,0.5s0.2,0.5,0.5,0.5h2l-0.2,1c0,0.3,0,0.6,0.2,0.8
				c0.2,0.2,0.4,0.3,0.7,0.3h2.5c-0.1,0.8,0.1,1.6,0.6,2.2c0.5,0.6,1.2,0.9,2.1,0.9c1.6,0,3.2-1.3,3.5-3c0,0,0-0.1,0-0.1h2.8l-0.1-1
				H17.5z M16.6,25.4c-0.2,1.2-1.4,2.2-2.6,2.2c-0.5,0-1-0.2-1.3-0.6c-0.3-0.4-0.4-0.9-0.3-1.4c0.2-1.2,1.4-2.2,2.6-2.2
				c0.5,0,1,0.2,1.3,0.6C16.5,24.4,16.7,24.9,16.6,25.4z"/>
			<path class="st0" d="M36.1,18c-0.3-0.4-0.8-0.6-1.3-0.7l-0.2-3.2c0.2,0,0.4-0.2,0.5-0.4l0.1-0.5c0.1-0.6,0-1.1-0.4-1.5
				c-0.3-0.4-0.8-0.6-1.4-0.6h-3.6l0.2-1c0-0.3,0-0.6-0.2-0.8C29.7,9.1,29.4,9,29.1,9H11.6c-0.5,0-1,0.4-1.1,0.9l-1.2,6.8
				c0.3,0,0.7,0,1,0l1.2-6.6c0-0.1,0.1-0.1,0.1-0.1l17.5,0l-1.5,8.7c0,0.3,0.1,0.5,0.4,0.6c0.3,0,0.5-0.1,0.6-0.4l0.1-0.6h5.8
				c0,0,0,0,0,0c0,0,0,0,0,0c0.4,0,0.7,0.1,1,0.4c0.2,0.2,0.2,0.4,0.3,0.7H34c-0.2,0-0.4,0.2-0.5,0.4l-0.2,1c-0.1,0.4,0,0.8,0.3,1.1
				c0.3,0.3,0.6,0.5,1,0.5h0.5l-0.4,2.1h-1.3c-0.1-0.4-0.3-0.8-0.5-1.2c-0.5-0.6-1.2-0.9-2.1-0.9c-1.3,0-2.6,0.9-3.2,2.1h-0.2
				l0.6-3.6c0-0.3-0.1-0.5-0.4-0.6c-0.3,0-0.5,0.1-0.6,0.4l-0.7,3.7h-6.2l0.1,1h7c-0.1,0.8,0.1,1.6,0.6,2.2c0.5,0.6,1.2,0.9,2.1,0.9
				c1.6,0,3.2-1.3,3.5-3c0,0,0-0.1,0-0.1h1.7c0.2,0,0.4-0.2,0.5-0.4l0.9-5.2C36.7,19.2,36.5,18.5,36.1,18z M28.8,17.3l0.6-3.2h4.3
				l0.2,3.2H28.8z M34.2,13.1h-4.7l0.2-1.1h3.7c0.3,0,0.5,0.1,0.6,0.3c0.2,0.2,0.2,0.4,0.2,0.7L34.2,13.1z M32.5,25.4
				c-0.2,1.2-1.4,2.2-2.6,2.2c-0.5,0-1-0.2-1.3-0.6c-0.3-0.4-0.4-0.9-0.3-1.4c0.2-1.2,1.4-2.2,2.6-2.2c0.5,0,1,0.2,1.3,0.6
				C32.5,24.4,32.6,24.9,32.5,25.4z M35.3,21.4h-0.6v0c-0.1,0-0.2,0-0.3-0.1c-0.1-0.1-0.1-0.2-0.1-0.3l0.1-0.6h1.1L35.3,21.4z"/>
			<path class="st0" d="M9,18.7c0,0.3,0.1,0.5,0.4,0.6c0,0,0.1,0,0.1,0c0.2,0,0.4-0.2,0.5-0.4l0.4-2.1c-0.3,0-0.7,0-1,0L9,18.7z"/>
		</g>
	</g>
	<g>
		<g>
			<path class="st0" d="M30.8,25.2c-0.1-0.1-0.2-0.2-0.4-0.2c-0.3,0-0.5,0.2-0.5,0.5c0,0.1,0,0.3,0.1,0.4c0.1,0.1,0.2,0.2,0.4,0.2
				c0.3,0,0.5-0.2,0.5-0.5C30.9,25.4,30.9,25.3,30.8,25.2z"/>
		</g>
	</g>
	<g>
		<g>
			<path class="st0" d="M25.2,22.4H22c-0.3,0-0.5,0.2-0.5,0.5c0,0.3,0.2,0.5,0.5,0.5h3.2c0.3,0,0.5-0.2,0.5-0.5
				C25.7,22.7,25.5,22.4,25.2,22.4z"/>
		</g>
	</g>
</g>
<path class="st1" d="M1.5,16.1h8.1c0,0,3.4-0.2,4.4,1.2c1.1,1.4,6.3,5,6.3,5.4c0,0.4,0.3,4.7,0.2,4.9c-0.1,0.2-1.2,0.9-1.4,1.1
	S7,28.7,7,28.7L1.5,16.1z"/>
<g>
	<path class="st0" d="M20,39.5C9.2,39.5,0.5,30.8,0.5,20S9.2,0.5,20,0.5S39.5,9.2,39.5,20S30.8,39.5,20,39.5z M20,1.6
		C9.8,1.6,1.6,9.8,1.6,20c0,10.2,8.3,18.4,18.4,18.4c10.2,0,18.4-8.3,18.4-18.4C38.4,9.8,30.2,1.6,20,1.6z"/>
</g>
<path class="st0" d="M4.8,28.7c0-0.3-0.2-0.5-0.5-0.5h0c-0.3,0-0.5,0.2-0.5,0.5s0.2,0.5,0.5,0.5C4.6,29.1,4.8,28.9,4.8,28.7z"/>
<path class="st0" d="M3.4,23.6c-0.3,0-0.5,0.2-0.5,0.5c0,0.3,0.2,0.5,0.5,0.5h1.9c0.3,0,0.5-0.2,0.5-0.5c0-0.3-0.2-0.5-0.5-0.5H3.4z
	"/>
<path class="st0" d="M16.7,28.2L16.7,28.2c-0.3,0-0.5,0.2-0.5,0.5s0.2,0.5,0.5,0.5c0.3,0,0.5-0.2,0.5-0.5S16.9,28.2,16.7,28.2z"/>
<path class="st0" d="M21,24.4c0-1.8-0.4-2.2-2-3.6c-0.2-0.2-0.4-0.3-0.6-0.5c-0.2-0.1-0.3-0.3-0.5-0.4c-0.2-0.2-0.5-0.5-0.8-0.7
	c-0.2-0.2-0.4-0.4-0.6-0.5c-2.5-2.1-3.5-2.9-6-2.9H1.9c-0.2,0-0.4,0-0.6,0.1c0,0.4-0.1,0.7-0.1,1.1c0.2-0.2,0.4-0.3,0.7-0.3h8.6
	c2.2,0,2.9,0.6,5.4,2.7c0.2,0.2,0.4,0.3,0.6,0.5c0.3,0.2,0.5,0.4,0.7,0.7c0.2,0.1,0.3,0.3,0.5,0.4c0.2,0.2,0.4,0.4,0.6,0.5
	c0.9,0.8,1.3,1.2,1.5,1.6H8.5c-0.4,0-0.8-0.3-1-0.9C7.4,22,7.2,21.9,6.9,22c-0.2,0.1-0.4,0.4-0.3,0.6c0.2,0.4,0.6,1.5,1.9,1.5H20
	c0,0.1,0,0.2,0,0.3c0,0.4,0,1.1,0,1.7l0,0.4c0,0.3,0,0.6,0,1c0,0.3-0.2,0.5-0.5,0.6c-0.3-1.4-1.5-2.4-2.9-2.4c-1.6,0-3,1.3-3,3
	c0,1.6,1.3,3,3,3c1.5,0,2.8-1.1,2.9-2.6c0.8-0.2,1.4-0.9,1.4-1.6c0-0.4,0-0.7,0-1l0-0.4C21,25.5,21,24.7,21,24.4z M16.7,30.7
	c-1.1,0-2-0.9-2-2c0-1.1,0.9-2,2-2c1.1,0,2,0.9,2,2c0,0,0,0,0,0C18.7,29.8,17.8,30.7,16.7,30.7z"/>
<path class="st0" d="M4.3,26.6c1.1,0,2,0.9,2,2c0,1.1-0.9,2-2,2c0,0-0.1,0-0.1,0c0.2,0.3,0.4,0.6,0.6,0.9c1.3-0.2,2.3-1.2,2.5-2.5h5
	c0.3,0,0.5-0.2,0.5-0.5c0-0.3-0.2-0.5-0.5-0.5h-5c-0.2-1.4-1.5-2.5-2.9-2.5c-0.8,0-1.5,0.3-2.1,0.9c0.1,0.3,0.2,0.7,0.4,1
	C3,27,3.6,26.6,4.3,26.6z"/>
</svg>
