<svg xmlns="http://www.w3.org/2000/svg" width="14" height="18" viewBox="0 0 14 18">
    <g fill="none" fill-rule="evenodd">
        <path fill="#757575" fill-rule="nonzero" d="M13.323 7h-2.915a.694.694 0 0 0-.688.695c0 .382.31.694.688.694h2.215v8.222H1.377V8.389h2.444a.694.694 0 0 0 .689-.694A.694.694 0 0 0 3.82 7H.677C.298 7 0 7.347 0 7.73v9.633c0 .382.298.637.677.637h12.646c.379 0 .677-.255.677-.637V7.73c0-.382-.298-.729-.677-.729z"/>
        <path fill="#757575" fill-rule="nonzero" d="M7.233 12a.686.686 0 0 0 .687-.681V2.088l2.932 2.589a.698.698 0 0 0 .973-.057.679.679 0 0 0-.057-.965L7.818.169a.696.696 0 0 0-.882-.023.69.69 0 0 0-.298.273L3.214 3.678a.678.678 0 0 0-.023.965.692.692 0 0 0 .973.022l2.382-2.27v8.924c0 .374.31.681.687.681z"/>
        <path d="M-5-3h24v24H-5z"/>
    </g>
</svg>
