<svg xmlns="http://www.w3.org/2000/svg" width="24" height="24" viewBox="0 0 24 24">
    <g fill="none" fill-rule="evenodd">
        <circle cx="12" cy="12" r="10" fill="#ED8921" stroke="#FFF"/>
        <path fill="#FFF" fill-rule="nonzero" d="M15.349 17v-1.032h-4.997l2.666-2.892c1.248-1.353 1.873-2.52 1.873-3.5 0-.806-.27-1.452-.807-1.938-.538-.485-1.27-.728-2.194-.728-.99 0-1.779.283-2.369.848-.59.565-.885 1.305-.885 2.221H9.9c0-.638.175-1.135.523-1.493.349-.358.838-.537 1.467-.537.524 0 .943.167 1.257.5.315.332.472.758.472 1.278 0 .387-.097.762-.29 1.124-.194.362-.546.833-1.057 1.412L8.827 16.09V17h6.522z"/>
    </g>
</svg>
