<svg xmlns="http://www.w3.org/2000/svg" width="24" height="24" viewBox="0 0 24 24">
    <g fill="none" fill-rule="evenodd">
        <circle cx="12" cy="12" r="10" fill="#24298A" stroke="#FFF"/>
        <path fill="#FFF" fill-rule="nonzero" d="M12.156 17.137c.994 0 1.767-.295 2.321-.886.554-.59.83-1.397.83-2.423 0-1.02-.266-1.83-.8-2.43-.532-.6-1.252-.899-2.16-.899-.62 0-1.173.144-1.66.43l.3-2.713h4.027v-1.17h-5.1l-.506 4.964 1.012.26.335-.274c.314-.241.747-.362 1.299-.362.601 0 1.083.201 1.446.605.362.403.543.937.543 1.603 0 .706-.168 1.26-.502 1.66-.335.402-.797.602-1.385.602-.538 0-.97-.144-1.299-.434-.328-.289-.53-.719-.608-1.288H9.053c.077.861.394 1.536.95 2.023.556.488 1.274.732 2.153.732z"/>
    </g>
</svg>
