<?xml version="1.0" encoding="utf-8"?>
<!-- Generator: Adobe Illustrator 20.1.0, SVG Export Plug-In . SVG Version: 6.00 Build 0)  -->
<svg width="48" height="48" version="1.1" id="Capa_1" xmlns="http://www.w3.org/2000/svg" xmlns:xlink="http://www.w3.org/1999/xlink" x="0px" y="0px"
	 viewBox="0 0 37.5 37.5" style="enable-background:new 0 0 37.5 37.5;" xml:space="preserve">
<style type="text/css">
	.st0{fill:none;}
	.st1{fill:#388E3C;}
	.st2{fill:#F57C00;}
	.st3{fill:#9E9E9E;}
	.st4{fill:#B71C1C;}
	.st5{opacity:0.2;fill:#9E9E9E;}
	.st6{fill:#757575;}
	.st7{fill:#FFFFFF;}
	.st8{opacity:0.2;fill:#FFA726;}
	.st9{opacity:0.2;fill:#D32F2F;}
	.st10{opacity:0.4;fill:#8BC34A;}
	.st11{fill:#211915;}
	.st12{fill:#253080;}
	.st13{fill:#FBBC0C;}
	.st14{fill:#253081;}
	.st15{opacity:0.2;fill:#8BC34A;}
</style>
<g>
	<circle class="st5" cx="18.8" cy="18.8" r="17"/>
	<circle class="st6" cx="18.8" cy="18.8" r="11.1"/>
	<path class="st0" d="M10.2,10.2h17v17h-17V10.2z"/>
	<path class="st0" d="M11.2,11.2h15.1v15.1H11.2V11.2z"/>
	<path class="st7" d="M13.7,14.1l-0.7,0.7l0.8,0.8c-0.2,0.1-0.4,0.3-0.7,0.4l0.9,1.2c0.3-0.2,0.6-0.4,0.9-0.6l1.2,1.2
		c-0.4,0.2-0.8,0.4-1.1,0.6l0.9,1.2c0.4-0.3,0.9-0.5,1.4-0.7l1.3,1.3c-0.6,0-1.3,0.3-1.7,0.6l1.9,2.5l1.3-1.7l1.7,1.7l0.7-0.7
		 M18.8,14.1c-1.1,0-2.2,0.2-3.2,0.6l1.2,1.2c0.6-0.2,1.3-0.2,1.9-0.2c1.8,0,3.4,0.6,4.7,1.6l0.9-1.2C22.9,14.8,20.9,14.1,18.8,14.1
		 M18.8,17.2c-0.2,0-0.4,0-0.6,0l1.7,1.7c0.6,0.1,1.2,0.4,1.7,0.8l0.9-1.2C21.5,17.7,20.2,17.2,18.8,17.2z"/>
</g>
</svg>
