<?xml version="1.0" encoding="utf-8"?>
<!-- Generator: Adobe Illustrator 20.1.0, SVG Export Plug-In . SVG Version: 6.00 Build 0)  -->
<svg version="1.1" id="Capa_1" xmlns="http://www.w3.org/2000/svg" xmlns:xlink="http://www.w3.org/1999/xlink" x="0px" y="0px"
	 viewBox="0 0 36 36" style="enable-background:new 0 0 36 36;" xml:space="preserve">
<style type="text/css">
	.st0{fill:none;stroke:#253080;stroke-miterlimit:10;}
	.st1{fill:#FBBC0C;}
</style>
<circle class="st0" cx="18" cy="18" r="17.4"/>
<path class="st1" d="M25,14.5h-2.6V11H10.1c-1,0-1.8,0.8-1.8,1.8v9.6h1.8c0,1.5,1.2,2.6,2.6,2.6s2.6-1.2,2.6-2.6h5.2
	c0,1.5,1.2,2.6,2.6,2.6s2.6-1.2,2.6-2.6h1.8V18L25,14.5z M12.8,23.7c-0.7,0-1.3-0.6-1.3-1.3s0.6-1.3,1.3-1.3s1.3,0.6,1.3,1.3
	S13.5,23.7,12.8,23.7z M24.6,15.8l1.7,2.2h-3.9v-2.2H24.6z M23.2,23.7c-0.7,0-1.3-0.6-1.3-1.3s0.6-1.3,1.3-1.3s1.3,0.6,1.3,1.3
	S24,23.7,23.2,23.7z"/>
</svg>
