<?xml version="1.0" encoding="utf-8"?>
<!-- Generator: Adobe Illustrator 20.1.0, SVG Export Plug-In . SVG Version: 6.00 Build 0)  -->
<svg version="1.1" id="Capa_1" xmlns="http://www.w3.org/2000/svg" xmlns:xlink="http://www.w3.org/1999/xlink" x="0px" y="0px"
	 viewBox="0 0 24 24" style="enable-background:new 0 0 24 24;" xml:space="preserve">
<path d="M20,10h-3V8.9c1.7-0.4,3-2,3-3.9h-3V4c0-0.5-0.5-1-1-1H8C7.4,3,7,3.5,7,4v1H4c0,1.9,1.3,3.4,3,3.9V10H4c0,1.9,1.3,3.4,3,3.9
	V15H4c0,1.9,1.3,3.4,3,3.9V20c0,0.5,0.4,1,1,1h8c0.5,0,1-0.5,1-1v-1.1c1.7-0.5,3-2,3-3.9h-3v-1.1C18.7,13.4,20,11.9,20,10z M12,19
	c-1.1,0-2-0.9-2-2s0.9-2,2-2c1.1,0,2,0.9,2,2S13.1,19,12,19z M12,14c-1.1,0-2-0.9-2-2s0.9-2,2-2c1.1,0,2,0.9,2,2S13.1,14,12,14z
	 M12,9c-1.1,0-2-0.9-2-2c0-1.1,0.9-2,2-2c1.1,0,2,0.9,2,2C14,8.1,13.1,9,12,9z"/>
</svg>
