<?xml version="1.0" encoding="utf-8"?>
<!-- Generator: Adobe Illustrator 20.1.0, SVG Export Plug-In . SVG Version: 6.00 Build 0)  -->
<svg version="1.1" id="Capa_1" xmlns="http://www.w3.org/2000/svg" xmlns:xlink="http://www.w3.org/1999/xlink" x="0px" y="0px"
	 viewBox="0 0 36 36" style="enable-background:new 0 0 36 36;" xml:space="preserve">
<style type="text/css">
	.st0{fill:none;stroke:#253080;stroke-miterlimit:10;}
	.st1{fill:#253080;}
	.st2{fill:#253081;}
</style>
<circle class="st0" cx="18" cy="18" r="17.4"/>
<path class="st1" d="M10.9,19h2c0.3,0,0.5-0.2,0.5-0.5S13.1,18,12.9,18h-2c-0.3,0-0.5,0.2-0.5,0.5S10.6,19,10.9,19z M8.3,18.5
	c0-0.3-0.2-0.5-0.5-0.5H6.6c-0.3,0-0.5,0.2-0.5,0.5S6.3,19,6.6,19h1.2C8.1,19,8.3,18.7,8.3,18.5z M29.9,20.6l0,0.5c0,0.3,0,0.6,0,1
	c0,0.8-0.6,1.5-1.5,1.7c-0.2,1.6-1.6,2.8-3.2,2.8c-1.8,0-3.2-1.4-3.2-3.2c0-1.8,1.4-3.2,3.2-3.2c1.6,0,2.9,1.1,3.2,2.6
	c0.3-0.1,0.5-0.4,0.5-0.7c0-0.4,0-0.8,0-1l0-0.5c0-0.6,0-1.4,0-1.8c0-0.1,0-0.2,0-0.3H16.4c-1.4,0-1.9-1.2-2-1.6
	c-0.1-0.3,0-0.6,0.3-0.7c0.3-0.1,0.6,0,0.7,0.3c0.3,0.7,0.6,1,1.1,1h12.2C28.5,17,28,16.6,27,15.7c-0.2-0.2-0.4-0.4-0.7-0.6
	c-0.2-0.2-0.3-0.3-0.5-0.5c-0.3-0.2-0.5-0.5-0.8-0.7c-0.2-0.2-0.5-0.4-0.7-0.6c-2.7-2.3-3.5-2.9-5.9-2.9H9.3c-0.6,0-1.1,0.4-1.1,0.8
	v1.2c0,0.3-0.2,0.5-0.5,0.5s-0.5-0.2-0.5-0.5v-1.2c0-1,0.9-1.8,2.1-1.8h9.3c2.7,0,3.8,0.9,6.5,3.2c0.2,0.2,0.4,0.4,0.7,0.6
	c0.3,0.2,0.6,0.5,0.8,0.8c0.2,0.2,0.3,0.3,0.5,0.5c0.2,0.2,0.5,0.4,0.7,0.6c1.7,1.5,2.1,1.9,2.2,3.9C29.9,19.2,29.9,20,29.9,20.6z
	 M27.4,23.4C27.4,23.4,27.4,23.4,27.4,23.4c0-1.2-1-2.2-2.2-2.2c-1.2,0-2.2,1-2.2,2.2c0,1.2,1,2.2,2.2,2.2
	C26.4,25.6,27.4,24.6,27.4,23.4z M11.9,22.9L11.9,22.9c-0.3,0-0.5,0.2-0.5,0.5c0,0.3,0.2,0.5,0.5,0.5c0.3,0,0.5-0.2,0.5-0.5
	C12.4,23.1,12.2,22.9,11.9,22.9z M25.2,22.9L25.2,22.9c-0.3,0-0.5,0.2-0.5,0.5c0,0.3,0.2,0.5,0.5,0.5c0.3,0,0.5-0.2,0.5-0.5
	C25.7,23.1,25.5,22.9,25.2,22.9z M20.9,23.4c0,0.3-0.2,0.5-0.5,0.5h-5.4c-0.2,1.5-1.6,2.7-3.2,2.7c-1.6,0-3-1.2-3.2-2.8
	c-0.6-0.1-1.1-0.5-1.3-1c-0.1-0.2-0.2-0.5-0.2-0.7v-1.5c0-0.3,0.2-0.5,0.5-0.5s0.5,0.2,0.5,0.5v1.5c0,0.1,0,0.2,0.1,0.3
	c0.1,0.2,0.2,0.3,0.5,0.4c0.3-1.5,1.6-2.6,3.2-2.6c1.6,0,2.9,1.2,3.2,2.7h5.4C20.7,22.9,20.9,23.1,20.9,23.4z M14.1,23.4
	c0-1.2-1-2.2-2.2-2.2c-1.2,0-2.2,1-2.2,2.2c0,0,0,0,0,0c0,1.2,1,2.2,2.2,2.2C13.1,25.6,14.1,24.6,14.1,23.4z"/>
</svg>
