<?xml version="1.0" encoding="UTF-8"?>
<svg width="91px" height="82px" viewBox="0 0 91 82" version="1.1" xmlns="http://www.w3.org/2000/svg" xmlns:xlink="http://www.w3.org/1999/xlink">
    <title>Group</title>
    <g id="Page-1" stroke="none" stroke-width="1" fill="none" fill-rule="evenodd">
        <g id="19-Sin-alertas-Copy" transform="translate(-129.000000, -244.000000)">
            <g id="Group" transform="translate(130.235352, 244.000000)">
                <path d="M39.5878906,4.11914062 C57.1673177,13.5240885 57.1673177,21.0227865 39.5878906,26.6152344 C22.0084635,32.2076823 8.8125,35.9042969 3.55271368e-15,37.7050781" id="Path-2" stroke="#B7C6DF" stroke-width="1.5" stroke-linecap="round" stroke-linejoin="round"></path>
                <path d="M56.1513672,4.11914062 C69.9788411,10.514974 76.8925781,17.4023438 76.8925781,24.78125 C76.8925781,35.8496094 65.6054688,53.3818359 39.5537109,80.2646484" id="Path-3" stroke="#B7C6DF" stroke-width="1.5" stroke-linecap="round" stroke-linejoin="round"></path>
                <path d="M47.2646484,2.49902344 C57.019392,9.08341711 62.4311759,14.4935734 63.5,18.7294922 C65.5410156,26.8183594 37.328125,45.1796875 -3.55271368e-15,63.5898437" id="Path-4" stroke="#B7C6DF" stroke-width="1.5" stroke-linecap="round" stroke-linejoin="round" stroke-dasharray="4"></path>
                <path d="M13.5956629,23.1039583 L13.5956629,20.3025734 L13.8415081,20.3025734 C15.2972161,20.3025734 16.4815503,19.1218601 16.4815503,17.6706027 L16.4815503,13.9702853 C16.4815503,13.5724884 16.1580596,13.2499868 15.7590429,13.2499868 C15.3600261,13.2499868 15.0365354,13.5724884 15.0365354,13.9702853 L15.0365354,17.6706027 C15.0365354,18.3275149 14.5004349,18.8619764 13.8415081,18.8619764 L13.5956629,18.8619764 L13.5956629,10.7202985 C13.5956629,10.3225016 13.2721722,10 12.8731554,10 C12.4741386,10 12.150648,10.3225016 12.150648,10.7202985 L12.150648,15.9850082 L11.9048028,15.9850082 C11.245876,15.9850082 10.7097754,15.4505467 10.7097754,14.7936345 L10.7097754,12.0523705 C10.7097754,11.6545737 10.3862848,11.332072 9.98726797,11.332072 C9.58825119,11.332072 9.26476052,11.6545737 9.26476052,12.0523705 L9.26476052,14.7936345 C9.26476052,16.2448919 10.4490947,17.4256052 11.9048028,17.4256052 L12.150648,17.4256052 L12.150648,22.743713 C12.4289595,23.1259154 12.9106311,23.2459972 13.5956629,23.1039583 Z" id="Path" fill="#B7C6DF" fill-rule="nonzero"></path>
                <path d="M83.5956629,13.1039583 L83.5956629,10.3025734 L83.8415081,10.3025734 C85.2972161,10.3025734 86.4815503,9.1218601 86.4815503,7.6706027 L86.4815503,3.97028529 C86.4815503,3.57248844 86.1580596,3.24998679 85.7590429,3.24998679 C85.3600261,3.24998679 85.0365354,3.57248844 85.0365354,3.97028529 L85.0365354,7.6706027 C85.0365354,8.32751492 84.5004349,8.8619764 83.8415081,8.8619764 L83.5956629,8.8619764 L83.5956629,0.720298492 C83.5956629,0.322501645 83.2721722,-8.8817842e-15 82.8731554,-8.8817842e-15 C82.4741386,-8.8817842e-15 82.150648,0.322501645 82.150648,0.720298492 L82.150648,5.98500819 L81.9048028,5.98500819 C81.245876,5.98500819 80.7097754,5.45054671 80.7097754,4.79363448 L80.7097754,2.0523705 C80.7097754,1.65457366 80.3862848,1.33207201 79.987268,1.33207201 C79.5882512,1.33207201 79.2647605,1.65457366 79.2647605,2.0523705 L79.2647605,4.79363448 C79.2647605,6.24489188 80.4490947,7.42560517 81.9048028,7.42560517 L82.150648,7.42560517 L82.150648,12.743713 C82.4289595,13.1259154 82.9106311,13.2459972 83.5956629,13.1039583 Z" id="Path" fill="#B7C6DF" fill-rule="nonzero" opacity="0.962332589"></path>
                <path d="M87.7645859,46 C88.3159954,46 88.7646484,45.551472 88.7646484,44.9999375 C88.7646484,44.448528 88.3161204,44 87.7645859,44 C87.2131765,44 86.7646484,44.448528 86.7646484,44.9999375 C86.7646484,45.551472 87.2133015,46 87.7645859,46 Z" id="Path" fill="#B7C6DF" fill-rule="nonzero"></path>
                <path d="M21.7646484,73.9999375 C21.7646484,74.551347 22.2131765,75 22.7647109,75 C23.3161204,75 23.7646484,74.551472 23.7646484,73.9999375 C23.7646484,73.448528 23.3161204,73 22.7647109,73 C22.2131765,73 21.7646484,73.448528 21.7646484,73.9999375 Z" id="Path" fill="#B7C6DF" fill-rule="nonzero"></path>
                <path d="M30.7647109,15 C31.3161204,15 31.7646484,14.551472 31.7646484,14.0000625 C31.7646484,13.448653 31.3161204,13 30.7647109,13 C30.2133015,13 29.7646484,13.448528 29.7646484,14.0000625 C29.7647734,14.551347 30.2133015,15 30.7647109,15 Z" id="Path" fill="#B7C6DF" fill-rule="nonzero"></path>
            </g>
        </g>
    </g>
</svg>