<?xml version="1.0" encoding="utf-8"?>
<!-- Generator: Adobe Illustrator 20.1.0, SVG Export Plug-In . SVG Version: 6.00 Build 0)  -->
<svg version="1.1" id="Capa_1" xmlns="http://www.w3.org/2000/svg" xmlns:xlink="http://www.w3.org/1999/xlink" x="0px" y="0px"
	 viewBox="0 0 130 130" style="enable-background:new 0 0 130 130;" xml:space="preserve">
<style type="text/css">
	.st0{fill:#FFFFFF;}
	.st1{fill:#F3F7FE;}
	.st2{fill:#EDF3FE;}
	.st3{fill:#E6F0FF;}
	.st4{opacity:5.000000e-02;fill:#4080F8;}
	.st5{fill:#4080F8;}
	.st6{fill:#FBBC0C;}
	.st7{fill:#253080;}
	.st8{fill:#1E3580;}
	.st9{fill:#E9B92F;}
	.st10{fill:#212121;}
	.st11{fill:#757575;}
	.st12{clip-path:url(#SVGID_2_);}
	.st13{clip-path:url(#SVGID_4_);}
	.st14{clip-path:url(#SVGID_6_);}
	.st15{clip-path:url(#SVGID_8_);}
	.st16{clip-path:url(#SVGID_10_);}
	.st17{clip-path:url(#SVGID_10_);fill:#1E3580;}
	.st18{clip-path:url(#SVGID_12_);}
	.st19{clip-path:url(#SVGID_12_);fill:#1E3580;}
	.st20{clip-path:url(#SVGID_14_);}
	.st21{clip-path:url(#SVGID_14_);fill:#1E3580;}
	.st22{clip-path:url(#SVGID_16_);}
	.st23{clip-path:url(#SVGID_18_);}
	.st24{clip-path:url(#SVGID_18_);fill:#1E3580;}
	.st25{clip-path:url(#SVGID_20_);}
	.st26{clip-path:url(#SVGID_20_);fill:#1E3580;}
	.st27{clip-path:url(#SVGID_22_);}
	.st28{clip-path:url(#SVGID_24_);}
	.st29{clip-path:url(#SVGID_26_);}
	.st30{clip-path:url(#SVGID_28_);}
	.st31{clip-path:url(#SVGID_30_);}
	.st32{fill:#E4B02C;}
	.st33{fill:#49518D;}
	.st34{fill:#D4D6E4;}
	.st35{fill:#2A3980;}
	.st36{fill:none;stroke:#FFFFFF;stroke-miterlimit:10;}
	.st37{fill:none;stroke:#2A3980;stroke-width:2;stroke-miterlimit:10;}
	.st38{fill:#FAFAFA;}
	.st39{fill:#4C5597;}
	.st40{opacity:0.51;fill:#4C5597;}
	.st41{opacity:0.58;fill:#4C5597;}
	.st42{fill:#D7D9E8;}
	.st43{opacity:0.58;fill:#D7D9E8;}
	.st44{fill:#F28D00;}
	.st45{opacity:0.55;fill:#F28D00;}
	.st46{opacity:0.46;fill:#FBBC0C;}
	.st47{fill:none;stroke:#211915;stroke-width:3;stroke-linecap:round;stroke-linejoin:round;stroke-miterlimit:10;}
	.st48{fill:none;stroke:#211915;stroke-width:3;stroke-miterlimit:10;}
	.st49{fill:#211915;}
	.st50{fill:#253081;}
	.st51{fill:none;stroke:#211915;stroke-width:2;stroke-linecap:round;stroke-linejoin:round;stroke-miterlimit:10;}
	.st52{fill:#BBE7F8;}
	.st53{fill:none;stroke:#211915;stroke-width:4;stroke-linecap:round;stroke-linejoin:round;stroke-miterlimit:10;}
	.st54{fill:#FFFFFF;stroke:#211915;stroke-width:4;stroke-linecap:round;stroke-miterlimit:10;}
	.st55{fill:#FFFFFF;stroke:#211915;stroke-width:4;stroke-miterlimit:10;}
	.st56{fill:none;stroke:#211915;stroke-width:4;stroke-miterlimit:10;}
	.st57{fill:#FFFFFF;stroke:#211915;stroke-width:4;stroke-linecap:round;stroke-linejoin:round;stroke-miterlimit:10;}
	.st58{fill:none;}
	.st59{fill:#FF262D;}
	.st60{fill:#F8DFB1;}
	.st61{opacity:0.47;fill:#F8DFB1;}
	.st62{fill:#FF9525;}
	.st63{fill:#CB1B28;}
	.st64{fill:#4B62E8;}
	.st65{opacity:0.5;fill:#4B62E8;}
	.st66{opacity:0.29;fill:#FF9525;}
	.st67{fill:#FFC17F;}
	.st68{fill:#8398F8;}
	.st69{opacity:0.46;fill:#8398F8;}
	.st70{fill:#FF6427;}
	.st71{opacity:0.42;fill:#FF6427;}
	.st72{fill:#52364F;}
	.st73{opacity:0.44;fill:#4B62E8;}
	.st74{fill:#E9E9E9;}
	.st75{fill:#BC9B69;}
</style>
<g>
	<circle class="st1" cx="65" cy="65" r="50"/>
	<path class="st2" d="M31.7,65c0-19.2,15-35,34-36.1c-0.7,0-1.5-0.1-2.2-0.1c-20,0-36.2,16.2-36.2,36.2s16.2,36.2,36.2,36.2
		c0.7,0,1.5,0,2.2-0.1C46.7,99.9,31.7,84.2,31.7,65z"/>
	<path class="st2" d="M67.9,28.8c-0.7,0-1.5,0-2.2,0.1c19,1.1,34,16.9,34,36.1s-15,35-34,36.1c0.7,0,1.5,0.1,2.2,0.1
		c20,0,36.2-16.2,36.2-36.2S87.9,28.8,67.9,28.8z"/>
	<path class="st3" d="M99.6,65c0-19.2-15-35-34-36.1c-19,1.1-34,16.9-34,36.1s15,35,34,36.1C84.6,99.9,99.6,84.2,99.6,65z"/>
</g>
<g>
	<defs>
		<circle id="SVGID_25_" cx="67.8" cy="65" r="36.3"/>
	</defs>
	<clipPath id="SVGID_2_">
		<use xlink:href="#SVGID_25_"  style="overflow:visible;"/>
	</clipPath>
	<g class="st12">
		<g>
			<path class="st8" d="M66.9,75.9H54.1c-0.4,0-0.7,0.3-0.7,0.7c0,0.4,0.3,0.7,0.7,0.7h12.8c0.4,0,0.6-0.3,0.6-0.7
				C67.5,76.2,67.2,75.9,66.9,75.9z"/>
			<path class="st8" d="M111.7,75.9H77c-0.4,0-0.7,0.3-0.7,0.7c0,0.4,0.3,0.7,0.7,0.7h34.7c0.4,0,0.7-0.3,0.7-0.7
				C112.4,76.2,112.1,75.9,111.7,75.9z"/>
		</g>
	</g>
</g>
<path class="st8" d="M61.5,57.8h-0.2v-0.7c0-1.2-0.9-2.1-2.1-2.1c-1.2,0-2.1,0.9-2.1,2.1v1.6h-0.2c-0.4,0-0.7,0.3-0.7,0.7
	c0,0.4,0.3,0.7,0.7,0.7h0.2v0.7c0,0.4-0.3,0.7-0.7,0.7h-1.6V51.3H55c0.4,0,0.7-0.3,0.7-0.7c0-0.4-0.3-0.7-0.7-0.7h-0.2v-1.4H55
	c0.4,0,0.7-0.3,0.7-0.7s-0.3-0.7-0.7-0.7h-0.2V45c0-1.2-0.9-2.1-2.1-2.1c-1.2,0-2.1,0.9-2.1,2.1v3.5h-0.2c-0.4,0-0.7,0.3-0.7,0.7
	s0.3,0.7,0.7,0.7h0.2v6H49c-0.4,0-0.7-0.3-0.7-0.7v-3.7c0-1.2-0.9-2.1-2.1-2.1c-1.2,0-2.1,0.9-2.1,2.1v0.7h-0.2
	c-0.4,0-0.7,0.3-0.7,0.7c0,0.4,0.3,0.7,0.7,0.7h0.2v1.6c0,2.7,2.2,4.9,4.9,4.9h1.6v8.8h-0.2c-0.4,0-0.7,0.3-0.7,0.7
	c0,0.4,0.3,0.7,0.7,0.7h0.2v1.4h-0.2c-0.4,0-0.7,0.3-0.7,0.7s0.3,0.7,0.7,0.7h0.2v4c0,0,0,0,0,0v1.4c0.3-0.1,0.6-0.1,0.9-0.2
	c0.3-0.1,0.5-0.4,0.5-0.7V59.4c0-0.4-0.3-0.7-0.7-0.7H49c-1.9,0-3.5-1.6-3.5-3.5v-3.7c0-0.4,0.3-0.7,0.7-0.7s0.7,0.3,0.7,0.7v3.7
	c0,1.2,0.9,2.1,2.1,2.1h2.3c0.4,0,0.7-0.3,0.7-0.7V45c0-0.4,0.3-0.7,0.7-0.7c0.4,0,0.7,0.3,0.7,0.7v17.2c0,0.4,0.3,0.7,0.7,0.7h2.3
	c1.2,0,2.1-0.9,2.1-2.1v-3.7c0-0.4,0.3-0.7,0.7-0.7c0.4,0,0.7,0.3,0.7,0.7v3.7c0,1.9-1.6,3.5-3.5,3.5h-2.3c-0.4,0-0.7,0.3-0.7,0.7
	v11.5c0,0.2,0.1,0.5,0.3,0.6c0.2,0.1,0.5,0.1,0.7,0c0.1-0.1,0.3-0.1,0.4-0.2v-1.6c0,0,0,0,0,0v-9.7h1.6c2.7,0,4.9-2.2,4.9-4.9v-1.6
	h0.2c0.4,0,0.7-0.3,0.7-0.7C62.2,58.1,61.9,57.8,61.5,57.8z"/>
<path class="st6" d="M66,25c-3.9,0-7,3.1-7,7c0,5.2,7,13,7,13s7-7.8,7-13C73,28.1,69.9,25,66,25z M66,34.5c-1.4,0-2.5-1.1-2.5-2.5
	s1.1-2.5,2.5-2.5s2.5,1.1,2.5,2.5S67.4,34.5,66,34.5z"/>
<path class="st58" d="M54,22h24v24H54V22z"/>
</svg>
