<?xml version="1.0" encoding="UTF-8"?>
<svg width="22px" height="20px" viewBox="0 0 22 20" version="1.1" xmlns="http://www.w3.org/2000/svg" xmlns:xlink="http://www.w3.org/1999/xlink">
    <!-- Generator: Sketch 57.1 (83088) - https://sketch.com -->
    <title>Rectangle Copy 2</title>
    <desc>Created with Sketch.</desc>
    <g id="Page-1" stroke="none" stroke-width="1" fill="none" fill-rule="evenodd">
        <g id="Artboard" transform="translate(-138.000000, -68.000000)">
            <path d="M155.496911,74.6312946 L155.496911,80.5148804 C155.496911,81.552012 154.627096,82.4005742 153.563989,82.4005742 C152.500883,82.4005742 151.631068,81.552012 151.631068,80.5148804 L151.631068,73.9149519 C151.631068,71.8312603 149.901103,70.1435643 147.765225,70.1435643 C145.629347,70.1435643 143.899382,71.8312603 143.899382,73.9149519 L143.899382,80.5148804 L141,80.5148804 L144.865843,84.286268 L148.731686,80.5148804 L145.832304,80.5148804 L145.832304,73.9149519 C145.832304,72.8778203 146.702118,72.0292581 147.765225,72.0292581 C148.828332,72.0292581 149.698147,72.8778203 149.698147,73.9149519 L149.698147,80.5148804 C149.698147,82.598572 151.428111,84.286268 153.563989,84.286268 C155.699868,84.286268 157.429832,82.598572 157.429832,80.5148804 L157.429832,74.6312946 C157.107679,74.8257261 156.785525,74.9229418 156.463372,74.9229418 C156.141218,74.9229418 155.819064,74.8257261 155.496911,74.6312946 Z" id="path-1" fill="#757575" transform="translate(149.214916, 77.214916) scale(1, -1) rotate(-90.000000) translate(-149.214916, -77.214916) "></path>
            <ellipse id="Oval" fill="#757575" cx="143.941748" cy="84.187644" rx="1.94174757" ry="1.88998926"></ellipse>
            <rect id="Rectangle-Copy-2" x="138" y="68" width="21.7391304" height="20"></rect>
        </g>
    </g>
</svg>