<?xml version="1.0" encoding="UTF-8"?>
<svg width="20px" height="19px" viewBox="0 0 20 19" version="1.1" xmlns="http://www.w3.org/2000/svg" xmlns:xlink="http://www.w3.org/1999/xlink">
    <!-- Generator: Sketch 57.1 (83088) - https://sketch.com -->
    <title>Rectangle Copy</title>
    <desc>Created with Sketch.</desc>
    <g id="Page-1" stroke="none" stroke-width="1" fill="none" fill-rule="evenodd">
        <g id="Artboard" transform="translate(-107.000000, -69.000000)">
            <path d="M118.484103,72.8051282 L123.538462,72.8051282 L123.538462,81.8307692 L117.220513,81.8307692 L116.859487,80.025641 L111.805128,80.025641 L111.805128,86.3435897 L110,86.3435897 L110,71 L118.123077,71 L118.484103,72.8051282 L118.484103,72.8051282 Z M118.123077,80.025641 L119.928205,80.025641 L119.928205,78.2205128 L121.733333,78.2205128 L121.733333,76.4153846 L119.928205,76.4153846 L119.928205,74.6102564 L118.123077,74.6102564 L118.123077,76.4153846 L117.220513,74.6102564 L117.220513,72.8051282 L115.415385,72.8051282 L115.415385,74.6102564 L113.610256,74.6102564 L113.610256,72.8051282 L111.805128,72.8051282 L111.805128,74.6102564 L113.610256,74.6102564 L113.610256,76.4153846 L111.805128,76.4153846 L111.805128,78.2205128 L113.610256,78.2205128 L113.610256,76.4153846 L115.415385,76.4153846 L115.415385,78.2205128 L117.220513,78.2205128 L117.220513,76.4153846 L118.123077,78.2205128 L118.123077,80.025641 L118.123077,80.025641 Z M115.415385,76.4153846 L115.415385,74.6102564 L117.220513,74.6102564 L117.220513,76.4153846 L115.415385,76.4153846 L115.415385,76.4153846 Z M118.123077,76.4153846 L119.928205,76.4153846 L119.928205,78.2205128 L118.123077,78.2205128 L118.123077,76.4153846 Z" id="Shape" fill="#9E9E9E" fill-rule="nonzero"></path>
            <rect id="Rectangle-Copy" x="107" y="69" width="20" height="18.4"></rect>
        </g>
    </g>
</svg>