<?xml version="1.0" encoding="utf-8"?>
<!-- Generator: Adobe Illustrator 20.0.0, SVG Export Plug-In . SVG Version: 6.00 Build 0)  -->
<svg version="1.1" id="Capa_1" xmlns="http://www.w3.org/2000/svg" xmlns:xlink="http://www.w3.org/1999/xlink" x="0px" y="0px"
	 viewBox="0 0 46 46" style="enable-background:new 0 0 46 46;" xml:space="preserve">
<style type="text/css">
	.st0{fill:#FBBC0C;}
	.st1{fill:#253081;}
	.st2{fill:#F28D00;}
	.st3{fill:#FFFFFF;}
</style>
<g>
	<path class="st0" d="M34.7,34.7L11,42.6c-5.6-3.4-9.7-9.2-10.8-15.9L34.7,34.7z"/>
	<path class="st1" d="M0,23C0,10.3,10.3,0,23,0s23,10.3,23,23c0,2.9-0.6,5.8-1.6,8.4l-9.8,3.3l-34.4-8C0.1,25.5,0,24.3,0,23z"/>
	<path class="st2" d="M44.4,31.4C41,39.9,32.8,46,23,46c-4.4,0-8.5-1.3-12-3.4L44.4,31.4z"/>
	<circle class="st3" cx="16" cy="16" r="16"/>
	<polygon class="st1" points="15.5,2.3 14.4,17.3 24.7,20 17,15 	"/>
</g>
</svg>
