<?xml version="1.0" encoding="UTF-8"?>
<svg width="24px" height="24px" viewBox="0 0 24 24" version="1.1" xmlns="http://www.w3.org/2000/svg" xmlns:xlink="http://www.w3.org/1999/xlink">
    <title>signal-off@1.5x</title>
    <g id="Page-1" stroke="none" stroke-width="1" fill="none" fill-rule="evenodd">
        <g id="2-menu-layers" transform="translate(-1107.000000, -155.000000)">
            <g id="Group" transform="translate(1082.000000, 75.000000)">
                <g id="signal-off" transform="translate(25.000000, 80.000000)">
                    <polygon id="Path" points="0 0 24 0 24 24 0 24"></polygon>
                    <path d="M16,3.18 L16,14.5842027 L19,17.5059814 L19,3 L16,3 M5,8.27 L11,14.27 L11,19 L14,19 L14,17.27 L17.73,21 L19,19.72 L6.28,7 L5,8.27 Z M6,13 L9,13 L9,19 L6,19 L6,13 Z M11,9.18 L14,12.18 L14,8 L11,8 L11,9.18 Z" id="Shape" fill="#757575" fill-rule="nonzero"></path>
                </g>
            </g>
        </g>
    </g>
</svg>