<?xml version="1.0" encoding="utf-8"?>
<!-- Generator: Adobe Illustrator 20.1.0, SVG Export Plug-In . SVG Version: 6.00 Build 0)  -->
<svg width="48" height="48" version="1.1" id="Capa_1" xmlns="http://www.w3.org/2000/svg" xmlns:xlink="http://www.w3.org/1999/xlink" x="0px" y="0px"
	 viewBox="0 0 37.5 37.5" style="enable-background:new 0 0 37.5 37.5;" xml:space="preserve">
<style type="text/css">
	.st0{fill:none;}
	.st1{fill:#388E3C;}
	.st2{fill:#F57C00;}
	.st3{fill:#9E9E9E;}
	.st4{fill:#B71C1C;}
	.st5{opacity:0.2;fill:#9E9E9E;}
	.st6{fill:#757575;}
	.st7{fill:#FFFFFF;}
	.st8{opacity:0.2;fill:#FFA726;}
	.st9{opacity:0.2;fill:#D32F2F;}
	.st10{opacity:0.4;fill:#8BC34A;}
	.st11{fill:#211915;}
	.st12{fill:#253080;}
	.st13{fill:#FBBC0C;}
	.st14{fill:#253081;}
	.st15{opacity:0.2;fill:#8BC34A;}
</style>
<g>
	<circle class="st9" cx="18.8" cy="18.8" r="17"/>
	<circle class="st4" cx="18.8" cy="18.8" r="11.1"/>
	<path class="st7" d="M19.4,13.1h-1.3v6.3h1.3V13.1z M22.4,14.4l-0.9,0.9c1,0.8,1.6,2,1.6,3.4c0,2.4-2,4.4-4.4,4.4s-4.4-2-4.4-4.4
		c0-1.4,0.6-2.6,1.6-3.4l-0.9-0.9c-1.2,1-2,2.6-2,4.3c0,3.1,2.5,5.7,5.7,5.7s5.7-2.5,5.7-5.7C24.4,17,23.6,15.5,22.4,14.4z"/>
</g>
</svg>
