<?xml version="1.0" encoding="UTF-8"?>
<svg width="36px" height="36px" viewBox="0 0 36 36" version="1.1" xmlns="http://www.w3.org/2000/svg" xmlns:xlink="http://www.w3.org/1999/xlink">
    <title>ic_directions_car_ie_36px-01.svg</title>
    <g id="ic_directions_car_ie_36px-01.svg" stroke="none" stroke-width="1" fill="none" fill-rule="evenodd">
        <g id="directions_car-24px">
            <polygon id="Path" points="0 0 36 0 36 36 0 36"></polygon>
            <g id="Group" transform="translate(6.171429, 5.142857)" fill="#4080F8" fill-rule="nonzero">
                <path d="M6.17142857,7.71428571 C5.32285714,7.71428571 4.62857143,7.02 4.62857143,6.17142857 C4.62857143,5.32285714 5.32285714,4.62857143 6.17142857,4.62857143 C7.02,4.62857143 7.71428571,5.32285714 7.71428571,6.17142857 C7.71428571,7.02 7.02,7.71428571 6.17142857,7.71428571 Z M10.8,6.32571429 C10.8,3.52542857 8.75571429,1.54285714 6.17142857,1.54285714 C3.58714286,1.54285714 1.54285714,3.52542857 1.54285714,6.32571429 C1.54285714,8.13085714 3.04714286,10.5222857 6.17142857,13.3765714 C9.29571429,10.5222857 10.8,8.13085714 10.8,6.32571429 Z M6.17142857,0 C9.41142857,0 12.3428571,2.484 12.3428571,6.32571429 C12.3428571,8.88685714 10.2831429,11.9185714 6.17142857,15.4285714 C2.05971429,11.9185714 0,8.88685714 0,6.32571429 C0,2.484 2.93142857,0 6.17142857,0 Z" id="Shape"></path>
                <path d="M22.3885714,12.8657143 C22.2171429,12.36 21.7371429,12 21.1714286,12 L11.7428571,12 C11.1771429,12 10.7057143,12.36 10.5257143,12.8657143 L8.74285714,18 L8.74285714,24.8571429 C8.74285714,25.3285714 9.12857143,25.7142857 9.6,25.7142857 L10.4571429,25.7142857 C10.9285714,25.7142857 11.3142857,25.3285714 11.3142857,24.8571429 L11.3142857,24 L21.6,24 L21.6,24.8571429 C21.6,25.3285714 21.9857143,25.7142857 22.4571429,25.7142857 L23.3142857,25.7142857 C23.7857143,25.7142857 24.1714286,25.3285714 24.1714286,24.8571429 L24.1714286,18 L22.3885714,12.8657143 Z M12.0428571,13.7142857 L20.8628571,13.7142857 L21.7885714,16.38 L11.1171429,16.38 L12.0428571,13.7142857 Z M22.4571429,22.2857143 L10.4571429,22.2857143 L10.4571429,18 L22.4571429,18 L22.4571429,22.2857143 Z" id="Shape"></path>
                <circle id="Oval" cx="12.6" cy="20.1428571" r="1.28571429"></circle>
                <circle id="Oval" cx="20.3142857" cy="20.1428571" r="1.28571429"></circle>
            </g>
        </g>
    </g>
</svg>