<svg id="Capa_1" data-name="Capa 1" xmlns="http://www.w3.org/2000/svg" width="18" height="18" viewBox="0 0 18 18">
  <title>icono_sin_senal</title>
  <g>
    <path d="M0,0H18V18H0Z" fill="none"/>
    <g>
      <path d="M5.94,3.75l1.8,1.8a9.52,9.52,0,0,1,8,2.7l1.5-1.5A11.65,11.65,0,0,0,5.94,3.75Z" fill="#bdbdbd"/>
      <path d="M14.25,9.75A7.38,7.38,0,0,0,9.82,7.63L13.1,10.9Z" fill="#bdbdbd"/>
      <path d="M8,7.66,6.18,5.88,4.52,4.23,2.06,1.77l-1,1L3.25,4.86A11.6,11.6,0,0,0,.75,6.75l1.5,1.5A9.46,9.46,0,0,1,4.82,6.43L6.43,8a7.35,7.35,0,0,0-2.68,1.7l1.5,1.5A5.26,5.26,0,0,1,8.16,9.77l2.55,2.55a3.18,3.18,0,0,0-4,.43L9,15l2.19-2.19L14,15.66l1-1L10.11,9.82Z" fill="#bdbdbd"/>
    </g>
  </g>
</svg>
