<?xml version="1.0" encoding="utf-8"?>
<!-- Generator: Adobe Illustrator 20.1.0, SVG Export Plug-In . SVG Version: 6.00 Build 0)  -->
<svg version="1.1" id="Capa_1" xmlns="http://www.w3.org/2000/svg" xmlns:xlink="http://www.w3.org/1999/xlink" x="0px" y="0px"
	 viewBox="0 0 36 36" style="enable-background:new 0 0 36 36;" xml:space="preserve">
<style type="text/css">
	.st0{fill:#D7D9E8;}
	.st1{fill:#FFFFFF;}
	.st2{fill:none;stroke:#253081;stroke-width:1.25;stroke-linecap:round;stroke-linejoin:round;stroke-miterlimit:10;}
	.st3{fill:#2A3980;}
	.st4{fill:#253081;}
	.st5{fill:none;}
	.st6{fill:#F3F7FE;}
	.st7{fill:#EDF3FE;}
	.st8{fill:#E6F0FF;}
	.st9{fill:#4080F8;}
	.st10{fill:#FBBC0C;}
	.st11{fill:#1E3580;}
	.st12{fill:#253080;}
</style>
<rect class="st5" width="36" height="36"/>
<g>
	<circle class="st6" cx="18" cy="18" r="17.7"/>
	<path class="st7" d="M6.2,18c0-6.8,5.3-12.4,12-12.8c-0.3,0-0.5,0-0.8,0C10.4,5.2,4.6,10.9,4.6,18s5.7,12.8,12.8,12.8
		c0.3,0,0.5,0,0.8,0C11.5,30.4,6.2,24.8,6.2,18z"/>
	<path class="st7" d="M19,5.2c-0.3,0-0.5,0-0.8,0c6.7,0.4,12,6,12,12.8s-5.3,12.4-12,12.8c0.3,0,0.5,0,0.8,0
		c7.1,0,12.8-5.7,12.8-12.8S26.1,5.2,19,5.2z"/>
	<path class="st8" d="M30.2,18c0-6.8-5.3-12.4-12-12.8c-6.7,0.4-12,6-12,12.8s5.3,12.4,12,12.8C24.9,30.4,30.2,24.8,30.2,18z"/>
</g>
<g>
	<g>
		<path class="st12" d="M17.4,9c-2.6,0-4.7,2.1-4.7,4.7c0,3.5,4.7,8.7,4.7,8.7s4.7-5.2,4.7-8.7C22,11.1,19.9,9,17.4,9z M17.4,15.5
			c-0.9,0-1.7-0.7-1.7-1.7s0.7-1.7,1.7-1.7s1.7,0.7,1.7,1.7S18.3,15.5,17.4,15.5z"/>
	</g>
	<path class="st12" d="M31.8,19.5c-0.2-0.4-0.6-0.8-1.1-0.8h-8.2c-0.5,0-0.9,0.3-1.1,0.8L19.8,24v6c0,0.4,0.3,0.8,0.8,0.8h0.8
		c0.4,0,0.8-0.3,0.8-0.8v-0.8h9V30c0,0.4,0.3,0.8,0.8,0.8h0.8c0.4,0,0.8-0.3,0.8-0.8v-6L31.8,19.5z M22.5,27c-0.6,0-1.1-0.5-1.1-1.1
		s0.5-1.1,1.1-1.1s1.1,0.5,1.1,1.1S23.1,27,22.5,27z M30.8,27c-0.6,0-1.1-0.5-1.1-1.1s0.5-1.1,1.1-1.1s1.1,0.5,1.1,1.1
		S31.4,27,30.8,27z M21.4,23.1l1.1-3.4h8.2l1.1,3.4H21.4z"/>
</g>
</svg>
