<?xml version="1.0" encoding="UTF-8"?>
<svg width="16px" height="17px" viewBox="0 0 16 17" version="1.1" xmlns="http://www.w3.org/2000/svg" xmlns:xlink="http://www.w3.org/1999/xlink">
    <title>ic_live</title>
    <g id="Page-1" stroke="none" stroke-width="1" fill="none" fill-rule="evenodd">
        <g id="Artboard" transform="translate(-529.000000, -577.000000)" stroke="#3F7BFC">
            <g id="ic_live" transform="translate(530.000000, 578.000000)">
                <g id="Group" transform="translate(1.425339, 9.977464)" fill="#3F7BFC" fill-rule="nonzero" stroke-width="0.1">
                    <g id="Group-3">
                        <polygon id="Path-Copy" points="0.680058671 2.78677605 0.680058671 -1.2361982e-17 0 -1.2361982e-17 0 3.56309873 1.59282492 3.56309873 1.59282492 2.78677605"></polygon>
                        <polygon id="Path-Copy-2" points="2.86698424 1.63716797e-15 2.86698424 3.56334842 3.54704291 3.56334842 3.54704291 1.38743048e-17"></polygon>
                        <path d="M6.71707854,0 L6.20296128,2.03739462 L5.68875545,0 L4.98868778,0 L5.87745403,3.56239503 L6.52820288,3.56334842 L7.44694245,0 L6.71707854,0 Z" id="Path-Copy-3"></path>
                        <polygon id="Path-Copy-4" points="10.4260052 0.696911014 10.4260052 0 8.89206553 0 8.5520362 0 8.5520362 3.19862191 8.5520362 3.54707742 10.3802252 3.54707742 10.3802252 2.85016641 9.23209487 2.85016641 9.23209487 1.94254871 10.1970167 1.94254871 10.1970167 1.2456377 9.23209487 1.2456377 9.23209487 0.696911014"></polygon>
                    </g>
                </g>
                <rect id="Rectangle" x="0" y="8.5520362" width="13.540724" height="6.4479638"></rect>
                <g id="Shape" transform="translate(1.425339, 0.000000)" fill="#3F7BFC" fill-rule="nonzero" stroke-width="0.1">
                    <path d="M2.90309574,5.70034945 C2.35372519,5.156019 2.01603871,4.40000448 2.01603871,3.56334842 C2.01603871,2.72669235 2.35372519,1.97067784 2.90309574,1.42634739 L3.61878948,2.14204113 C3.25086242,2.50492809 3.02405806,3.00893777 3.02405806,3.56334842 C3.02405806,4.11775906 3.25086242,4.62176874 3.61374938,4.9896958 L2.90309574,5.70034945 Z M7.1770978,5.70034945 C7.72646835,5.156019 8.06415483,4.40000448 8.06415483,3.56334842 C8.06415483,2.72669235 7.72646835,1.97067784 7.1770978,1.42634739 L6.46140406,2.14204113 C6.82933112,2.50492809 7.05613548,3.00893777 7.05613548,3.56334842 C7.05613548,4.11775906 6.82933112,4.62176874 6.46644416,4.9896958 L7.1770978,5.70034945 Z M5.04009677,2.55532906 C4.48568613,2.55532906 4.03207742,3.00893777 4.03207742,3.56334842 C4.03207742,4.11775906 4.48568613,4.57136777 5.04009677,4.57136777 C5.59450741,4.57136777 6.04811612,4.11775906 6.04811612,3.56334842 C6.04811612,3.00893777 5.59450741,2.55532906 5.04009677,2.55532906 Z M9.07217419,3.56334842 C9.07217419,4.6772098 8.61856548,5.68522916 7.88775144,6.41100309 L8.60344519,7.12669683 C9.5157027,6.21443932 10.0801935,4.95441512 10.0801935,3.56334842 C10.0801935,2.17228171 9.5157027,0.912257515 8.60344519,0 L7.88775144,0.715693741 C8.61856548,1.44146768 9.07217419,2.44948703 9.07217419,3.56334842 Z M2.19244209,0.715693741 L1.47674835,0 C0.564490838,0.912257515 0,2.17228171 0,3.56334842 C0,4.95441512 0.564490838,6.21443932 1.47674835,7.12669683 L2.19244209,6.41100309 C1.46162806,5.68522916 1.00801935,4.6772098 1.00801935,3.56334842 C1.00801935,2.44948703 1.46162806,1.44146768 2.19244209,0.715693741 Z"></path>
                </g>
            </g>
        </g>
    </g>
</svg>