<?xml version="1.0" encoding="UTF-8"?>
<svg width="24px" height="24px" viewBox="0 0 24 24" version="1.1" xmlns="http://www.w3.org/2000/svg" xmlns:xlink="http://www.w3.org/1999/xlink">
    <title>nearest_vehicles</title>
    <g id="nearest_vehicles" stroke="none" stroke-width="1" fill="none" fill-rule="evenodd">
        <g>
            <polygon id="Path" points="0 0 24 0 24 24 0 24"></polygon>
            <path d="M20,16 C19.45,16 19,15.55 19,15 C19,14.45 19.45,14 20,14 C20.55,14 21,14.45 21,15 C21,15.55 20.55,16 20,16 L20,16 Z M12,16 C11.45,16 11,15.55 11,15 C11,14.45 11.45,14 12,14 C12.55,14 13,14.45 13,15 C13,15.55 12.55,16 12,16 L12,16 Z M12.41,10 L19.6,10 L20.63,13 L11.38,13 L12.41,10 Z M20.57,9.66 C20.43,9.26 20.05,9 19.6,9 L12.41,9 C11.95,9 11.58,9.26 11.43,9.66 L10.01,13.77 L10.01,19.28 C10.01,19.66 10.32,20 10.7,20 L11.32,20 C11.7,20 12,19.62 12,19.24 L12,18 L20,18 L20,19.24 C20,19.62 20.31,20 20.69,20 L21.3,20 C21.68,20 21.99,19.66 21.99,19.28 L22,17.91 L22,13.77 L20.57,9.66 Z" id="Fill-1" fill="#757575"></path>
            <path d="M8.4238,17.8682 C5.1778,14.9032 3.6148,12.4182 3.6148,10.5432 C3.6148,7.6342 5.7388,5.5742 8.4238,5.5742 C10.2288,5.5742 11.7618,6.5182 12.5848,8.0132 L14.3718,8.0132 C13.3998,5.4982 11.0088,3.9712 8.4238,3.9712 C5.0578,3.9712 2.0118,6.5522 2.0118,10.5432 C2.0118,13.2042 4.1518,16.3532 8.4238,20.0002 C8.6298,19.8242 8.8068,19.6552 9.0028,19.4812 L9.0028,17.3142 C8.8098,17.4992 8.6298,17.6802 8.4238,17.8682" id="Fill-3" fill="#757575"></path>
            <path d="M8.4238,8.7798 C7.5418,8.7798 6.8208,9.5008 6.8208,10.3828 C6.8208,11.2648 7.5418,11.9858 8.4238,11.9858 C9.3048,11.9858 10.0268,11.2648 10.0268,10.3828 C10.0268,9.5008 9.3048,8.7798 8.4238,8.7798" id="Fill-5" fill="#757575"></path>
        </g>
    </g>
</svg>