<?xml version="1.0" encoding="utf-8"?>
<!-- Generator: Adobe Illustrator 20.1.0, SVG Export Plug-In . SVG Version: 6.00 Build 0)  -->
<svg version="1.1" id="Capa_1" xmlns="http://www.w3.org/2000/svg" xmlns:xlink="http://www.w3.org/1999/xlink" x="0px" y="0px"
	 viewBox="0 0 100 100" style="enable-background:new 0 0 100 100;" xml:space="preserve">
<style type="text/css">
	.st0{fill:#F8F8F8;stroke:#DDDDDD;stroke-miterlimit:10;}
	.st1{fill:#4080F8;}
	.st2{fill:#FFFFFF;}
	.st3{fill:#253081;}
</style>
<circle class="st0" cx="50" cy="51.4" r="45"/>
<path class="st1" d="M81,7c-7.3,0-13.2,5.9-13.2,13.2c0,2.8,0.9,5.4,2.4,7.6V32h4.9c1.8,0.9,3.8,1.4,5.9,1.4
	c7.3,0,13.2-5.9,13.2-13.2S88.3,7,81,7z"/>
<g>
	<path id="Path_222" class="st2" d="M76.8,20.2c0,0.7-0.6,1.2-1.2,1.2c-0.7,0-1.2-0.6-1.2-1.2S75,19,75.6,19c0.3,0,0.7,0.2,0.8,0.3
		C76.7,19.6,76.8,19.9,76.8,20.2z"/>
	<path id="Path_223" class="st2" d="M82.3,20.2c0,0.7-0.6,1.2-1.2,1.2c-0.7,0-1.2-0.6-1.2-1.2s0.6-1.2,1.2-1.2S82.3,19.6,82.3,20.2
		L82.3,20.2z"/>
	<path id="Path_224" class="st2" d="M87.6,20.2c0,0.7-0.6,1.2-1.2,1.2c-0.7,0-1.2-0.6-1.2-1.2s0.5-1.2,1.2-1.2
		C87.1,19,87.6,19.6,87.6,20.2L87.6,20.2z"/>
</g>
<g>
	<g>
		<g>
			<g>
				<path class="st3" d="M59.5,54.4c-0.4-0.5-1-0.8-1.6-0.9l-0.3-4.1c0.3,0,0.6-0.2,0.6-0.5l0.1-0.7c0.1-0.7,0-1.4-0.5-1.9
					c-0.4-0.5-1.1-0.8-1.8-0.8h-4.5l0.2-1.3c0.1-0.4,0-0.7-0.2-1s-0.5-0.4-0.9-0.4H28.2c-0.7,0-1.3,0.5-1.4,1.2l-2,11.2
					c-0.1,0.3,0.2,0.7,0.5,0.7h0.1c0.3,0,0.6-0.2,0.6-0.5l2-11.2c0-0.1,0.1-0.1,0.2-0.1h22.3l-2,11.2C48.4,55.6,48.7,56,49,56
					c0.3,0.1,0.7-0.2,0.7-0.5l0.1-0.8h7.4l0,0l0,0c0.5,0,1,0.2,1.2,0.5c0.2,0.2,0.3,0.5,0.3,0.9h-2.1c-0.3,0-0.6,0.2-0.6,0.5l0,1.3
					c-0.1,0.5,0,1.1,0.4,1.4c0.3,0.4,0.8,0.6,1.3,0.6h0.6l-0.5,2.7h-1.6c-0.1-0.5-0.3-1-0.7-1.5c-0.6-0.8-1.6-1.2-2.6-1.2
					c-1.7,0-3.3,1.1-4.1,2.6h-0.2l0.8-4.6c0.1-0.3-0.2-0.7-0.5-0.7c-0.3-0.1-0.7,0.2-0.7,0.5l-0.8,4.8H35.8c-0.1-0.5-0.3-1-0.7-1.5
					c-0.6-0.8-1.6-1.2-2.6-1.2c-1.7,0-3.3,1.1-4.1,2.6h-3.6L25,61h2.8c0.3,0,0.6-0.3,0.6-0.6s-0.3-0.6-0.6-0.6h-6.6
					c-0.3,0-0.6,0.3-0.6,0.6s0.3,0.6,0.6,0.6h2.6l-0.2,1.3c-0.1,0.4,0,0.7,0.2,1s0.5,0.4,0.9,0.4H28c-0.2,1.1,0.1,2,0.7,2.8
					s1.6,1.2,2.6,1.2c2.1,0,4.1-1.7,4.5-3.8v-0.1h12.5c-0.2,1.1,0.1,2,0.7,2.8c0.6,0.8,1.6,1.2,2.6,1.2c2.1,0,4.1-1.7,4.5-3.8v-0.1
					h2.1c0.3,0,0.6-0.2,0.6-0.5l1.2-6.6C60.3,55.9,60.1,55.1,59.5,54.4z M50.1,53.4l0.7-4h5.5l0.3,4H50.1z M57.1,48L57.1,48l-6,0.1
					l0.2-1.4h4.8c0.3,0,0.6,0.1,0.8,0.3C57.1,47.3,57.2,47.7,57.1,48z M34.6,63.9c-0.3,1.5-1.7,2.8-3.3,2.8c-0.7,0-1.3-0.3-1.7-0.7
					c-0.4-0.5-0.6-1.1-0.4-1.8c0.3-1.5,1.7-2.8,3.3-2.8c0.7,0,1.3,0.3,1.7,0.7C34.5,62.5,34.7,63.2,34.6,63.9z M55,63.9
					c-0.3,1.5-1.7,2.8-3.3,2.8c-0.7,0-1.3-0.3-1.7-0.7c-0.4-0.5-0.6-1.1-0.4-1.8c0.3-1.5,1.7-2.8,3.3-2.8c0.7,0,1.3,0.3,1.7,0.7
					C54.9,62.5,55.1,63.2,55,63.9z M58.5,58.7h-0.8l0,0c-0.2,0-0.3-0.1-0.4-0.2c-0.1-0.1-0.1-0.3-0.1-0.4l0.1-0.8h1.4L58.5,58.7z"/>
			</g>
		</g>
		<g>
			<g>
				<path class="st3" d="M32.9,63.1c-0.2-0.3-0.5-0.4-0.9-0.4c-0.7,0-1.3,0.5-1.4,1.2c-0.1,0.4,0,0.7,0.2,1c0.2,0.3,0.5,0.4,0.9,0.4
					c0.7,0,1.3-0.5,1.4-1.2C33.2,63.7,33.1,63.4,32.9,63.1z"/>
			</g>
		</g>
		<g>
			<g>
				<path class="st3" d="M53.3,63.1c-0.2-0.3-0.5-0.4-0.9-0.4c-0.7,0-1.3,0.5-1.4,1.2c-0.1,0.4,0,0.7,0.2,1c0.2,0.3,0.5,0.4,0.9,0.4
					c0.7,0,1.3-0.5,1.4-1.2C53.6,63.7,53.5,63.4,53.3,63.1z"/>
			</g>
		</g>
		<g>
			<g>
				<path class="st3" d="M45.6,60h-7.8c-0.3,0-0.6,0.3-0.6,0.6s0.3,0.6,0.6,0.6h7.8c0.3,0,0.6-0.3,0.6-0.6
					C46.2,60.3,45.9,60,45.6,60z"/>
			</g>
		</g>
		<g>
			<g>
				<path class="st3" d="M34.4,57.4H23c-0.3,0-0.6,0.3-0.6,0.6s0.3,0.6,0.6,0.6h11.4c0.3,0,0.6-0.3,0.6-0.6
					C35.1,57.7,34.8,57.4,34.4,57.4z"/>
			</g>
		</g>
	</g>
	<g>
		<g>
			<g>
				<path class="st3" d="M78.7,45.8c-0.4-0.5-1-0.8-1.6-0.9l-0.3-4.1c0.3,0,0.6-0.2,0.6-0.5l0.1-0.7c0.1-0.7,0-1.4-0.5-1.9
					c-0.4-0.5-1.1-0.8-1.8-0.8h-4.5l0.2-1.3c0.1-0.4,0-0.7-0.2-1s-0.5-0.4-0.9-0.4H47.5c-0.7,0-1.3,0.5-1.4,1.2l-1.4,8.1h1.2l1.4-8
					c0-0.1,0.1-0.1,0.2-0.1h22.3l-2,11.2c-0.1,0.3,0.2,0.7,0.5,0.7c0.3,0.1,0.7-0.2,0.7-0.5l0.1-0.8h7.4l0,0l0,0
					c0.5,0,1,0.2,1.2,0.5c0.2,0.2,0.3,0.5,0.3,0.9h-2.1c-0.3,0-0.6,0.2-0.6,0.5l-0.2,1.3c-0.1,0.5,0,1.1,0.4,1.4
					c0.3,0.4,0.8,0.6,1.3,0.6h0.6L77,54.1h-1.6c-0.1-0.5-0.3-1-0.7-1.5c-0.6-0.8-1.6-1.2-2.6-1.2c-1.7,0-3.3,1.1-4.1,2.6h-0.2
					l0.8-4.6c0.1-0.3-0.2-0.7-0.5-0.7c-0.3-0.1-0.7,0.2-0.7,0.5L66.6,54h-6.7l-0.3,1.2h8.1c-0.2,1.1,0.1,2,0.7,2.8s1.6,1.2,2.6,1.2
					c2.1,0,4.1-1.7,4.5-3.8v-0.1h2.1c0.3,0,0.6-0.2,0.6-0.5l1.2-6.6C79.5,47.3,79.3,46.4,78.7,45.8z M69.4,44.8l0.7-4h5.5l0.3,4
					H69.4z M76.3,39.5h-6l0.2-1.4h4.8c0.3,0,0.6,0.1,0.8,0.3c0.2,0.2,0.3,0.6,0.2,0.9V39.5z M74.2,55.2c-0.3,1.5-1.7,2.8-3.3,2.8
					c-0.7,0-1.3-0.3-1.7-0.7c-0.4-0.5-0.6-1.1-0.4-1.8c0.3-1.5,1.7-2.8,3.3-2.8c0.7,0,1.3,0.3,1.7,0.7
					C74.2,53.9,74.3,54.5,74.2,55.2z M77.7,50.1h-0.8l0,0c-0.2,0-0.3-0.1-0.4-0.2c-0.1-0.1-0.1-0.3-0.1-0.4l0.1-0.8H78L77.7,50.1z"
					/>
			</g>
		</g>
		<g>
			<g>
				<path class="st3" d="M72.5,54.5c-0.2-0.3-0.5-0.4-0.9-0.4c-0.7,0-1.3,0.5-1.4,1.2c-0.1,0.4,0,0.7,0.2,1s0.5,0.4,0.9,0.4
					c0.7,0,1.3-0.5,1.4-1.2C72.8,55.1,72.7,54.7,72.5,54.5z"/>
			</g>
		</g>
		<g>
			<g>
				<path class="st3" d="M64.8,51.4h-3.7c-0.3,0-0.6,0.3-0.6,0.6s0.3,0.6,0.6,0.6h3.7c0.3,0,0.6-0.3,0.6-0.6S65.2,51.4,64.8,51.4z"
					/>
			</g>
		</g>
	</g>
</g>
</svg>
