<?xml version="1.0" encoding="UTF-8"?>
<!-- Generator: Adobe Illustrator 20.1.0, SVG Export Plug-In . SVG Version: 6.00 Build 0)  -->
<svg version="1.1" id="Capa_1" xmlns="http://www.w3.org/2000/svg" xmlns:xlink="http://www.w3.org/1999/xlink" x="0px" y="0px" viewBox="0 0 24 24" style="enable-background:new 0 0 24 24;" xml:space="preserve">
<style type="text/css">
	.st0{fill:none;}
	.st1{fill:#757575;}
</style>
<path class="st0" d="M0,0h24v24H0V0z"/>
<path class="st1" d="M4,4v4.8h1.8l1,6.4H5.6V20h4.8v-1.6l4,0V20h4.8v-4.8h-1.5l0.7-5.6H20V4.8h-4.8v2.8l-1,1.2h-4.2L8.8,7.1V4   M5.6,5.6h1.6v1.6H5.6 M16.8,6.4h1.6V8h-1.6 M7.4,8.8h0.6l1.5,2.1v2.7h4.8v-2.5l1.3-1.5h1.1l-0.7,5.6h-1.7v1.6h-4v-1.6H8.5   M11.2,10.4h1.6V12h-1.6 M7.2,16.8h1.6v1.6H7.2 M16,16.8h1.6v1.6H16"/>
</svg>