<svg xmlns="http://www.w3.org/2000/svg" width="23" height="11" viewBox="0 0 23 11">
    <g fill="#FFF" fill-rule="nonzero" stroke="#FFF">
        <path d="M1.41 10.26a.32.32 0 0 1-.093-.225l.001-9.07c0-.176.143-.319.318-.319h19.732c.169 0 .318.149.318.318l-.001 9.07a.318.318 0 0 1-.319.317l-19.731.002a.32.32 0 0 1-.225-.093zm.544-8.977v8.433l19.095-.001.001-8.433H1.954z"/>
        <path d="M17.724 3.461a.317.317 0 0 1-.093-.223V1.034a.316.316 0 0 1 .632 0v2.204a.316.316 0 0 1-.539.223zM14.502 4.874a.317.317 0 0 1-.092-.223V1.034a.316.316 0 0 1 .631 0v3.617a.316.316 0 0 1-.539.223zM11.278 3.461a.317.317 0 0 1-.092-.223V1.035a.316.316 0 0 1 .631 0v2.203a.316.316 0 0 1-.539.223zM8.055 4.874a.317.317 0 0 1-.093-.223V1.035a.316.316 0 0 1 .632 0V4.65a.316.316 0 0 1-.539.223zM4.833 3.461a.317.317 0 0 1-.093-.223V1.034a.316.316 0 0 1 .631 0v2.204a.316.316 0 0 1-.538.223z"/>
    </g>
</svg>
