<svg xmlns="http://www.w3.org/2000/svg" width="24" height="24" viewBox="0 0 24 24">
    <g fill="none" fill-rule="evenodd">
        <circle cx="12" cy="12" r="10" fill="#AC0" stroke="#FFF"/>
        <path fill="#FFF" fill-rule="nonzero" d="M11.8 17.137c.935 0 1.694-.262 2.277-.786.583-.525.875-1.233.875-2.126 0-.58-.15-1.07-.448-1.47-.298-.401-.72-.688-1.268-.861.483-.201.865-.504 1.145-.91.28-.405.42-.824.42-1.257 0-.885-.266-1.575-.799-2.072-.533-.496-1.27-.745-2.208-.745-.889 0-1.621.261-2.198.783-.576.522-.865 1.177-.865 1.965h1.265c0-.515.163-.928.489-1.24.326-.313.762-.469 1.309-.469 1.162 0 1.743.584 1.743 1.75 0 .52-.17.932-.513 1.238-.341.305-.81.462-1.408.471h-.95v1.032h.95c.67.01 1.183.169 1.538.479.356.31.534.754.534 1.333 0 .597-.162 1.055-.486 1.374-.323.319-.79.478-1.401.478-.574 0-1.032-.157-1.374-.471-.342-.315-.513-.734-.513-1.258H8.643c0 .83.292 1.497.878 2.003.586.506 1.346.759 2.28.759z"/>
    </g>
</svg>
