<?xml version="1.0" encoding="UTF-8"?>
<svg width="21px" height="18px" viewBox="0 0 21 18" version="1.1" xmlns="http://www.w3.org/2000/svg" xmlns:xlink="http://www.w3.org/1999/xlink">
    <title>ic_tracking</title>
    <g id="Page-1" stroke="none" stroke-width="1" fill="none" fill-rule="evenodd">
        <g id="Artboard" transform="translate(-427.000000, -588.000000)" stroke="#4080F8">
            <g id="ic_tracking" transform="translate(428.000000, 589.000000)">
                <path d="M18.978625,14.4418909 C18.9753594,14.4334545 18.9712031,14.4258909 18.9670469,14.4180364 C18.9611094,14.4066909 18.9575469,14.3947636 18.950125,14.3842909 L15.981375,10.0206545 C15.9757344,10.0128 15.9674219,10.0084364 15.9614844,10.0011636 C15.9487187,9.98545455 15.9347656,9.97207273 15.9187344,9.95927273 C15.9038906,9.94763636 15.88875,9.93745455 15.8724219,9.92872727 C15.8560937,9.92029091 15.8397656,9.91389091 15.8219531,9.90865455 C15.8020625,9.90254545 15.7824687,9.89876364 15.7619844,9.89672727 C15.7524844,9.89556364 15.7441719,9.89090909 15.734375,9.89090909 L12.0655937,9.89090909 C13.1729375,8.44741818 14.25,6.55534545 14.25,4.65454545 C14.25,2.08814545 12.1190312,0 9.5,0 C6.88096875,0 4.75,2.08814545 4.75,4.65454545 C4.75,6.55534545 5.8270625,8.44741818 6.93440625,9.89090909 L3.265625,9.89090909 C3.25582812,9.89090909 3.24751562,9.89556364 3.23801562,9.89643636 C3.21723437,9.89847273 3.19764062,9.90225455 3.17775,9.90836364 C3.1599375,9.91389091 3.14390625,9.92 3.127875,9.92843636 C3.11095312,9.93716364 3.09610937,9.94734545 3.08096875,9.95927273 C3.0649375,9.97207273 3.05128125,9.98545455 3.03851562,10.0008727 C3.03228125,10.0081455 3.02396875,10.0125091 3.018625,10.0203636 L0.049875,14.384 C0.04275,14.3944727 0.038890625,14.4064 0.032953125,14.4177455 C0.028796875,14.4256 0.024640625,14.4331636 0.021375,14.4416 C0.00890625,14.4730182 0.00178125,14.5061818 0.0011875,14.5396364 C0.0011875,14.5416727 0,14.5434182 0,14.5454545 L0,15.7090909 C0,15.8699636 0.132703125,16 0.296875,16 L18.703125,16 C18.8672969,16 19,15.8699636 19,15.7090909 L19,14.5454545 C19,14.5434182 18.9988125,14.5416727 18.9988125,14.5396364 C18.9982187,14.5061818 18.9910937,14.4736 18.978625,14.4418909 Z M18.1485625,14.2545455 L16.2631094,14.2545455 L15.9801875,13.6727273 L17.7528281,13.6727273 L18.1485625,14.2545455 Z M15.5755469,10.4727273 L16.5650313,11.9272727 L15.1308281,11.9272727 L14.423375,10.4727273 L15.5755469,10.4727273 Z M5.34375,4.65454545 C5.34375,2.40872727 7.208125,0.581818182 9.5,0.581818182 C11.791875,0.581818182 13.65625,2.40872727 13.65625,4.65454545 C13.65625,7.77716364 10.347875,11.0382545 9.5,11.8228364 C9.41360937,11.7428364 9.30020312,11.6354909 9.1686875,11.5069091 C9.14078125,11.4528 9.09684375,11.4097455 9.04192187,11.3815273 C7.82710937,10.1696 5.34375,7.36087273 5.34375,4.65454545 Z M10.2472344,11.9272727 L12.3740469,11.9272727 L12.6293594,12.8 L6.37064063,12.8 L6.62595313,11.9272727 L8.75276563,11.9272727 C9.05854688,12.224 9.26665625,12.4049455 9.3040625,12.4369455 C9.36017187,12.4849455 9.43023437,12.5090909 9.5,12.5090909 C9.56976563,12.5090909 9.63982812,12.4849455 9.69564063,12.4369455 C9.73304687,12.4049455 9.94115625,12.224 10.2472344,11.9272727 Z M3.42445312,10.4727273 L7.40109375,10.4727273 C7.67273437,10.7970909 7.93725,11.0906182 8.1783125,11.3454545 L6.40270312,11.3454545 C6.39646875,11.3454545 6.39082812,11.3486545 6.38429687,11.3492364 C6.36470312,11.3504 6.34659375,11.3553455 6.3281875,11.3602909 C6.3091875,11.3652364 6.2901875,11.3693091 6.27267187,11.3780364 C6.25664062,11.3856 6.24328125,11.3963636 6.22932812,11.4068364 C6.213,11.4184727 6.19726562,11.4295273 6.18360937,11.4440727 C6.17203125,11.4568727 6.16401562,11.472 6.15451562,11.4865455 C6.14323437,11.5042909 6.13254687,11.5211636 6.12542187,11.5412364 C6.12334375,11.5467636 6.1191875,11.5505455 6.11740625,11.5563636 L5.6916875,13.0109091 C5.68782812,13.0242909 5.69020312,13.0370909 5.68842187,13.0504727 C5.68634375,13.0644364 5.68010937,13.0766545 5.68010937,13.0912 C5.68010937,13.0973091 5.683375,13.1025455 5.68367187,13.1086545 C5.68515625,13.1287273 5.69020312,13.1473455 5.69554687,13.1665455 C5.70089062,13.1842909 5.70445312,13.2017455 5.71276562,13.2180364 C5.72107812,13.2343273 5.7320625,13.248 5.74334375,13.2622545 C5.75521875,13.2779636 5.76620312,13.2928 5.78075,13.3058909 C5.7938125,13.3172364 5.80925,13.3250909 5.82409375,13.3344 C5.84220312,13.3454545 5.85942187,13.3559273 5.87990625,13.3629091 C5.88554687,13.3649455 5.88940625,13.3690182 5.89534375,13.3707636 C5.92235937,13.3783273 5.94967187,13.3818182 5.97639062,13.3821091 L5.97698437,13.3821091 L13.0230156,13.3821091 L13.0236094,13.3821091 C13.050625,13.3818182 13.0779375,13.3783273 13.1046562,13.3707636 C13.1105937,13.3690182 13.1144531,13.3646545 13.1200937,13.3629091 C13.1405781,13.3562182 13.1580937,13.3454545 13.1759062,13.3344 C13.1910469,13.3253818 13.2064844,13.3172364 13.21925,13.3058909 C13.2337969,13.2928 13.2447812,13.2773818 13.2566562,13.2622545 C13.2676406,13.2477091 13.2789219,13.2340364 13.2872344,13.2180364 C13.2955469,13.2020364 13.2994062,13.1842909 13.3044531,13.1662545 C13.3097969,13.1473455 13.3148437,13.1287273 13.3163281,13.1086545 C13.316625,13.1025455 13.3198906,13.0976 13.3198906,13.0912 C13.3198906,13.0766545 13.3136562,13.0644364 13.3115781,13.0504727 C13.3097969,13.0370909 13.3121719,13.0242909 13.3083125,13.0109091 L12.8825937,11.5563636 C12.8808125,11.5505455 12.8763594,11.5467636 12.8745781,11.5412364 C12.86775,11.5211636 12.8564687,11.5037091 12.8451875,11.4859636 C12.8359844,11.4714182 12.8279687,11.4565818 12.8163906,11.4440727 C12.8027344,11.4289455 12.7864062,11.4178909 12.7700781,11.4059636 C12.7558281,11.3960727 12.7430625,11.3856 12.7273281,11.3777455 C12.7095156,11.3693091 12.6905156,11.3649455 12.6709219,11.3597091 C12.6525156,11.3550545 12.6352969,11.3501091 12.6157031,11.3489455 C12.6094687,11.3486545 12.6038281,11.3451636 12.597,11.3451636 L10.8213906,11.3451636 C11.06275,11.0903273 11.3269687,10.7968 11.5986094,10.4724364 L13.7655,10.4724364 L14.6748281,12.3418182 C14.6887812,12.3709091 14.7074844,12.3953455 14.7291562,12.4171636 C14.7359844,12.4241455 14.7445937,12.4293818 14.7520156,12.4357818 C14.770125,12.4509091 14.7888281,12.4637091 14.8096094,12.4738909 C14.8214844,12.48 14.8330625,12.4849455 14.8458281,12.4896 C14.8701719,12.4977455 14.8954062,12.5026909 14.9215312,12.5047273 C14.9289531,12.5053091 14.9357812,12.5090909 14.9435,12.5090909 L16.9607656,12.5090909 L17.3565,13.0909091 L15.5096406,13.0909091 C15.5081562,13.0909091 15.5069687,13.0917818 15.5051875,13.0917818 C15.4805469,13.0920727 15.4559062,13.0996364 15.4312656,13.1063273 C15.4173125,13.1104 15.4024687,13.1112727 15.3894062,13.1168 C15.3864375,13.1179636 15.3834687,13.1176727 15.3810937,13.1188364 C15.3629844,13.1272727 15.3502187,13.1412364 15.3350781,13.1525818 C15.3217187,13.1621818 15.3071719,13.1700364 15.2958906,13.1816727 C15.2789687,13.1991273 15.2676875,13.2192 15.2558125,13.2395636 C15.2489844,13.2514909 15.2397813,13.2619636 15.2347344,13.2747636 C15.2246406,13.2997818 15.221375,13.3259636 15.2187031,13.3527273 C15.2175156,13.3626182 15.2124687,13.3713455 15.2124687,13.3821091 C15.2124687,13.3838545 15.2133594,13.3850182 15.2133594,13.3864727 C15.2136562,13.4088727 15.2210781,13.4304 15.2270156,13.4530909 C15.2314687,13.4690909 15.2326562,13.4856727 15.2391875,13.5005091 C15.240375,13.5028364 15.2397813,13.5051636 15.2409687,13.5069091 L15.6049375,14.2548364 L3.39446875,14.2548364 L4.7488125,11.4711273 C4.74970313,11.4693818 4.74940625,11.4673455 4.75029688,11.4656 C4.7595,11.4461091 4.76217188,11.4237091 4.766625,11.4018909 C4.7701875,11.3850182 4.77642188,11.3693091 4.77671875,11.3527273 C4.77671875,11.3501091 4.77820313,11.3480727 4.77820313,11.3457455 C4.77820313,11.3288727 4.771375,11.3146182 4.76840625,11.2983273 C4.76514063,11.2794182 4.76395313,11.2599273 4.75682813,11.2418909 C4.74940625,11.2226909 4.7369375,11.2066909 4.72535938,11.1892364 C4.71615625,11.1749818 4.70873437,11.1601455 4.69685937,11.1476364 C4.68023437,11.1304727 4.66004687,11.1185455 4.63985937,11.1057455 C4.628875,11.0987636 4.62115625,11.0885818 4.60898438,11.0830545 C4.60720312,11.0821818 4.605125,11.0824727 4.60334375,11.0816 C4.58464062,11.0734545 4.56385937,11.0714182 4.54367187,11.0667636 C4.52467187,11.0626909 4.50596875,11.056 4.48696875,11.0557091 C4.48489063,11.0557091 4.48340625,11.0545455 4.48132812,11.0545455 L3.02901563,11.0545455 L3.42445312,10.4727273 Z M2.6326875,11.6363636 L4.01048438,11.6363636 L2.73689063,14.2545455 L0.8514375,14.2545455 L2.6326875,11.6363636 Z M18.40625,15.4181818 L0.59375,15.4181818 L0.59375,14.8363636 L18.40625,14.8363636 L18.40625,15.4181818 Z" id="Shape" stroke-width="0.3" fill="#4080F8" fill-rule="nonzero"></path>
                <ellipse id="Oval" stroke-width="0.9" cx="9.5" cy="4.70588235" rx="1.9" ry="1.88235294"></ellipse>
            </g>
        </g>
    </g>
</svg>