<?xml version="1.0" encoding="utf-8"?>
<!-- Generator: Adobe Illustrator 20.1.0, SVG Export Plug-In . SVG Version: 6.00 Build 0)  -->
<svg version="1.1" id="Capa_1" xmlns="http://www.w3.org/2000/svg" xmlns:xlink="http://www.w3.org/1999/xlink" x="0px" y="0px"
	 viewBox="0 0 36 36" style="enable-background:new 0 0 36 36;" xml:space="preserve">
<style type="text/css">
	.st0{fill:none;stroke:#253080;stroke-miterlimit:10;}
	.st1{fill:#253080;}
</style>
<circle class="st0" cx="18" cy="18" r="17.4"/>
<g>
	<path class="st1" d="M31.5,17.3c-0.3-0.3-0.7-0.6-1.1-0.7l-0.2-2.9c0.2,0,0.4-0.2,0.4-0.4l0.1-0.5c0.1-0.5,0-1-0.3-1.4
		c-0.3-0.4-0.7-0.6-1.2-0.6h-3.2l0.2-0.9c0-0.3,0-0.5-0.2-0.7c-0.2-0.2-0.4-0.3-0.6-0.3H9.4c-0.5,0-0.9,0.4-1,0.8L7,17.9
		c0,0.2,0.1,0.5,0.4,0.5c0,0,0.1,0,0.1,0c0.2,0,0.4-0.1,0.4-0.4l1.4-7.9c0-0.1,0.1-0.1,0.1-0.1l15.8,0l-1.4,7.9
		c0,0.2,0.1,0.5,0.4,0.5c0.2,0,0.5-0.1,0.5-0.4l0.1-0.6H30c0,0,0,0,0,0c0,0,0,0,0,0c0.4,0,0.7,0.1,0.9,0.4c0.1,0.2,0.2,0.4,0.2,0.6
		h-1.5c-0.2,0-0.4,0.2-0.4,0.4l-0.2,0.9c-0.1,0.4,0,0.8,0.3,1c0.2,0.3,0.6,0.4,0.9,0.4h0.4l-0.3,1.9h-1.2c-0.1-0.4-0.2-0.7-0.5-1
		c-0.4-0.5-1.1-0.8-1.9-0.8c-1.2,0-2.4,0.8-2.9,1.9h-0.2l0.6-3.2c0-0.2-0.1-0.5-0.4-0.5c-0.2,0-0.5,0.1-0.5,0.4l-0.6,3.4h-8.1
		c-0.1-0.4-0.2-0.7-0.5-1c-0.4-0.5-1.1-0.8-1.9-0.8c-1.2,0-2.4,0.8-2.9,1.9l-2.5,0l0.2-1h2c0.2,0,0.4-0.2,0.4-0.4
		c0-0.2-0.2-0.4-0.4-0.4H4.4c-0.2,0-0.4,0.2-0.4,0.4c0,0.2,0.2,0.4,0.4,0.4h1.8l-0.2,0.9c0,0.3,0,0.5,0.2,0.7
		c0.2,0.2,0.4,0.3,0.6,0.3h2.3c-0.1,0.7,0.1,1.4,0.5,2c0.4,0.5,1.1,0.8,1.9,0.8c1.5,0,2.9-1.2,3.2-2.7c0,0,0-0.1,0-0.1h8.9
		c-0.1,0.7,0.1,1.4,0.5,2c0.4,0.5,1.1,0.8,1.9,0.8c1.5,0,2.9-1.2,3.2-2.7c0,0,0-0.1,0-0.1h1.5c0.2,0,0.4-0.2,0.4-0.4L32,19
		C32.1,18.4,31.9,17.8,31.5,17.3z M24.9,16.6l0.5-2.9h3.9l0.2,2.9H24.9z M29.8,12.8l0,0.1h-4.3l0.2-1h3.4c0.2,0,0.4,0.1,0.6,0.2
		C29.8,12.3,29.9,12.5,29.8,12.8z M13.9,24c-0.2,1.1-1.2,2-2.3,2c-0.5,0-0.9-0.2-1.2-0.5c-0.3-0.3-0.4-0.8-0.3-1.3
		c0.2-1.1,1.2-2,2.3-2c0.5,0,0.9,0.2,1.2,0.5C13.9,23,14,23.5,13.9,24z M28.3,24c-0.2,1.1-1.2,2-2.3,2c-0.5,0-0.9-0.2-1.2-0.5
		c-0.3-0.3-0.4-0.8-0.3-1.3c0.2-1.1,1.2-2,2.3-2c0.5,0,0.9,0.2,1.2,0.5C28.3,23,28.4,23.5,28.3,24z M30.8,20.4h-0.6v0
		c-0.1,0-0.2,0-0.3-0.1c-0.1-0.1-0.1-0.2-0.1-0.3l0.1-0.6h1L30.8,20.4z"/>
	<path class="st1" d="M12.7,23.5c-0.2-0.2-0.4-0.3-0.6-0.3c-0.5,0-0.9,0.4-1,0.8c0,0.3,0,0.5,0.2,0.7c0.2,0.2,0.4,0.3,0.6,0.3
		c0.5,0,0.9-0.4,1-0.8C12.9,23.9,12.9,23.7,12.7,23.5z"/>
	<path class="st1" d="M27.1,23.5c-0.2-0.2-0.4-0.3-0.6-0.3c-0.5,0-0.9,0.4-1,0.8c0,0.3,0,0.5,0.2,0.7c0.2,0.2,0.4,0.3,0.6,0.3
		c0.5,0,0.9-0.4,1-0.8C27.4,23.9,27.3,23.7,27.1,23.5z"/>
	<path class="st1" d="M21.7,21.3h-5.6c-0.2,0-0.4,0.2-0.4,0.4c0,0.2,0.2,0.4,0.4,0.4h5.6c0.2,0,0.4-0.2,0.4-0.4
		C22.1,21.5,21.9,21.3,21.7,21.3z"/>
	<path class="st1" d="M13.8,19.4H5.7c-0.2,0-0.4,0.2-0.4,0.4c0,0.2,0.2,0.4,0.4,0.4h8.1c0.2,0,0.4-0.2,0.4-0.4
		C14.2,19.6,14,19.4,13.8,19.4z"/>
</g>
</svg>
