<svg xmlns="http://www.w3.org/2000/svg" xmlns:xlink="http://www.w3.org/1999/xlink" width="88" height="88" viewBox="0 0 88 88">
    <defs>
        <linearGradient id="a" x1="2.384%" x2="102%" y1="2.36%" y2="101%">
            <stop offset="0%" stop-color="#4184F3"/>
            <stop offset="100%" stop-color="#1128D4"/>
        </linearGradient>
        <linearGradient id="c" x1="50%" x2="50%" y1="0%" y2="100%">
            <stop offset="0%" stop-color="#4080F8"/>
            <stop offset="100%" stop-color="#3456E0"/>
        </linearGradient>
        <path id="b" d="M43 44.494c1.383 0 2.924.215 4.624.646 1.904.476 3.445 1.11 4.624 1.904 1.405.952 2.108 2.006 2.108 3.162v4.25H31.644v-4.25c0-1.156.703-2.21 2.108-3.162 1.179-.793 2.72-1.428 4.624-1.904 1.7-.43 3.241-.646 4.624-.646zm0-12.75c1.02 0 1.96.255 2.822.765a5.69 5.69 0 0 1 2.057 2.091 5.62 5.62 0 0 1 .765 2.856c0 1.02-.255 1.96-.765 2.822a5.77 5.77 0 0 1-2.057 2.057A5.439 5.439 0 0 1 43 43.1c-1.02 0-1.96-.255-2.822-.765a5.77 5.77 0 0 1-2.057-2.057 5.439 5.439 0 0 1-.765-2.822c0-1.02.255-1.972.765-2.856a5.69 5.69 0 0 1 2.057-2.091A5.439 5.439 0 0 1 43 31.744zm0 15.47c-1.292 0-2.663.193-4.114.578-1.247.34-2.312.748-3.196 1.224-.884.476-1.326.873-1.326 1.19v1.53h17.272v-1.53c0-.317-.442-.714-1.326-1.19-.884-.476-1.95-.884-3.196-1.224-1.45-.385-2.822-.578-4.114-.578zm0-12.75c-.839 0-1.547.289-2.125.867-.578.578-.867 1.286-.867 2.125s.289 1.536.867 2.091c.578.555 1.286.833 2.125.833s1.547-.278 2.125-.833c.578-.555.867-1.252.867-2.091 0-.839-.289-1.547-.867-2.125-.578-.578-1.286-.867-2.125-.867z"/>
    </defs>
    <g fill="none" fill-rule="nonzero" transform="translate(1 1)">
        <circle cx="43" cy="43" r="43" stroke="url(#a)"/>
        <use fill="#757575" xlink:href="#b"/>
        <use fill="url(#c)" xlink:href="#b"/>
    </g>
</svg>
