<?xml version="1.0" encoding="UTF-8"?>
<!-- Generator: Adobe Illustrator 20.1.0, SVG Export Plug-In . SVG Version: 6.00 Build 0)  -->
<svg  fill="#000000" version="1.1" id="Capa_1" xmlns="http://www.w3.org/2000/svg" xmlns:xlink="http://www.w3.org/1999/xlink" x="0px" y="0px" viewBox="0 0 24 24" style="enable-background:new 0 0 24 24;" xml:space="preserve">
<style type="text/css">
	<!--.st0{fill:#757575;}-->
	.st1{fill:none;}
</style>
<path class="st0" d="M19.1,10.2h-2.7v-1c1.5-0.4,2.7-1.8,2.7-3.4h-2.7V4.9C16.4,4.4,16,4,15.6,4H8.4C8,4,7.6,4.4,7.6,4.9v0.9H4.9  c0,1.7,1.1,3,2.7,3.4v1H4.9c0,1.7,1.1,3,2.7,3.4v1H4.9c0,1.7,1.1,3,2.7,3.4v1C7.6,19.6,8,20,8.4,20h7.1c0.5,0,0.9-0.4,0.9-0.9v-1  c1.5-0.4,2.7-1.8,2.7-3.4h-2.7v-1C18,13.3,19.1,11.9,19.1,10.2z M12,18.2c-1,0-1.8-0.8-1.8-1.8s0.8-1.8,1.8-1.8c1,0,1.8,0.8,1.8,1.8  S13,18.2,12,18.2z M12,13.8c-1,0-1.8-0.8-1.8-1.8s0.8-1.8,1.8-1.8c1,0,1.8,0.8,1.8,1.8S13,13.8,12,13.8z M12,9.3  c-1,0-1.8-0.8-1.8-1.8c0-1,0.8-1.8,1.8-1.8c1,0,1.8,0.8,1.8,1.8C13.8,8.5,13,9.3,12,9.3z"/>
<path class="st1" d="M0,0h24v24H0V0z"/>
</svg>