<?xml version="1.0" encoding="utf-8"?>
<!-- Generator: Adobe Illustrator 20.1.0, SVG Export Plug-In . SVG Version: 6.00 Build 0)  -->
<svg version="1.1" id="Capa_1" xmlns="http://www.w3.org/2000/svg" xmlns:xlink="http://www.w3.org/1999/xlink" x="0px" y="0px"
	 viewBox="0 0 36 36" style="enable-background:new 0 0 36 36;" xml:space="preserve">
<style type="text/css">
	.st0{fill:none;stroke:#253080;stroke-miterlimit:10;}
	.st1{fill:#253080;}
	.st2{fill:#253081;}
</style>
<circle class="st0" cx="18" cy="18" r="17.4"/>
<path class="st1" d="M17,20.7h2c0.3,0,0.5-0.2,0.5-0.5s-0.2-0.5-0.5-0.5h-2c-0.3,0-0.5,0.2-0.5,0.5S16.7,20.7,17,20.7z"/>
<g>
	<g>
		<path class="st1" d="M17.9,18.7C18,18.7,18,18.7,17.9,18.7C18,18.7,18,18.7,17.9,18.7c0.1,0,0.1,0,0.1,0c1.1,0,1.9-0.4,2.6-1.1
			c1.4-1.6,1.2-4.3,1.2-4.6c-0.1-2-1-2.9-1.8-3.3c-0.6-0.3-1.2-0.5-2-0.5h0c0,0,0,0,0,0h0c-0.4,0-1.2,0.1-2,0.5
			c-0.8,0.4-1.7,1.4-1.8,3.3c0,0.3-0.3,3,1.2,4.6C16,18.3,16.9,18.7,17.9,18.7z M15.2,13.1C15.2,13.1,15.2,13.1,15.2,13.1
			c0.1-2.7,2-2.9,2.8-2.9h0c0,0,0,0,0,0c1,0,2.7,0.4,2.8,2.9c0,0,0,0,0,0c0,0,0.3,2.5-0.9,3.8c-0.5,0.5-1.1,0.8-1.9,0.8c0,0,0,0,0,0
			l0,0c0,0,0,0,0,0c-0.8,0-1.4-0.3-1.9-0.8C14.9,15.6,15.2,13.1,15.2,13.1z"/>
		<path class="st1" d="M25.5,23.2C25.5,23.2,25.5,23.2,25.5,23.2c0,0,0-0.1,0-0.1c0-0.7-0.1-2.4-1.7-3c0,0,0,0,0,0
			c-1.7-0.4-3-1.4-3-1.4c-0.2-0.2-0.5-0.1-0.7,0.1s-0.1,0.5,0.1,0.7c0.1,0,1.5,1.1,3.3,1.5c0.9,0.3,0.9,1.2,1,2.1c0,0,0,0.1,0,0.1
			c0,0.3,0,0.8-0.1,1.1c-0.6,0.3-2.9,1.5-6.5,1.5c-3.5,0-5.9-1.2-6.5-1.5c-0.1-0.3-0.1-0.8-0.1-1.1c0,0,0-0.1,0-0.1
			c0-0.8,0.1-1.7,1-2.1c1.8-0.5,3.3-1.5,3.3-1.5c0.2-0.2,0.3-0.5,0.1-0.7c-0.2-0.2-0.5-0.3-0.7-0.1c0,0-1.4,1-3,1.4c0,0,0,0,0,0
			c-1.6,0.5-1.6,2.2-1.7,3c0,0,0,0.1,0,0.1c0,0,0,0,0,0c0,0.2,0,1.2,0.2,1.7c0,0.1,0.1,0.2,0.2,0.2c0.1,0.1,2.7,1.8,7.2,1.8
			s7-1.7,7.2-1.8c0.1-0.1,0.2-0.1,0.2-0.2C25.5,24.4,25.5,23.4,25.5,23.2z"/>
	</g>
</g>
</svg>
