<?xml version="1.0" encoding="utf-8"?>
<!-- Generator: Adobe Illustrator 20.0.0, SVG Export Plug-In . SVG Version: 6.00 Build 0)  -->
<svg fill="#253081" version="1.1" id="Capa_1" xmlns="http://www.w3.org/2000/svg" xmlns:xlink="http://www.w3.org/1999/xlink" x="0px" y="0px"
	 viewBox="0 0 21.2 19" style="enable-background:new 0 0 21.2 19;" xml:space="preserve">
<style type="text/css">
	.st0{fill:#253081;}
</style>
<g>
	<g>
		<path class="st0" d="M19.7,9.7c0,0.7-0.5,1.2-1.2,1.2c-0.1,0-0.2,0-0.3,0L16.1,13c0,0.1,0,0.2,0,0.3c0,0.7-0.5,1.2-1.2,1.2
			s-1.2-0.5-1.2-1.2c0-0.1,0-0.2,0-0.3l-1.5-1.5c-0.1,0-0.2,0-0.3,0s-0.2,0-0.3,0l-4.4,4.6c0,0.1,0,0.2,0,0.3c0,0.7-0.5,1.2-1.2,1.2
			S4.8,17,4.8,16.4c0-0.7,0.5-1.2,1.2-1.2c0.1,0,0.2,0,0.3,0l4.4-4.6c0-0.1,0-0.2,0-0.3c0-0.7,0.5-1.2,1.2-1.2s1.2,0.5,1.2,1.2
			c0,0.1,0,0.2,0,0.3l1.5,1.5c0.1,0,0.2,0,0.3,0s0.2,0,0.3,0l2.1-2.1c0-0.1,0-0.2,0-0.3c0-0.7,0.5-1.2,1.2-1.2
			C19.2,8.5,19.7,9.1,19.7,9.7z"/>
	</g>
	<path class="st0" d="M5.7,7.4C4.9,7.4,4.3,6.8,4.3,6s0.6-1.4,1.4-1.4S7.1,5.2,7.1,6S6.5,7.4,5.7,7.4 M5.7,2c-2.2,0-4,1.8-4,4
		c0,3,4,7.4,4,7.4s4-4.4,4-7.4C9.7,3.8,7.9,2,5.7,2z"/>
</g>
</svg>
